solid OpenSCAD_Model
  facet normal 0.998027 0.0627908 0
    outer loop
      vertex 7.5 0 50
      vertex 7.44086 0.939999 0
      vertex 7.44086 0.939999 50
    endloop
  endfacet
  facet normal 0.998027 0.0627908 0
    outer loop
      vertex 7.44086 0.939999 0
      vertex 7.5 0 50
      vertex 7.5 0 0
    endloop
  endfacet
  facet normal -0.998027 0.0627908 0
    outer loop
      vertex -7.5 0 0
      vertex -7.44086 0.939999 50
      vertex -7.44086 0.939999 0
    endloop
  endfacet
  facet normal -0.998027 0.0627908 0
    outer loop
      vertex -7.44086 0.939999 50
      vertex -7.5 0 0
      vertex -7.5 0 50
    endloop
  endfacet
  facet normal 0 1 -0
    outer loop
      vertex 0.470928 7.4852 0
      vertex -0.470928 7.4852 50
      vertex 0.470928 7.4852 50
    endloop
  endfacet
  facet normal 0 1 0
    outer loop
      vertex -0.470928 7.4852 50
      vertex 0.470928 7.4852 0
      vertex -0.470928 7.4852 0
    endloop
  endfacet
  facet normal 0 -1 0
    outer loop
      vertex -0.470928 -7.4852 0
      vertex 0.470928 -7.4852 50
      vertex -0.470928 -7.4852 50
    endloop
  endfacet
  facet normal 0 -1 -0
    outer loop
      vertex 0.470928 -7.4852 50
      vertex -0.470928 -7.4852 0
      vertex 0.470928 -7.4852 0
    endloop
  endfacet
  facet normal 0.684552 0.728964 -0
    outer loop
      vertex 5.46726 5.1341 0
      vertex 4.78068 5.77885 50
      vertex 5.46726 5.1341 50
    endloop
  endfacet
  facet normal 0.684552 0.728964 0
    outer loop
      vertex 4.78068 5.77885 50
      vertex 5.46726 5.1341 0
      vertex 4.78068 5.77885 0
    endloop
  endfacet
  facet normal -0.684552 0.728964 0
    outer loop
      vertex -4.78068 5.77885 0
      vertex -5.46726 5.1341 50
      vertex -4.78068 5.77885 50
    endloop
  endfacet
  facet normal -0.684552 0.728964 0
    outer loop
      vertex -5.46726 5.1341 50
      vertex -4.78068 5.77885 0
      vertex -5.46726 5.1341 0
    endloop
  endfacet
  facet normal -0.368126 0.929776 0
    outer loop
      vertex -2.31763 7.13292 0
      vertex -3.19334 6.7862 50
      vertex -2.31763 7.13292 50
    endloop
  endfacet
  facet normal -0.368126 0.929776 0
    outer loop
      vertex -3.19334 6.7862 50
      vertex -2.31763 7.13292 0
      vertex -3.19334 6.7862 0
    endloop
  endfacet
  facet normal 0.84433 -0.535823 0
    outer loop
      vertex 6.06763 -4.40839 50
      vertex 6.5723 -3.61315 0
      vertex 6.5723 -3.61315 50
    endloop
  endfacet
  facet normal 0.84433 -0.535823 0
    outer loop
      vertex 6.5723 -3.61315 0
      vertex 6.06763 -4.40839 50
      vertex 6.06763 -4.40839 0
    endloop
  endfacet
  facet normal 0.904829 0.425776 0
    outer loop
      vertex 6.97332 2.76093 50
      vertex 6.5723 3.61315 0
      vertex 6.5723 3.61315 50
    endloop
  endfacet
  facet normal 0.904829 0.425776 0
    outer loop
      vertex 6.5723 3.61315 0
      vertex 6.97332 2.76093 50
      vertex 6.97332 2.76093 0
    endloop
  endfacet
  facet normal 0.368126 0.929776 -0
    outer loop
      vertex 3.19334 6.7862 0
      vertex 2.31763 7.13292 50
      vertex 3.19334 6.7862 50
    endloop
  endfacet
  facet normal 0.368126 0.929776 0
    outer loop
      vertex 2.31763 7.13292 50
      vertex 3.19334 6.7862 0
      vertex 2.31763 7.13292 0
    endloop
  endfacet
  facet normal 0.248689 0.968583 -0
    outer loop
      vertex 2.31763 7.13292 0
      vertex 1.40536 7.36715 50
      vertex 2.31763 7.13292 50
    endloop
  endfacet
  facet normal 0.248689 0.968583 0
    outer loop
      vertex 1.40536 7.36715 50
      vertex 2.31763 7.13292 0
      vertex 1.40536 7.36715 0
    endloop
  endfacet
  facet normal 0.481749 0.876309 -0
    outer loop
      vertex 4.0187 6.33246 0
      vertex 3.19334 6.7862 50
      vertex 4.0187 6.33246 50
    endloop
  endfacet
  facet normal 0.481749 0.876309 0
    outer loop
      vertex 3.19334 6.7862 50
      vertex 4.0187 6.33246 0
      vertex 3.19334 6.7862 0
    endloop
  endfacet
  facet normal -0.904829 0.425776 0
    outer loop
      vertex -6.97332 2.76093 0
      vertex -6.5723 3.61315 50
      vertex -6.5723 3.61315 0
    endloop
  endfacet
  facet normal -0.904829 0.425776 0
    outer loop
      vertex -6.5723 3.61315 50
      vertex -6.97332 2.76093 0
      vertex -6.97332 2.76093 50
    endloop
  endfacet
  facet normal 0 0 1
    outer loop
      vertex 7.44086 0.939999 50
      vertex 7.44086 -0.939999 50
      vertex 7.5 0 50
    endloop
  endfacet
  facet normal 0 0 1
    outer loop
      vertex 7.26437 1.86517 50
      vertex 7.44086 -0.939999 50
      vertex 7.44086 0.939999 50
    endloop
  endfacet
  facet normal 0 0 1
    outer loop
      vertex 7.26437 1.86517 50
      vertex 7.26437 -1.86517 50
      vertex 7.44086 -0.939999 50
    endloop
  endfacet
  facet normal 0 0 1
    outer loop
      vertex 6.97332 2.76093 50
      vertex 7.26437 -1.86517 50
      vertex 7.26437 1.86517 50
    endloop
  endfacet
  facet normal 0 0 1
    outer loop
      vertex 6.97332 2.76093 50
      vertex 6.97332 -2.76093 50
      vertex 7.26437 -1.86517 50
    endloop
  endfacet
  facet normal 0 0 1
    outer loop
      vertex 6.5723 3.61315 50
      vertex 6.97332 -2.76093 50
      vertex 6.97332 2.76093 50
    endloop
  endfacet
  facet normal 0 0 1
    outer loop
      vertex 6.5723 3.61315 50
      vertex 6.5723 -3.61315 50
      vertex 6.97332 -2.76093 50
    endloop
  endfacet
  facet normal 0 0 1
    outer loop
      vertex 6.06763 4.40839 50
      vertex 6.5723 -3.61315 50
      vertex 6.5723 3.61315 50
    endloop
  endfacet
  facet normal 0 0 1
    outer loop
      vertex 6.06763 4.40839 50
      vertex 6.06763 -4.40839 50
      vertex 6.5723 -3.61315 50
    endloop
  endfacet
  facet normal 0 0 1
    outer loop
      vertex 5.46726 5.1341 50
      vertex 6.06763 -4.40839 50
      vertex 6.06763 4.40839 50
    endloop
  endfacet
  facet normal 0 0 1
    outer loop
      vertex 5.46726 5.1341 50
      vertex 5.46726 -5.1341 50
      vertex 6.06763 -4.40839 50
    endloop
  endfacet
  facet normal 0 0 1
    outer loop
      vertex 4.78068 5.77885 50
      vertex 5.46726 -5.1341 50
      vertex 5.46726 5.1341 50
    endloop
  endfacet
  facet normal 0 0 1
    outer loop
      vertex 4.78068 5.77885 50
      vertex 4.78068 -5.77885 50
      vertex 5.46726 -5.1341 50
    endloop
  endfacet
  facet normal 0 0 1
    outer loop
      vertex 4.0187 6.33246 50
      vertex 4.78068 -5.77885 50
      vertex 4.78068 5.77885 50
    endloop
  endfacet
  facet normal 0 0 1
    outer loop
      vertex 4.0187 6.33246 50
      vertex 4.0187 -6.33246 50
      vertex 4.78068 -5.77885 50
    endloop
  endfacet
  facet normal 0 0 1
    outer loop
      vertex 3.19334 6.7862 50
      vertex 4.0187 -6.33246 50
      vertex 4.0187 6.33246 50
    endloop
  endfacet
  facet normal 0 0 1
    outer loop
      vertex 3.19334 6.7862 50
      vertex 3.19334 -6.7862 50
      vertex 4.0187 -6.33246 50
    endloop
  endfacet
  facet normal 0 0 1
    outer loop
      vertex 2.31763 7.13292 50
      vertex 3.19334 -6.7862 50
      vertex 3.19334 6.7862 50
    endloop
  endfacet
  facet normal 0 0 1
    outer loop
      vertex 2.31763 7.13292 50
      vertex 2.31763 -7.13292 50
      vertex 3.19334 -6.7862 50
    endloop
  endfacet
  facet normal 0 0 1
    outer loop
      vertex 1.40536 7.36715 50
      vertex 2.31763 -7.13292 50
      vertex 2.31763 7.13292 50
    endloop
  endfacet
  facet normal 0 0 1
    outer loop
      vertex 1.40536 7.36715 50
      vertex 1.40536 -7.36715 50
      vertex 2.31763 -7.13292 50
    endloop
  endfacet
  facet normal 0 0 1
    outer loop
      vertex 0.470928 7.4852 50
      vertex 1.40536 -7.36715 50
      vertex 1.40536 7.36715 50
    endloop
  endfacet
  facet normal 0 0 1
    outer loop
      vertex 0.470928 7.4852 50
      vertex 0.470928 -7.4852 50
      vertex 1.40536 -7.36715 50
    endloop
  endfacet
  facet normal -0 0 1
    outer loop
      vertex -0.470928 7.4852 50
      vertex 0.470928 -7.4852 50
      vertex 0.470928 7.4852 50
    endloop
  endfacet
  facet normal 0 0 1
    outer loop
      vertex -0.470928 7.4852 50
      vertex -0.470928 -7.4852 50
      vertex 0.470928 -7.4852 50
    endloop
  endfacet
  facet normal -0 0 1
    outer loop
      vertex -1.40536 7.36715 50
      vertex -0.470928 -7.4852 50
      vertex -0.470928 7.4852 50
    endloop
  endfacet
  facet normal 0 0 1
    outer loop
      vertex -1.40536 7.36715 50
      vertex -1.40536 -7.36715 50
      vertex -0.470928 -7.4852 50
    endloop
  endfacet
  facet normal -0 0 1
    outer loop
      vertex -2.31763 7.13292 50
      vertex -1.40536 -7.36715 50
      vertex -1.40536 7.36715 50
    endloop
  endfacet
  facet normal 0 0 1
    outer loop
      vertex -2.31763 7.13292 50
      vertex -2.31763 -7.13292 50
      vertex -1.40536 -7.36715 50
    endloop
  endfacet
  facet normal -0 0 1
    outer loop
      vertex -3.19334 6.7862 50
      vertex -2.31763 -7.13292 50
      vertex -2.31763 7.13292 50
    endloop
  endfacet
  facet normal 0 0 1
    outer loop
      vertex -3.19334 6.7862 50
      vertex -3.19334 -6.7862 50
      vertex -2.31763 -7.13292 50
    endloop
  endfacet
  facet normal -0 0 1
    outer loop
      vertex -4.0187 6.33246 50
      vertex -3.19334 -6.7862 50
      vertex -3.19334 6.7862 50
    endloop
  endfacet
  facet normal 0 0 1
    outer loop
      vertex -4.0187 6.33246 50
      vertex -4.0187 -6.33246 50
      vertex -3.19334 -6.7862 50
    endloop
  endfacet
  facet normal -0 0 1
    outer loop
      vertex -4.78068 5.77885 50
      vertex -4.0187 -6.33246 50
      vertex -4.0187 6.33246 50
    endloop
  endfacet
  facet normal 0 0 1
    outer loop
      vertex -4.78068 5.77885 50
      vertex -4.78068 -5.77885 50
      vertex -4.0187 -6.33246 50
    endloop
  endfacet
  facet normal -0 0 1
    outer loop
      vertex -5.46726 5.1341 50
      vertex -4.78068 -5.77885 50
      vertex -4.78068 5.77885 50
    endloop
  endfacet
  facet normal 0 0 1
    outer loop
      vertex -5.46726 5.1341 50
      vertex -5.46726 -5.1341 50
      vertex -4.78068 -5.77885 50
    endloop
  endfacet
  facet normal -0 0 1
    outer loop
      vertex -6.06763 4.40839 50
      vertex -5.46726 -5.1341 50
      vertex -5.46726 5.1341 50
    endloop
  endfacet
  facet normal 0 0 1
    outer loop
      vertex -6.06763 4.40839 50
      vertex -6.06763 -4.40839 50
      vertex -5.46726 -5.1341 50
    endloop
  endfacet
  facet normal -0 0 1
    outer loop
      vertex -6.5723 3.61315 50
      vertex -6.06763 -4.40839 50
      vertex -6.06763 4.40839 50
    endloop
  endfacet
  facet normal 0 0 1
    outer loop
      vertex -6.5723 3.61315 50
      vertex -6.5723 -3.61315 50
      vertex -6.06763 -4.40839 50
    endloop
  endfacet
  facet normal -0 0 1
    outer loop
      vertex -6.97332 2.76093 50
      vertex -6.5723 -3.61315 50
      vertex -6.5723 3.61315 50
    endloop
  endfacet
  facet normal 0 0 1
    outer loop
      vertex -6.97332 2.76093 50
      vertex -6.97332 -2.76093 50
      vertex -6.5723 -3.61315 50
    endloop
  endfacet
  facet normal -0 0 1
    outer loop
      vertex -7.26437 1.86517 50
      vertex -6.97332 -2.76093 50
      vertex -6.97332 2.76093 50
    endloop
  endfacet
  facet normal 0 0 1
    outer loop
      vertex -7.26437 1.86517 50
      vertex -7.26437 -1.86517 50
      vertex -6.97332 -2.76093 50
    endloop
  endfacet
  facet normal -0 0 1
    outer loop
      vertex -7.44086 0.939999 50
      vertex -7.26437 -1.86517 50
      vertex -7.26437 1.86517 50
    endloop
  endfacet
  facet normal 0 0 1
    outer loop
      vertex -7.44086 0.939999 50
      vertex -7.44086 -0.939999 50
      vertex -7.26437 -1.86517 50
    endloop
  endfacet
  facet normal 0 -0 1
    outer loop
      vertex -7.44086 -0.939999 50
      vertex -7.44086 0.939999 50
      vertex -7.5 0 50
    endloop
  endfacet
  facet normal -0.125337 0.992114 0
    outer loop
      vertex -0.470928 7.4852 0
      vertex -1.40536 7.36715 50
      vertex -0.470928 7.4852 50
    endloop
  endfacet
  facet normal -0.125337 0.992114 0
    outer loop
      vertex -1.40536 7.36715 50
      vertex -0.470928 7.4852 0
      vertex -1.40536 7.36715 0
    endloop
  endfacet
  facet normal 0.125337 -0.992114 0
    outer loop
      vertex 0.470928 -7.4852 0
      vertex 1.40536 -7.36715 50
      vertex 0.470928 -7.4852 50
    endloop
  endfacet
  facet normal 0.125337 -0.992114 0
    outer loop
      vertex 1.40536 -7.36715 50
      vertex 0.470928 -7.4852 0
      vertex 1.40536 -7.36715 0
    endloop
  endfacet
  facet normal 0.368126 -0.929776 0
    outer loop
      vertex 2.31763 -7.13292 0
      vertex 3.19334 -6.7862 50
      vertex 2.31763 -7.13292 50
    endloop
  endfacet
  facet normal 0.368126 -0.929776 0
    outer loop
      vertex 3.19334 -6.7862 50
      vertex 2.31763 -7.13292 0
      vertex 3.19334 -6.7862 0
    endloop
  endfacet
  facet normal 0.951057 0.309017 0
    outer loop
      vertex 7.26437 1.86517 50
      vertex 6.97332 2.76093 0
      vertex 6.97332 2.76093 50
    endloop
  endfacet
  facet normal 0.951057 0.309017 0
    outer loop
      vertex 6.97332 2.76093 0
      vertex 7.26437 1.86517 50
      vertex 7.26437 1.86517 0
    endloop
  endfacet
  facet normal 0.982286 0.187386 0
    outer loop
      vertex 7.44086 0.939999 50
      vertex 7.26437 1.86517 0
      vertex 7.26437 1.86517 50
    endloop
  endfacet
  facet normal 0.982286 0.187386 0
    outer loop
      vertex 7.26437 1.86517 0
      vertex 7.44086 0.939999 50
      vertex 7.44086 0.939999 0
    endloop
  endfacet
  facet normal 0.770508 0.637431 0
    outer loop
      vertex 6.06763 4.40839 50
      vertex 5.46726 5.1341 0
      vertex 5.46726 5.1341 50
    endloop
  endfacet
  facet normal 0.770508 0.637431 0
    outer loop
      vertex 5.46726 5.1341 0
      vertex 6.06763 4.40839 50
      vertex 6.06763 4.40839 0
    endloop
  endfacet
  facet normal 0.84433 0.535823 0
    outer loop
      vertex 6.5723 3.61315 50
      vertex 6.06763 4.40839 0
      vertex 6.06763 4.40839 50
    endloop
  endfacet
  facet normal 0.84433 0.535823 0
    outer loop
      vertex 6.06763 4.40839 0
      vertex 6.5723 3.61315 50
      vertex 6.5723 3.61315 0
    endloop
  endfacet
  facet normal 0.125337 0.992114 -0
    outer loop
      vertex 1.40536 7.36715 0
      vertex 0.470928 7.4852 50
      vertex 1.40536 7.36715 50
    endloop
  endfacet
  facet normal 0.125337 0.992114 0
    outer loop
      vertex 0.470928 7.4852 50
      vertex 1.40536 7.36715 0
      vertex 0.470928 7.4852 0
    endloop
  endfacet
  facet normal 0.587785 0.809017 -0
    outer loop
      vertex 4.78068 5.77885 0
      vertex 4.0187 6.33246 50
      vertex 4.78068 5.77885 50
    endloop
  endfacet
  facet normal 0.587785 0.809017 0
    outer loop
      vertex 4.0187 6.33246 50
      vertex 4.78068 5.77885 0
      vertex 4.0187 6.33246 0
    endloop
  endfacet
  facet normal -0.84433 0.535823 0
    outer loop
      vertex -6.5723 3.61315 0
      vertex -6.06763 4.40839 50
      vertex -6.06763 4.40839 0
    endloop
  endfacet
  facet normal -0.84433 0.535823 0
    outer loop
      vertex -6.06763 4.40839 50
      vertex -6.5723 3.61315 0
      vertex -6.5723 3.61315 50
    endloop
  endfacet
  facet normal -0.770508 0.637431 0
    outer loop
      vertex -6.06763 4.40839 0
      vertex -5.46726 5.1341 50
      vertex -5.46726 5.1341 0
    endloop
  endfacet
  facet normal -0.770508 0.637431 0
    outer loop
      vertex -5.46726 5.1341 50
      vertex -6.06763 4.40839 0
      vertex -6.06763 4.40839 50
    endloop
  endfacet
  facet normal -0.951057 0.309017 0
    outer loop
      vertex -7.26437 1.86517 0
      vertex -6.97332 2.76093 50
      vertex -6.97332 2.76093 0
    endloop
  endfacet
  facet normal -0.951057 0.309017 0
    outer loop
      vertex -6.97332 2.76093 50
      vertex -7.26437 1.86517 0
      vertex -7.26437 1.86517 50
    endloop
  endfacet
  facet normal -0.982286 0.187386 0
    outer loop
      vertex -7.44086 0.939999 0
      vertex -7.26437 1.86517 50
      vertex -7.26437 1.86517 0
    endloop
  endfacet
  facet normal -0.982286 0.187386 0
    outer loop
      vertex -7.26437 1.86517 50
      vertex -7.44086 0.939999 0
      vertex -7.44086 0.939999 50
    endloop
  endfacet
  facet normal -0.481749 0.876309 0
    outer loop
      vertex -3.19334 6.7862 0
      vertex -4.0187 6.33246 50
      vertex -3.19334 6.7862 50
    endloop
  endfacet
  facet normal -0.481749 0.876309 0
    outer loop
      vertex -4.0187 6.33246 50
      vertex -3.19334 6.7862 0
      vertex -4.0187 6.33246 0
    endloop
  endfacet
  facet normal -0.587785 0.809017 0
    outer loop
      vertex -4.0187 6.33246 0
      vertex -4.78068 5.77885 50
      vertex -4.0187 6.33246 50
    endloop
  endfacet
  facet normal -0.587785 0.809017 0
    outer loop
      vertex -4.78068 5.77885 50
      vertex -4.0187 6.33246 0
      vertex -4.78068 5.77885 0
    endloop
  endfacet
  facet normal -0.248689 0.968583 0
    outer loop
      vertex -1.40536 7.36715 0
      vertex -2.31763 7.13292 50
      vertex -1.40536 7.36715 50
    endloop
  endfacet
  facet normal -0.248689 0.968583 0
    outer loop
      vertex -2.31763 7.13292 50
      vertex -1.40536 7.36715 0
      vertex -2.31763 7.13292 0
    endloop
  endfacet
  facet normal 0.998027 -0.0627908 0
    outer loop
      vertex 7.44086 -0.939999 50
      vertex 7.5 0 0
      vertex 7.5 0 50
    endloop
  endfacet
  facet normal 0.998027 -0.0627908 0
    outer loop
      vertex 7.5 0 0
      vertex 7.44086 -0.939999 50
      vertex 7.44086 -0.939999 0
    endloop
  endfacet
  facet normal 0.481749 -0.876309 0
    outer loop
      vertex 3.19334 -6.7862 0
      vertex 4.0187 -6.33246 50
      vertex 3.19334 -6.7862 50
    endloop
  endfacet
  facet normal 0.481749 -0.876309 0
    outer loop
      vertex 4.0187 -6.33246 50
      vertex 3.19334 -6.7862 0
      vertex 4.0187 -6.33246 0
    endloop
  endfacet
  facet normal 0.770508 -0.637431 0
    outer loop
      vertex 5.46726 -5.1341 50
      vertex 6.06763 -4.40839 0
      vertex 6.06763 -4.40839 50
    endloop
  endfacet
  facet normal 0.770508 -0.637431 0
    outer loop
      vertex 6.06763 -4.40839 0
      vertex 5.46726 -5.1341 50
      vertex 5.46726 -5.1341 0
    endloop
  endfacet
  facet normal 0.982286 -0.187386 0
    outer loop
      vertex 7.26437 -1.86517 50
      vertex 7.44086 -0.939999 0
      vertex 7.44086 -0.939999 50
    endloop
  endfacet
  facet normal 0.982286 -0.187386 0
    outer loop
      vertex 7.44086 -0.939999 0
      vertex 7.26437 -1.86517 50
      vertex 7.26437 -1.86517 0
    endloop
  endfacet
  facet normal 0.684552 -0.728964 0
    outer loop
      vertex 4.78068 -5.77885 0
      vertex 5.46726 -5.1341 50
      vertex 4.78068 -5.77885 50
    endloop
  endfacet
  facet normal 0.684552 -0.728964 0
    outer loop
      vertex 5.46726 -5.1341 50
      vertex 4.78068 -5.77885 0
      vertex 5.46726 -5.1341 0
    endloop
  endfacet
  facet normal 0.904829 -0.425776 0
    outer loop
      vertex 6.5723 -3.61315 50
      vertex 6.97332 -2.76093 0
      vertex 6.97332 -2.76093 50
    endloop
  endfacet
  facet normal 0.904829 -0.425776 0
    outer loop
      vertex 6.97332 -2.76093 0
      vertex 6.5723 -3.61315 50
      vertex 6.5723 -3.61315 0
    endloop
  endfacet
  facet normal -0.684552 -0.728964 0
    outer loop
      vertex -5.46726 -5.1341 0
      vertex -4.78068 -5.77885 50
      vertex -5.46726 -5.1341 50
    endloop
  endfacet
  facet normal -0.684552 -0.728964 -0
    outer loop
      vertex -4.78068 -5.77885 50
      vertex -5.46726 -5.1341 0
      vertex -4.78068 -5.77885 0
    endloop
  endfacet
  facet normal -0.84433 -0.535823 0
    outer loop
      vertex -6.06763 -4.40839 0
      vertex -6.5723 -3.61315 50
      vertex -6.5723 -3.61315 0
    endloop
  endfacet
  facet normal -0.84433 -0.535823 0
    outer loop
      vertex -6.5723 -3.61315 50
      vertex -6.06763 -4.40839 0
      vertex -6.06763 -4.40839 50
    endloop
  endfacet
  facet normal 0 0 -1
    outer loop
      vertex 3.2 0 0
      vertex 7.5 0 0
      vertex 7.44086 -0.939999 0
    endloop
  endfacet
  facet normal 0 0 -1
    outer loop
      vertex 3.17477 -0.401066 0
      vertex 7.44086 -0.939999 0
      vertex 7.26437 -1.86517 0
    endloop
  endfacet
  facet normal 0 0 -1
    outer loop
      vertex 7.5 0 0
      vertex 3.2 0 0
      vertex 7.44086 0.939999 0
    endloop
  endfacet
  facet normal 0 0 -1
    outer loop
      vertex 3.09947 -0.795807 0
      vertex 7.26437 -1.86517 0
      vertex 6.97332 -2.76093 0
    endloop
  endfacet
  facet normal 0 0 -1
    outer loop
      vertex 3.17477 0.401066 0
      vertex 7.44086 0.939999 0
      vertex 3.2 0 0
    endloop
  endfacet
  facet normal 0 0 -1
    outer loop
      vertex 2.97528 -1.178 0
      vertex 6.97332 -2.76093 0
      vertex 6.5723 -3.61315 0
    endloop
  endfacet
  facet normal -0 0 -1
    outer loop
      vertex 7.44086 0.939999 0
      vertex 3.17477 0.401066 0
      vertex 7.26437 1.86517 0
    endloop
  endfacet
  facet normal 0 0 -1
    outer loop
      vertex 2.80418 -1.54161 0
      vertex 6.5723 -3.61315 0
      vertex 6.06763 -4.40839 0
    endloop
  endfacet
  facet normal 0 0 -1
    outer loop
      vertex 3.09947 0.795807 0
      vertex 7.26437 1.86517 0
      vertex 3.17477 0.401066 0
    endloop
  endfacet
  facet normal 0 0 -1
    outer loop
      vertex 2.58885 -1.88091 0
      vertex 6.06763 -4.40839 0
      vertex 5.46726 -5.1341 0
    endloop
  endfacet
  facet normal -0 0 -1
    outer loop
      vertex 7.26437 1.86517 0
      vertex 3.09947 0.795807 0
      vertex 6.97332 2.76093 0
    endloop
  endfacet
  facet normal 0 0 -1
    outer loop
      vertex 2.3327 -2.19055 0
      vertex 5.46726 -5.1341 0
      vertex 4.78068 -5.77885 0
    endloop
  endfacet
  facet normal 0 0 -1
    outer loop
      vertex 2.97528 1.178 0
      vertex 6.97332 2.76093 0
      vertex 3.09947 0.795807 0
    endloop
  endfacet
  facet normal 0 0 -1
    outer loop
      vertex 2.03976 -2.46564 0
      vertex 4.78068 -5.77885 0
      vertex 4.0187 -6.33246 0
    endloop
  endfacet
  facet normal -0 0 -1
    outer loop
      vertex 6.97332 2.76093 0
      vertex 2.97528 1.178 0
      vertex 6.5723 3.61315 0
    endloop
  endfacet
  facet normal 0 0 -1
    outer loop
      vertex 2.80418 1.54161 0
      vertex 6.5723 3.61315 0
      vertex 2.97528 1.178 0
    endloop
  endfacet
  facet normal 0 0 -1
    outer loop
      vertex 1.71465 -2.70185 0
      vertex 4.0187 -6.33246 0
      vertex 3.19334 -6.7862 0
    endloop
  endfacet
  facet normal 0 0 -1
    outer loop
      vertex 7.44086 -0.939999 0
      vertex 3.17477 -0.401066 0
      vertex 3.2 0 0
    endloop
  endfacet
  facet normal 0 0 -1
    outer loop
      vertex 7.26437 -1.86517 0
      vertex 3.09947 -0.795807 0
      vertex 3.17477 -0.401066 0
    endloop
  endfacet
  facet normal 0 0 -1
    outer loop
      vertex 6.97332 -2.76093 0
      vertex 2.97528 -1.178 0
      vertex 3.09947 -0.795807 0
    endloop
  endfacet
  facet normal 0 0 -1
    outer loop
      vertex 6.5723 -3.61315 0
      vertex 2.80418 -1.54161 0
      vertex 2.97528 -1.178 0
    endloop
  endfacet
  facet normal 0 0 -1
    outer loop
      vertex 6.06763 -4.40839 0
      vertex 2.58885 -1.88091 0
      vertex 2.80418 -1.54161 0
    endloop
  endfacet
  facet normal 0 0 -1
    outer loop
      vertex 5.46726 -5.1341 0
      vertex 2.3327 -2.19055 0
      vertex 2.58885 -1.88091 0
    endloop
  endfacet
  facet normal 0 0 -1
    outer loop
      vertex 1.36249 -2.89545 0
      vertex 3.19334 -6.7862 0
      vertex 2.31763 -7.13292 0
    endloop
  endfacet
  facet normal 0 0 -1
    outer loop
      vertex 4.78068 -5.77885 0
      vertex 2.03976 -2.46564 0
      vertex 2.3327 -2.19055 0
    endloop
  endfacet
  facet normal 0 0 -1
    outer loop
      vertex 4.0187 -6.33246 0
      vertex 1.71465 -2.70185 0
      vertex 2.03976 -2.46564 0
    endloop
  endfacet
  facet normal 0 0 -1
    outer loop
      vertex 0.988853 -3.04338 0
      vertex 2.31763 -7.13292 0
      vertex 1.40536 -7.36715 0
    endloop
  endfacet
  facet normal 0 0 -1
    outer loop
      vertex 3.19334 -6.7862 0
      vertex 1.36249 -2.89545 0
      vertex 1.71465 -2.70185 0
    endloop
  endfacet
  facet normal 0 0 -1
    outer loop
      vertex 2.31763 -7.13292 0
      vertex 0.988853 -3.04338 0
      vertex 1.36249 -2.89545 0
    endloop
  endfacet
  facet normal 0 0 -1
    outer loop
      vertex 1.40536 -7.36715 0
      vertex 0.59962 -3.14332 0
      vertex 0.988853 -3.04338 0
    endloop
  endfacet
  facet normal 0 0 -1
    outer loop
      vertex 0.470928 -7.4852 0
      vertex 0.59962 -3.14332 0
      vertex 1.40536 -7.36715 0
    endloop
  endfacet
  facet normal 0 0 -1
    outer loop
      vertex 0.470928 -7.4852 0
      vertex 0.20093 -3.19368 0
      vertex 0.59962 -3.14332 0
    endloop
  endfacet
  facet normal 0 0 -1
    outer loop
      vertex 0.470928 -7.4852 0
      vertex -0.20093 -3.19368 0
      vertex 0.20093 -3.19368 0
    endloop
  endfacet
  facet normal 0 0 -1
    outer loop
      vertex -0.470928 -7.4852 0
      vertex -0.20093 -3.19368 0
      vertex 0.470928 -7.4852 0
    endloop
  endfacet
  facet normal 0 0 -1
    outer loop
      vertex -0.470928 -7.4852 0
      vertex -0.59962 -3.14332 0
      vertex -0.20093 -3.19368 0
    endloop
  endfacet
  facet normal 0 0 -1
    outer loop
      vertex -1.40536 -7.36715 0
      vertex -0.59962 -3.14332 0
      vertex -0.470928 -7.4852 0
    endloop
  endfacet
  facet normal -0 0 -1
    outer loop
      vertex -0.59962 -3.14332 0
      vertex -1.40536 -7.36715 0
      vertex -0.988853 -3.04338 0
    endloop
  endfacet
  facet normal 0 0 -1
    outer loop
      vertex -2.31763 -7.13292 0
      vertex -0.988853 -3.04338 0
      vertex -1.40536 -7.36715 0
    endloop
  endfacet
  facet normal -0 0 -1
    outer loop
      vertex -0.988853 -3.04338 0
      vertex -2.31763 -7.13292 0
      vertex -1.36249 -2.89545 0
    endloop
  endfacet
  facet normal 0 0 -1
    outer loop
      vertex -3.19334 -6.7862 0
      vertex -1.36249 -2.89545 0
      vertex -2.31763 -7.13292 0
    endloop
  endfacet
  facet normal -0 0 -1
    outer loop
      vertex -1.36249 -2.89545 0
      vertex -3.19334 -6.7862 0
      vertex -1.71465 -2.70185 0
    endloop
  endfacet
  facet normal 0 0 -1
    outer loop
      vertex -4.0187 -6.33246 0
      vertex -1.71465 -2.70185 0
      vertex -3.19334 -6.7862 0
    endloop
  endfacet
  facet normal -0 0 -1
    outer loop
      vertex -1.71465 -2.70185 0
      vertex -4.0187 -6.33246 0
      vertex -2.03976 -2.46564 0
    endloop
  endfacet
  facet normal 0 0 -1
    outer loop
      vertex -4.78068 -5.77885 0
      vertex -2.03976 -2.46564 0
      vertex -4.0187 -6.33246 0
    endloop
  endfacet
  facet normal -0 0 -1
    outer loop
      vertex -2.03976 -2.46564 0
      vertex -4.78068 -5.77885 0
      vertex -2.3327 -2.19055 0
    endloop
  endfacet
  facet normal 0 0 -1
    outer loop
      vertex -5.46726 -5.1341 0
      vertex -2.3327 -2.19055 0
      vertex -4.78068 -5.77885 0
    endloop
  endfacet
  facet normal -0 0 -1
    outer loop
      vertex -2.3327 -2.19055 0
      vertex -5.46726 -5.1341 0
      vertex -2.58885 -1.88091 0
    endloop
  endfacet
  facet normal 0 0 -1
    outer loop
      vertex -6.06763 -4.40839 0
      vertex -2.58885 -1.88091 0
      vertex -5.46726 -5.1341 0
    endloop
  endfacet
  facet normal -0 0 -1
    outer loop
      vertex -2.58885 -1.88091 0
      vertex -6.06763 -4.40839 0
      vertex -2.80418 -1.54161 0
    endloop
  endfacet
  facet normal 0 0 -1
    outer loop
      vertex -6.5723 -3.61315 0
      vertex -2.80418 -1.54161 0
      vertex -6.06763 -4.40839 0
    endloop
  endfacet
  facet normal -0 0 -1
    outer loop
      vertex 6.5723 3.61315 0
      vertex 2.80418 1.54161 0
      vertex 6.06763 4.40839 0
    endloop
  endfacet
  facet normal 0 0 -1
    outer loop
      vertex 2.58885 1.88091 0
      vertex 6.06763 4.40839 0
      vertex 2.80418 1.54161 0
    endloop
  endfacet
  facet normal -0 0 -1
    outer loop
      vertex 6.06763 4.40839 0
      vertex 2.58885 1.88091 0
      vertex 5.46726 5.1341 0
    endloop
  endfacet
  facet normal 0 0 -1
    outer loop
      vertex 2.3327 2.19055 0
      vertex 5.46726 5.1341 0
      vertex 2.58885 1.88091 0
    endloop
  endfacet
  facet normal -0 0 -1
    outer loop
      vertex 5.46726 5.1341 0
      vertex 2.3327 2.19055 0
      vertex 4.78068 5.77885 0
    endloop
  endfacet
  facet normal 0 0 -1
    outer loop
      vertex 2.03976 2.46564 0
      vertex 4.78068 5.77885 0
      vertex 2.3327 2.19055 0
    endloop
  endfacet
  facet normal -0 0 -1
    outer loop
      vertex 4.78068 5.77885 0
      vertex 2.03976 2.46564 0
      vertex 4.0187 6.33246 0
    endloop
  endfacet
  facet normal 0 0 -1
    outer loop
      vertex 1.71465 2.70185 0
      vertex 4.0187 6.33246 0
      vertex 2.03976 2.46564 0
    endloop
  endfacet
  facet normal -0 0 -1
    outer loop
      vertex 4.0187 6.33246 0
      vertex 1.71465 2.70185 0
      vertex 3.19334 6.7862 0
    endloop
  endfacet
  facet normal 0 0 -1
    outer loop
      vertex 1.36249 2.89545 0
      vertex 3.19334 6.7862 0
      vertex 1.71465 2.70185 0
    endloop
  endfacet
  facet normal -0 0 -1
    outer loop
      vertex 3.19334 6.7862 0
      vertex 1.36249 2.89545 0
      vertex 2.31763 7.13292 0
    endloop
  endfacet
  facet normal 0 0 -1
    outer loop
      vertex 0.988853 3.04338 0
      vertex 2.31763 7.13292 0
      vertex 1.36249 2.89545 0
    endloop
  endfacet
  facet normal -0 0 -1
    outer loop
      vertex 2.31763 7.13292 0
      vertex 0.988853 3.04338 0
      vertex 1.40536 7.36715 0
    endloop
  endfacet
  facet normal 0 0 -1
    outer loop
      vertex 0.59962 3.14332 0
      vertex 1.40536 7.36715 0
      vertex 0.988853 3.04338 0
    endloop
  endfacet
  facet normal 0 0 -1
    outer loop
      vertex 0.59962 3.14332 0
      vertex 0.470928 7.4852 0
      vertex 1.40536 7.36715 0
    endloop
  endfacet
  facet normal 0 0 -1
    outer loop
      vertex 0.20093 3.19368 0
      vertex 0.470928 7.4852 0
      vertex 0.59962 3.14332 0
    endloop
  endfacet
  facet normal 0 0 -1
    outer loop
      vertex -0.20093 3.19368 0
      vertex 0.470928 7.4852 0
      vertex 0.20093 3.19368 0
    endloop
  endfacet
  facet normal 0 0 -1
    outer loop
      vertex -0.20093 3.19368 0
      vertex -0.470928 7.4852 0
      vertex 0.470928 7.4852 0
    endloop
  endfacet
  facet normal 0 0 -1
    outer loop
      vertex -0.59962 3.14332 0
      vertex -0.470928 7.4852 0
      vertex -0.20093 3.19368 0
    endloop
  endfacet
  facet normal 0 0 -1
    outer loop
      vertex -1.40536 7.36715 0
      vertex -0.59962 3.14332 0
      vertex -0.988853 3.04338 0
    endloop
  endfacet
  facet normal 0 0 -1
    outer loop
      vertex -2.31763 7.13292 0
      vertex -0.988853 3.04338 0
      vertex -1.36249 2.89545 0
    endloop
  endfacet
  facet normal 0 0 -1
    outer loop
      vertex -0.59962 3.14332 0
      vertex -1.40536 7.36715 0
      vertex -0.470928 7.4852 0
    endloop
  endfacet
  facet normal 0 0 -1
    outer loop
      vertex -3.19334 6.7862 0
      vertex -1.36249 2.89545 0
      vertex -1.71465 2.70185 0
    endloop
  endfacet
  facet normal 0 0 -1
    outer loop
      vertex -4.0187 6.33246 0
      vertex -1.71465 2.70185 0
      vertex -2.03976 2.46564 0
    endloop
  endfacet
  facet normal 0 0 -1
    outer loop
      vertex -0.988853 3.04338 0
      vertex -2.31763 7.13292 0
      vertex -1.40536 7.36715 0
    endloop
  endfacet
  facet normal 0 0 -1
    outer loop
      vertex -4.78068 5.77885 0
      vertex -2.03976 2.46564 0
      vertex -2.3327 2.19055 0
    endloop
  endfacet
  facet normal 0 0 -1
    outer loop
      vertex -5.46726 5.1341 0
      vertex -2.3327 2.19055 0
      vertex -2.58885 1.88091 0
    endloop
  endfacet
  facet normal 0 0 -1
    outer loop
      vertex -6.06763 4.40839 0
      vertex -2.58885 1.88091 0
      vertex -2.80418 1.54161 0
    endloop
  endfacet
  facet normal 0 0 -1
    outer loop
      vertex -6.5723 3.61315 0
      vertex -2.80418 1.54161 0
      vertex -2.97528 1.178 0
    endloop
  endfacet
  facet normal 0 0 -1
    outer loop
      vertex -6.97332 2.76093 0
      vertex -2.97528 1.178 0
      vertex -3.09947 0.795807 0
    endloop
  endfacet
  facet normal 0 0 -1
    outer loop
      vertex -7.26437 1.86517 0
      vertex -3.09947 0.795807 0
      vertex -3.17477 0.401066 0
    endloop
  endfacet
  facet normal 0 0 -1
    outer loop
      vertex -1.36249 2.89545 0
      vertex -3.19334 6.7862 0
      vertex -2.31763 7.13292 0
    endloop
  endfacet
  facet normal 0 0 -1
    outer loop
      vertex -7.44086 0.939999 0
      vertex -3.17477 0.401066 0
      vertex -3.2 0 0
    endloop
  endfacet
  facet normal -0 0 -1
    outer loop
      vertex -2.80418 -1.54161 0
      vertex -6.5723 -3.61315 0
      vertex -2.97528 -1.178 0
    endloop
  endfacet
  facet normal 0 0 -1
    outer loop
      vertex -1.71465 2.70185 0
      vertex -4.0187 6.33246 0
      vertex -3.19334 6.7862 0
    endloop
  endfacet
  facet normal 0 0 -1
    outer loop
      vertex -6.97332 -2.76093 0
      vertex -2.97528 -1.178 0
      vertex -6.5723 -3.61315 0
    endloop
  endfacet
  facet normal 0 0 -1
    outer loop
      vertex -2.03976 2.46564 0
      vertex -4.78068 5.77885 0
      vertex -4.0187 6.33246 0
    endloop
  endfacet
  facet normal -0 0 -1
    outer loop
      vertex -2.97528 -1.178 0
      vertex -6.97332 -2.76093 0
      vertex -3.09947 -0.795807 0
    endloop
  endfacet
  facet normal 0 0 -1
    outer loop
      vertex -2.3327 2.19055 0
      vertex -5.46726 5.1341 0
      vertex -4.78068 5.77885 0
    endloop
  endfacet
  facet normal 0 0 -1
    outer loop
      vertex -7.26437 -1.86517 0
      vertex -3.09947 -0.795807 0
      vertex -6.97332 -2.76093 0
    endloop
  endfacet
  facet normal 0 0 -1
    outer loop
      vertex -2.58885 1.88091 0
      vertex -6.06763 4.40839 0
      vertex -5.46726 5.1341 0
    endloop
  endfacet
  facet normal -0 0 -1
    outer loop
      vertex -3.09947 -0.795807 0
      vertex -7.26437 -1.86517 0
      vertex -3.17477 -0.401066 0
    endloop
  endfacet
  facet normal 0 0 -1
    outer loop
      vertex -2.80418 1.54161 0
      vertex -6.5723 3.61315 0
      vertex -6.06763 4.40839 0
    endloop
  endfacet
  facet normal 0 0 -1
    outer loop
      vertex -7.44086 -0.939999 0
      vertex -3.17477 -0.401066 0
      vertex -7.26437 -1.86517 0
    endloop
  endfacet
  facet normal 0 0 -1
    outer loop
      vertex -2.97528 1.178 0
      vertex -6.97332 2.76093 0
      vertex -6.5723 3.61315 0
    endloop
  endfacet
  facet normal -0 0 -1
    outer loop
      vertex -3.17477 -0.401066 0
      vertex -7.44086 -0.939999 0
      vertex -3.2 0 0
    endloop
  endfacet
  facet normal 0 0 -1
    outer loop
      vertex -3.09947 0.795807 0
      vertex -7.26437 1.86517 0
      vertex -6.97332 2.76093 0
    endloop
  endfacet
  facet normal 0 0 -1
    outer loop
      vertex -7.5 0 0
      vertex -3.2 0 0
      vertex -7.44086 -0.939999 0
    endloop
  endfacet
  facet normal 0 0 -1
    outer loop
      vertex -3.17477 0.401066 0
      vertex -7.44086 0.939999 0
      vertex -7.26437 1.86517 0
    endloop
  endfacet
  facet normal 0 0 -1
    outer loop
      vertex -3.2 0 0
      vertex -7.5 0 0
      vertex -7.44086 0.939999 0
    endloop
  endfacet
  facet normal 0.248689 -0.968583 0
    outer loop
      vertex 1.40536 -7.36715 0
      vertex 2.31763 -7.13292 50
      vertex 1.40536 -7.36715 50
    endloop
  endfacet
  facet normal 0.248689 -0.968583 0
    outer loop
      vertex 2.31763 -7.13292 50
      vertex 1.40536 -7.36715 0
      vertex 2.31763 -7.13292 0
    endloop
  endfacet
  facet normal 0.587785 -0.809017 0
    outer loop
      vertex 4.0187 -6.33246 0
      vertex 4.78068 -5.77885 50
      vertex 4.0187 -6.33246 50
    endloop
  endfacet
  facet normal 0.587785 -0.809017 0
    outer loop
      vertex 4.78068 -5.77885 50
      vertex 4.0187 -6.33246 0
      vertex 4.78068 -5.77885 0
    endloop
  endfacet
  facet normal 0.951057 -0.309017 0
    outer loop
      vertex 6.97332 -2.76093 50
      vertex 7.26437 -1.86517 0
      vertex 7.26437 -1.86517 50
    endloop
  endfacet
  facet normal 0.951057 -0.309017 0
    outer loop
      vertex 7.26437 -1.86517 0
      vertex 6.97332 -2.76093 50
      vertex 6.97332 -2.76093 0
    endloop
  endfacet
  facet normal -0.125337 -0.992114 0
    outer loop
      vertex -1.40536 -7.36715 0
      vertex -0.470928 -7.4852 50
      vertex -1.40536 -7.36715 50
    endloop
  endfacet
  facet normal -0.125337 -0.992114 -0
    outer loop
      vertex -0.470928 -7.4852 50
      vertex -1.40536 -7.36715 0
      vertex -0.470928 -7.4852 0
    endloop
  endfacet
  facet normal -0.368126 -0.929776 0
    outer loop
      vertex -3.19334 -6.7862 0
      vertex -2.31763 -7.13292 50
      vertex -3.19334 -6.7862 50
    endloop
  endfacet
  facet normal -0.368126 -0.929776 -0
    outer loop
      vertex -2.31763 -7.13292 50
      vertex -3.19334 -6.7862 0
      vertex -2.31763 -7.13292 0
    endloop
  endfacet
  facet normal -0.248689 -0.968583 0
    outer loop
      vertex -2.31763 -7.13292 0
      vertex -1.40536 -7.36715 50
      vertex -2.31763 -7.13292 50
    endloop
  endfacet
  facet normal -0.248689 -0.968583 -0
    outer loop
      vertex -1.40536 -7.36715 50
      vertex -2.31763 -7.13292 0
      vertex -1.40536 -7.36715 0
    endloop
  endfacet
  facet normal -0.770508 -0.637431 0
    outer loop
      vertex -5.46726 -5.1341 0
      vertex -6.06763 -4.40839 50
      vertex -6.06763 -4.40839 0
    endloop
  endfacet
  facet normal -0.770508 -0.637431 0
    outer loop
      vertex -6.06763 -4.40839 50
      vertex -5.46726 -5.1341 0
      vertex -5.46726 -5.1341 50
    endloop
  endfacet
  facet normal -0.904829 -0.425776 0
    outer loop
      vertex -6.5723 -3.61315 0
      vertex -6.97332 -2.76093 50
      vertex -6.97332 -2.76093 0
    endloop
  endfacet
  facet normal -0.904829 -0.425776 0
    outer loop
      vertex -6.97332 -2.76093 50
      vertex -6.5723 -3.61315 0
      vertex -6.5723 -3.61315 50
    endloop
  endfacet
  facet normal -0.951057 -0.309017 0
    outer loop
      vertex -6.97332 -2.76093 0
      vertex -7.26437 -1.86517 50
      vertex -7.26437 -1.86517 0
    endloop
  endfacet
  facet normal -0.951057 -0.309017 0
    outer loop
      vertex -7.26437 -1.86517 50
      vertex -6.97332 -2.76093 0
      vertex -6.97332 -2.76093 50
    endloop
  endfacet
  facet normal -0.982286 -0.187386 0
    outer loop
      vertex -7.26437 -1.86517 0
      vertex -7.44086 -0.939999 50
      vertex -7.44086 -0.939999 0
    endloop
  endfacet
  facet normal -0.982286 -0.187386 0
    outer loop
      vertex -7.44086 -0.939999 50
      vertex -7.26437 -1.86517 0
      vertex -7.26437 -1.86517 50
    endloop
  endfacet
  facet normal -0.998027 -0.0627908 0
    outer loop
      vertex -7.44086 -0.939999 0
      vertex -7.5 0 50
      vertex -7.5 0 0
    endloop
  endfacet
  facet normal -0.998027 -0.0627908 0
    outer loop
      vertex -7.5 0 50
      vertex -7.44086 -0.939999 0
      vertex -7.44086 -0.939999 50
    endloop
  endfacet
  facet normal -0.587785 -0.809017 0
    outer loop
      vertex -4.78068 -5.77885 0
      vertex -4.0187 -6.33246 50
      vertex -4.78068 -5.77885 50
    endloop
  endfacet
  facet normal -0.587785 -0.809017 -0
    outer loop
      vertex -4.0187 -6.33246 50
      vertex -4.78068 -5.77885 0
      vertex -4.0187 -6.33246 0
    endloop
  endfacet
  facet normal -0.481749 -0.876309 0
    outer loop
      vertex -4.0187 -6.33246 0
      vertex -3.19334 -6.7862 50
      vertex -4.0187 -6.33246 50
    endloop
  endfacet
  facet normal -0.481749 -0.876309 -0
    outer loop
      vertex -3.19334 -6.7862 50
      vertex -4.0187 -6.33246 0
      vertex -3.19334 -6.7862 0
    endloop
  endfacet
  facet normal -0.998027 -0.0627832 0
    outer loop
      vertex 3.2 0 0
      vertex 3.17477 0.401066 20
      vertex 3.17477 0.401066 0
    endloop
  endfacet
  facet normal -0.998027 -0.0627832 0
    outer loop
      vertex 3.17477 0.401066 20
      vertex 3.2 0 0
      vertex 3.2 0 20
    endloop
  endfacet
  facet normal 0.998027 -0.0627832 0
    outer loop
      vertex -3.2 0 20
      vertex -3.17477 0.401066 0
      vertex -3.17477 0.401066 20
    endloop
  endfacet
  facet normal 0.998027 -0.0627832 0
    outer loop
      vertex -3.17477 0.401066 0
      vertex -3.2 0 20
      vertex -3.2 0 0
    endloop
  endfacet
  facet normal 0 -1 0
    outer loop
      vertex -0.20093 3.19368 0
      vertex 0.20093 3.19368 20
      vertex -0.20093 3.19368 20
    endloop
  endfacet
  facet normal 0 -1 -0
    outer loop
      vertex 0.20093 3.19368 20
      vertex -0.20093 3.19368 0
      vertex 0.20093 3.19368 0
    endloop
  endfacet
  facet normal 0 1 -0
    outer loop
      vertex 0.20093 -3.19368 0
      vertex -0.20093 -3.19368 20
      vertex 0.20093 -3.19368 20
    endloop
  endfacet
  facet normal 0 1 0
    outer loop
      vertex -0.20093 -3.19368 20
      vertex 0.20093 -3.19368 0
      vertex -0.20093 -3.19368 0
    endloop
  endfacet
  facet normal -0.770521 0.637414 0
    outer loop
      vertex 2.3327 -2.19055 0
      vertex 2.58885 -1.88091 20
      vertex 2.58885 -1.88091 0
    endloop
  endfacet
  facet normal -0.770521 0.637414 0
    outer loop
      vertex 2.58885 -1.88091 20
      vertex 2.3327 -2.19055 0
      vertex 2.3327 -2.19055 20
    endloop
  endfacet
  facet normal -0.684548 -0.728967 0
    outer loop
      vertex 2.03976 2.46564 0
      vertex 2.3327 2.19055 20
      vertex 2.03976 2.46564 20
    endloop
  endfacet
  facet normal -0.684548 -0.728967 -0
    outer loop
      vertex 2.3327 2.19055 20
      vertex 2.03976 2.46564 0
      vertex 2.3327 2.19055 0
    endloop
  endfacet
  facet normal 0.684548 -0.728967 0
    outer loop
      vertex -2.3327 2.19055 0
      vertex -2.03976 2.46564 20
      vertex -2.3327 2.19055 20
    endloop
  endfacet
  facet normal 0.684548 -0.728967 0
    outer loop
      vertex -2.03976 2.46564 20
      vertex -2.3327 2.19055 0
      vertex -2.03976 2.46564 0
    endloop
  endfacet
  facet normal 0.368117 -0.929779 0
    outer loop
      vertex -1.36249 2.89545 0
      vertex -0.988853 3.04338 20
      vertex -1.36249 2.89545 20
    endloop
  endfacet
  facet normal 0.368117 -0.929779 0
    outer loop
      vertex -0.988853 3.04338 20
      vertex -1.36249 2.89545 0
      vertex -0.988853 3.04338 0
    endloop
  endfacet
  facet normal -0.904829 -0.425775 0
    outer loop
      vertex 2.97528 1.178 0
      vertex 2.80418 1.54161 20
      vertex 2.80418 1.54161 0
    endloop
  endfacet
  facet normal -0.904829 -0.425775 0
    outer loop
      vertex 2.80418 1.54161 20
      vertex 2.97528 1.178 0
      vertex 2.97528 1.178 20
    endloop
  endfacet
  facet normal -0.844324 -0.535833 0
    outer loop
      vertex 2.80418 1.54161 0
      vertex 2.58885 1.88091 20
      vertex 2.58885 1.88091 0
    endloop
  endfacet
  facet normal -0.844324 -0.535833 0
    outer loop
      vertex 2.58885 1.88091 20
      vertex 2.80418 1.54161 0
      vertex 2.80418 1.54161 20
    endloop
  endfacet
  facet normal -0.368117 -0.929779 0
    outer loop
      vertex 0.988853 3.04338 0
      vertex 1.36249 2.89545 20
      vertex 0.988853 3.04338 20
    endloop
  endfacet
  facet normal -0.368117 -0.929779 -0
    outer loop
      vertex 1.36249 2.89545 20
      vertex 0.988853 3.04338 0
      vertex 1.36249 2.89545 0
    endloop
  endfacet
  facet normal -0.248694 -0.968582 0
    outer loop
      vertex 0.59962 3.14332 0
      vertex 0.988853 3.04338 20
      vertex 0.59962 3.14332 20
    endloop
  endfacet
  facet normal -0.248694 -0.968582 -0
    outer loop
      vertex 0.988853 3.04338 20
      vertex 0.59962 3.14332 0
      vertex 0.988853 3.04338 0
    endloop
  endfacet
  facet normal -0.587791 -0.809013 0
    outer loop
      vertex 1.71465 2.70185 0
      vertex 2.03976 2.46564 20
      vertex 1.71465 2.70185 20
    endloop
  endfacet
  facet normal -0.587791 -0.809013 -0
    outer loop
      vertex 2.03976 2.46564 20
      vertex 1.71465 2.70185 0
      vertex 2.03976 2.46564 0
    endloop
  endfacet
  facet normal 0.844324 -0.535833 0
    outer loop
      vertex -2.80418 1.54161 20
      vertex -2.58885 1.88091 0
      vertex -2.58885 1.88091 20
    endloop
  endfacet
  facet normal 0.844324 -0.535833 0
    outer loop
      vertex -2.58885 1.88091 0
      vertex -2.80418 1.54161 20
      vertex -2.80418 1.54161 0
    endloop
  endfacet
  facet normal 0.770521 -0.637414 0
    outer loop
      vertex -2.58885 1.88091 20
      vertex -2.3327 2.19055 0
      vertex -2.3327 2.19055 20
    endloop
  endfacet
  facet normal 0.770521 -0.637414 0
    outer loop
      vertex -2.3327 2.19055 0
      vertex -2.58885 1.88091 20
      vertex -2.58885 1.88091 0
    endloop
  endfacet
  facet normal 0 0 -1
    outer loop
      vertex 3.17477 -0.401066 20
      vertex 3.17477 0.401066 20
      vertex 3.2 0 20
    endloop
  endfacet
  facet normal 0 0 -1
    outer loop
      vertex 3.09947 -0.795807 20
      vertex 3.17477 0.401066 20
      vertex 3.17477 -0.401066 20
    endloop
  endfacet
  facet normal 0 0 -1
    outer loop
      vertex 3.09947 -0.795807 20
      vertex 3.09947 0.795807 20
      vertex 3.17477 0.401066 20
    endloop
  endfacet
  facet normal 0 0 -1
    outer loop
      vertex 2.97528 -1.178 20
      vertex 3.09947 0.795807 20
      vertex 3.09947 -0.795807 20
    endloop
  endfacet
  facet normal 0 0 -1
    outer loop
      vertex 2.97528 -1.178 20
      vertex 2.97528 1.178 20
      vertex 3.09947 0.795807 20
    endloop
  endfacet
  facet normal 0 0 -1
    outer loop
      vertex 2.80418 -1.54161 20
      vertex 2.97528 1.178 20
      vertex 2.97528 -1.178 20
    endloop
  endfacet
  facet normal 0 0 -1
    outer loop
      vertex 2.80418 -1.54161 20
      vertex 2.80418 1.54161 20
      vertex 2.97528 1.178 20
    endloop
  endfacet
  facet normal 0 0 -1
    outer loop
      vertex 2.58885 -1.88091 20
      vertex 2.80418 1.54161 20
      vertex 2.80418 -1.54161 20
    endloop
  endfacet
  facet normal 0 0 -1
    outer loop
      vertex 2.58885 -1.88091 20
      vertex 2.58885 1.88091 20
      vertex 2.80418 1.54161 20
    endloop
  endfacet
  facet normal 0 0 -1
    outer loop
      vertex 2.3327 -2.19055 20
      vertex 2.58885 1.88091 20
      vertex 2.58885 -1.88091 20
    endloop
  endfacet
  facet normal 0 0 -1
    outer loop
      vertex 2.3327 -2.19055 20
      vertex 2.3327 2.19055 20
      vertex 2.58885 1.88091 20
    endloop
  endfacet
  facet normal 0 0 -1
    outer loop
      vertex 2.03976 -2.46564 20
      vertex 2.3327 2.19055 20
      vertex 2.3327 -2.19055 20
    endloop
  endfacet
  facet normal 0 0 -1
    outer loop
      vertex 2.03976 -2.46564 20
      vertex 2.03976 2.46564 20
      vertex 2.3327 2.19055 20
    endloop
  endfacet
  facet normal 0 0 -1
    outer loop
      vertex 1.71465 -2.70185 20
      vertex 2.03976 2.46564 20
      vertex 2.03976 -2.46564 20
    endloop
  endfacet
  facet normal 0 0 -1
    outer loop
      vertex 1.71465 -2.70185 20
      vertex 1.71465 2.70185 20
      vertex 2.03976 2.46564 20
    endloop
  endfacet
  facet normal 0 0 -1
    outer loop
      vertex 1.36249 -2.89545 20
      vertex 1.71465 2.70185 20
      vertex 1.71465 -2.70185 20
    endloop
  endfacet
  facet normal 0 0 -1
    outer loop
      vertex 1.36249 -2.89545 20
      vertex 1.36249 2.89545 20
      vertex 1.71465 2.70185 20
    endloop
  endfacet
  facet normal 0 0 -1
    outer loop
      vertex 0.988853 -3.04338 20
      vertex 1.36249 2.89545 20
      vertex 1.36249 -2.89545 20
    endloop
  endfacet
  facet normal 0 0 -1
    outer loop
      vertex 0.988853 -3.04338 20
      vertex 0.988853 3.04338 20
      vertex 1.36249 2.89545 20
    endloop
  endfacet
  facet normal 0 0 -1
    outer loop
      vertex 0.59962 -3.14332 20
      vertex 0.988853 3.04338 20
      vertex 0.988853 -3.04338 20
    endloop
  endfacet
  facet normal 0 0 -1
    outer loop
      vertex 0.59962 -3.14332 20
      vertex 0.59962 3.14332 20
      vertex 0.988853 3.04338 20
    endloop
  endfacet
  facet normal 0 0 -1
    outer loop
      vertex 0.20093 -3.19368 20
      vertex 0.59962 3.14332 20
      vertex 0.59962 -3.14332 20
    endloop
  endfacet
  facet normal 0 0 -1
    outer loop
      vertex 0.20093 -3.19368 20
      vertex 0.20093 3.19368 20
      vertex 0.59962 3.14332 20
    endloop
  endfacet
  facet normal 0 0 -1
    outer loop
      vertex -0.20093 -3.19368 20
      vertex 0.20093 3.19368 20
      vertex 0.20093 -3.19368 20
    endloop
  endfacet
  facet normal 0 0 -1
    outer loop
      vertex -0.20093 -3.19368 20
      vertex -0.20093 3.19368 20
      vertex 0.20093 3.19368 20
    endloop
  endfacet
  facet normal 0 0 -1
    outer loop
      vertex -0.59962 -3.14332 20
      vertex -0.20093 3.19368 20
      vertex -0.20093 -3.19368 20
    endloop
  endfacet
  facet normal 0 0 -1
    outer loop
      vertex -0.59962 -3.14332 20
      vertex -0.59962 3.14332 20
      vertex -0.20093 3.19368 20
    endloop
  endfacet
  facet normal 0 0 -1
    outer loop
      vertex -0.988853 -3.04338 20
      vertex -0.59962 3.14332 20
      vertex -0.59962 -3.14332 20
    endloop
  endfacet
  facet normal 0 0 -1
    outer loop
      vertex -0.988853 -3.04338 20
      vertex -0.988853 3.04338 20
      vertex -0.59962 3.14332 20
    endloop
  endfacet
  facet normal 0 0 -1
    outer loop
      vertex -1.36249 -2.89545 20
      vertex -0.988853 3.04338 20
      vertex -0.988853 -3.04338 20
    endloop
  endfacet
  facet normal 0 0 -1
    outer loop
      vertex -1.36249 -2.89545 20
      vertex -1.36249 2.89545 20
      vertex -0.988853 3.04338 20
    endloop
  endfacet
  facet normal 0 0 -1
    outer loop
      vertex -1.71465 -2.70185 20
      vertex -1.36249 2.89545 20
      vertex -1.36249 -2.89545 20
    endloop
  endfacet
  facet normal 0 0 -1
    outer loop
      vertex -1.71465 -2.70185 20
      vertex -1.71465 2.70185 20
      vertex -1.36249 2.89545 20
    endloop
  endfacet
  facet normal 0 0 -1
    outer loop
      vertex -2.03976 -2.46564 20
      vertex -1.71465 2.70185 20
      vertex -1.71465 -2.70185 20
    endloop
  endfacet
  facet normal 0 0 -1
    outer loop
      vertex -2.03976 -2.46564 20
      vertex -2.03976 2.46564 20
      vertex -1.71465 2.70185 20
    endloop
  endfacet
  facet normal 0 0 -1
    outer loop
      vertex -2.3327 -2.19055 20
      vertex -2.03976 2.46564 20
      vertex -2.03976 -2.46564 20
    endloop
  endfacet
  facet normal 0 0 -1
    outer loop
      vertex -2.3327 -2.19055 20
      vertex -2.3327 2.19055 20
      vertex -2.03976 2.46564 20
    endloop
  endfacet
  facet normal 0 0 -1
    outer loop
      vertex -2.58885 -1.88091 20
      vertex -2.3327 2.19055 20
      vertex -2.3327 -2.19055 20
    endloop
  endfacet
  facet normal 0 0 -1
    outer loop
      vertex -2.58885 -1.88091 20
      vertex -2.58885 1.88091 20
      vertex -2.3327 2.19055 20
    endloop
  endfacet
  facet normal 0 0 -1
    outer loop
      vertex -2.80418 -1.54161 20
      vertex -2.58885 1.88091 20
      vertex -2.58885 -1.88091 20
    endloop
  endfacet
  facet normal 0 0 -1
    outer loop
      vertex -2.80418 -1.54161 20
      vertex -2.80418 1.54161 20
      vertex -2.58885 1.88091 20
    endloop
  endfacet
  facet normal 0 0 -1
    outer loop
      vertex -2.97528 -1.178 20
      vertex -2.80418 1.54161 20
      vertex -2.80418 -1.54161 20
    endloop
  endfacet
  facet normal 0 0 -1
    outer loop
      vertex -2.97528 -1.178 20
      vertex -2.97528 1.178 20
      vertex -2.80418 1.54161 20
    endloop
  endfacet
  facet normal 0 0 -1
    outer loop
      vertex -3.09947 -0.795807 20
      vertex -2.97528 1.178 20
      vertex -2.97528 -1.178 20
    endloop
  endfacet
  facet normal 0 0 -1
    outer loop
      vertex -3.09947 -0.795807 20
      vertex -3.09947 0.795807 20
      vertex -2.97528 1.178 20
    endloop
  endfacet
  facet normal 0 0 -1
    outer loop
      vertex -3.17477 -0.401066 20
      vertex -3.09947 0.795807 20
      vertex -3.09947 -0.795807 20
    endloop
  endfacet
  facet normal 0 0 -1
    outer loop
      vertex -3.17477 -0.401066 20
      vertex -3.17477 0.401066 20
      vertex -3.09947 0.795807 20
    endloop
  endfacet
  facet normal 0 -0 -1
    outer loop
      vertex -3.17477 0.401066 20
      vertex -3.17477 -0.401066 20
      vertex -3.2 0 20
    endloop
  endfacet
  facet normal 0.481751 -0.876308 0
    outer loop
      vertex -1.71465 2.70185 0
      vertex -1.36249 2.89545 20
      vertex -1.71465 2.70185 20
    endloop
  endfacet
  facet normal 0.481751 -0.876308 0
    outer loop
      vertex -1.36249 2.89545 20
      vertex -1.71465 2.70185 0
      vertex -1.36249 2.89545 0
    endloop
  endfacet
  facet normal 0.125318 -0.992117 0
    outer loop
      vertex -0.59962 3.14332 0
      vertex -0.20093 3.19368 20
      vertex -0.59962 3.14332 20
    endloop
  endfacet
  facet normal 0.125318 -0.992117 0
    outer loop
      vertex -0.20093 3.19368 20
      vertex -0.59962 3.14332 0
      vertex -0.20093 3.19368 0
    endloop
  endfacet
  facet normal 0.904829 0.425775 0
    outer loop
      vertex -2.80418 -1.54161 20
      vertex -2.97528 -1.178 0
      vertex -2.97528 -1.178 20
    endloop
  endfacet
  facet normal 0.904829 0.425775 0
    outer loop
      vertex -2.97528 -1.178 0
      vertex -2.80418 -1.54161 20
      vertex -2.80418 -1.54161 0
    endloop
  endfacet
  facet normal -0.125318 0.992117 0
    outer loop
      vertex 0.59962 -3.14332 0
      vertex 0.20093 -3.19368 20
      vertex 0.59962 -3.14332 20
    endloop
  endfacet
  facet normal -0.125318 0.992117 0
    outer loop
      vertex 0.20093 -3.19368 20
      vertex 0.59962 -3.14332 0
      vertex 0.20093 -3.19368 0
    endloop
  endfacet
  facet normal -0.951051 -0.309035 0
    outer loop
      vertex 3.09947 0.795807 0
      vertex 2.97528 1.178 20
      vertex 2.97528 1.178 0
    endloop
  endfacet
  facet normal -0.951051 -0.309035 0
    outer loop
      vertex 2.97528 1.178 20
      vertex 3.09947 0.795807 0
      vertex 3.09947 0.795807 20
    endloop
  endfacet
  facet normal -0.982288 -0.187379 0
    outer loop
      vertex 3.17477 0.401066 0
      vertex 3.09947 0.795807 20
      vertex 3.09947 0.795807 0
    endloop
  endfacet
  facet normal -0.982288 -0.187379 0
    outer loop
      vertex 3.09947 0.795807 20
      vertex 3.17477 0.401066 0
      vertex 3.17477 0.401066 20
    endloop
  endfacet
  facet normal -0.770521 -0.637414 0
    outer loop
      vertex 2.58885 1.88091 0
      vertex 2.3327 2.19055 20
      vertex 2.3327 2.19055 0
    endloop
  endfacet
  facet normal -0.770521 -0.637414 0
    outer loop
      vertex 2.3327 2.19055 20
      vertex 2.58885 1.88091 0
      vertex 2.58885 1.88091 20
    endloop
  endfacet
  facet normal -0.125318 -0.992117 0
    outer loop
      vertex 0.20093 3.19368 0
      vertex 0.59962 3.14332 20
      vertex 0.20093 3.19368 20
    endloop
  endfacet
  facet normal -0.125318 -0.992117 -0
    outer loop
      vertex 0.59962 3.14332 20
      vertex 0.20093 3.19368 0
      vertex 0.59962 3.14332 0
    endloop
  endfacet
  facet normal 0.904829 -0.425775 0
    outer loop
      vertex -2.97528 1.178 20
      vertex -2.80418 1.54161 0
      vertex -2.80418 1.54161 20
    endloop
  endfacet
  facet normal 0.904829 -0.425775 0
    outer loop
      vertex -2.80418 1.54161 0
      vertex -2.97528 1.178 20
      vertex -2.97528 1.178 0
    endloop
  endfacet
  facet normal 0.982288 -0.187379 0
    outer loop
      vertex -3.17477 0.401066 20
      vertex -3.09947 0.795807 0
      vertex -3.09947 0.795807 20
    endloop
  endfacet
  facet normal 0.982288 -0.187379 0
    outer loop
      vertex -3.09947 0.795807 0
      vertex -3.17477 0.401066 20
      vertex -3.17477 0.401066 0
    endloop
  endfacet
  facet normal 0.587791 -0.809013 0
    outer loop
      vertex -2.03976 2.46564 0
      vertex -1.71465 2.70185 20
      vertex -2.03976 2.46564 20
    endloop
  endfacet
  facet normal 0.587791 -0.809013 0
    outer loop
      vertex -1.71465 2.70185 20
      vertex -2.03976 2.46564 0
      vertex -1.71465 2.70185 0
    endloop
  endfacet
  facet normal 0.248694 -0.968582 0
    outer loop
      vertex -0.988853 3.04338 0
      vertex -0.59962 3.14332 20
      vertex -0.988853 3.04338 20
    endloop
  endfacet
  facet normal 0.248694 -0.968582 0
    outer loop
      vertex -0.59962 3.14332 20
      vertex -0.988853 3.04338 0
      vertex -0.59962 3.14332 0
    endloop
  endfacet
  facet normal -0.951051 0.309035 0
    outer loop
      vertex 2.97528 -1.178 0
      vertex 3.09947 -0.795807 20
      vertex 3.09947 -0.795807 0
    endloop
  endfacet
  facet normal -0.951051 0.309035 0
    outer loop
      vertex 3.09947 -0.795807 20
      vertex 2.97528 -1.178 0
      vertex 2.97528 -1.178 20
    endloop
  endfacet
  facet normal 0.368117 0.929779 -0
    outer loop
      vertex -0.988853 -3.04338 0
      vertex -1.36249 -2.89545 20
      vertex -0.988853 -3.04338 20
    endloop
  endfacet
  facet normal 0.368117 0.929779 0
    outer loop
      vertex -1.36249 -2.89545 20
      vertex -0.988853 -3.04338 0
      vertex -1.36249 -2.89545 0
    endloop
  endfacet
  facet normal -0.587791 0.809013 0
    outer loop
      vertex 2.03976 -2.46564 0
      vertex 1.71465 -2.70185 20
      vertex 2.03976 -2.46564 20
    endloop
  endfacet
  facet normal -0.587791 0.809013 0
    outer loop
      vertex 1.71465 -2.70185 20
      vertex 2.03976 -2.46564 0
      vertex 1.71465 -2.70185 0
    endloop
  endfacet
  facet normal -0.368117 0.929779 0
    outer loop
      vertex 1.36249 -2.89545 0
      vertex 0.988853 -3.04338 20
      vertex 1.36249 -2.89545 20
    endloop
  endfacet
  facet normal -0.368117 0.929779 0
    outer loop
      vertex 0.988853 -3.04338 20
      vertex 1.36249 -2.89545 0
      vertex 0.988853 -3.04338 0
    endloop
  endfacet
  facet normal -0.481751 -0.876308 0
    outer loop
      vertex 1.36249 2.89545 0
      vertex 1.71465 2.70185 20
      vertex 1.36249 2.89545 20
    endloop
  endfacet
  facet normal -0.481751 -0.876308 -0
    outer loop
      vertex 1.71465 2.70185 20
      vertex 1.36249 2.89545 0
      vertex 1.71465 2.70185 0
    endloop
  endfacet
  facet normal 0.951051 -0.309035 0
    outer loop
      vertex -3.09947 0.795807 20
      vertex -2.97528 1.178 0
      vertex -2.97528 1.178 20
    endloop
  endfacet
  facet normal 0.951051 -0.309035 0
    outer loop
      vertex -2.97528 1.178 0
      vertex -3.09947 0.795807 20
      vertex -3.09947 0.795807 0
    endloop
  endfacet
  facet normal -0.982288 0.187379 0
    outer loop
      vertex 3.09947 -0.795807 0
      vertex 3.17477 -0.401066 20
      vertex 3.17477 -0.401066 0
    endloop
  endfacet
  facet normal -0.982288 0.187379 0
    outer loop
      vertex 3.17477 -0.401066 20
      vertex 3.09947 -0.795807 0
      vertex 3.09947 -0.795807 20
    endloop
  endfacet
  facet normal -0.998027 0.0627832 0
    outer loop
      vertex 3.17477 -0.401066 0
      vertex 3.2 0 20
      vertex 3.2 0 0
    endloop
  endfacet
  facet normal -0.998027 0.0627832 0
    outer loop
      vertex 3.2 0 20
      vertex 3.17477 -0.401066 0
      vertex 3.17477 -0.401066 20
    endloop
  endfacet
  facet normal 0.770521 0.637414 0
    outer loop
      vertex -2.3327 -2.19055 20
      vertex -2.58885 -1.88091 0
      vertex -2.58885 -1.88091 20
    endloop
  endfacet
  facet normal 0.770521 0.637414 0
    outer loop
      vertex -2.58885 -1.88091 0
      vertex -2.3327 -2.19055 20
      vertex -2.3327 -2.19055 0
    endloop
  endfacet
  facet normal -0.684548 0.728967 0
    outer loop
      vertex 2.3327 -2.19055 0
      vertex 2.03976 -2.46564 20
      vertex 2.3327 -2.19055 20
    endloop
  endfacet
  facet normal -0.684548 0.728967 0
    outer loop
      vertex 2.03976 -2.46564 20
      vertex 2.3327 -2.19055 0
      vertex 2.03976 -2.46564 0
    endloop
  endfacet
  facet normal -0.481751 0.876308 0
    outer loop
      vertex 1.71465 -2.70185 0
      vertex 1.36249 -2.89545 20
      vertex 1.71465 -2.70185 20
    endloop
  endfacet
  facet normal -0.481751 0.876308 0
    outer loop
      vertex 1.36249 -2.89545 20
      vertex 1.71465 -2.70185 0
      vertex 1.36249 -2.89545 0
    endloop
  endfacet
  facet normal -0.248694 0.968582 0
    outer loop
      vertex 0.988853 -3.04338 0
      vertex 0.59962 -3.14332 20
      vertex 0.988853 -3.04338 20
    endloop
  endfacet
  facet normal -0.248694 0.968582 0
    outer loop
      vertex 0.59962 -3.14332 20
      vertex 0.988853 -3.04338 0
      vertex 0.59962 -3.14332 0
    endloop
  endfacet
  facet normal -0.904829 0.425775 0
    outer loop
      vertex 2.80418 -1.54161 0
      vertex 2.97528 -1.178 20
      vertex 2.97528 -1.178 0
    endloop
  endfacet
  facet normal -0.904829 0.425775 0
    outer loop
      vertex 2.97528 -1.178 20
      vertex 2.80418 -1.54161 0
      vertex 2.80418 -1.54161 20
    endloop
  endfacet
  facet normal -0.844324 0.535833 0
    outer loop
      vertex 2.58885 -1.88091 0
      vertex 2.80418 -1.54161 20
      vertex 2.80418 -1.54161 0
    endloop
  endfacet
  facet normal -0.844324 0.535833 0
    outer loop
      vertex 2.80418 -1.54161 20
      vertex 2.58885 -1.88091 0
      vertex 2.58885 -1.88091 20
    endloop
  endfacet
  facet normal 0.125318 0.992117 -0
    outer loop
      vertex -0.20093 -3.19368 0
      vertex -0.59962 -3.14332 20
      vertex -0.20093 -3.19368 20
    endloop
  endfacet
  facet normal 0.125318 0.992117 0
    outer loop
      vertex -0.59962 -3.14332 20
      vertex -0.20093 -3.19368 0
      vertex -0.59962 -3.14332 0
    endloop
  endfacet
  facet normal 0.481751 0.876308 -0
    outer loop
      vertex -1.36249 -2.89545 0
      vertex -1.71465 -2.70185 20
      vertex -1.36249 -2.89545 20
    endloop
  endfacet
  facet normal 0.481751 0.876308 0
    outer loop
      vertex -1.71465 -2.70185 20
      vertex -1.36249 -2.89545 0
      vertex -1.71465 -2.70185 0
    endloop
  endfacet
  facet normal 0.248694 0.968582 -0
    outer loop
      vertex -0.59962 -3.14332 0
      vertex -0.988853 -3.04338 20
      vertex -0.59962 -3.14332 20
    endloop
  endfacet
  facet normal 0.248694 0.968582 0
    outer loop
      vertex -0.988853 -3.04338 20
      vertex -0.59962 -3.14332 0
      vertex -0.988853 -3.04338 0
    endloop
  endfacet
  facet normal 0.684548 0.728967 -0
    outer loop
      vertex -2.03976 -2.46564 0
      vertex -2.3327 -2.19055 20
      vertex -2.03976 -2.46564 20
    endloop
  endfacet
  facet normal 0.684548 0.728967 0
    outer loop
      vertex -2.3327 -2.19055 20
      vertex -2.03976 -2.46564 0
      vertex -2.3327 -2.19055 0
    endloop
  endfacet
  facet normal 0.844324 0.535833 0
    outer loop
      vertex -2.58885 -1.88091 20
      vertex -2.80418 -1.54161 0
      vertex -2.80418 -1.54161 20
    endloop
  endfacet
  facet normal 0.844324 0.535833 0
    outer loop
      vertex -2.80418 -1.54161 0
      vertex -2.58885 -1.88091 20
      vertex -2.58885 -1.88091 0
    endloop
  endfacet
  facet normal 0.951051 0.309035 0
    outer loop
      vertex -2.97528 -1.178 20
      vertex -3.09947 -0.795807 0
      vertex -3.09947 -0.795807 20
    endloop
  endfacet
  facet normal 0.951051 0.309035 0
    outer loop
      vertex -3.09947 -0.795807 0
      vertex -2.97528 -1.178 20
      vertex -2.97528 -1.178 0
    endloop
  endfacet
  facet normal 0.982288 0.187379 0
    outer loop
      vertex -3.09947 -0.795807 20
      vertex -3.17477 -0.401066 0
      vertex -3.17477 -0.401066 20
    endloop
  endfacet
  facet normal 0.982288 0.187379 0
    outer loop
      vertex -3.17477 -0.401066 0
      vertex -3.09947 -0.795807 20
      vertex -3.09947 -0.795807 0
    endloop
  endfacet
  facet normal 0.998027 0.0627832 0
    outer loop
      vertex -3.17477 -0.401066 20
      vertex -3.2 0 0
      vertex -3.2 0 20
    endloop
  endfacet
  facet normal 0.998027 0.0627832 0
    outer loop
      vertex -3.2 0 0
      vertex -3.17477 -0.401066 20
      vertex -3.17477 -0.401066 0
    endloop
  endfacet
  facet normal 0.587791 0.809013 -0
    outer loop
      vertex -1.71465 -2.70185 0
      vertex -2.03976 -2.46564 20
      vertex -1.71465 -2.70185 20
    endloop
  endfacet
  facet normal 0.587791 0.809013 0
    outer loop
      vertex -2.03976 -2.46564 20
      vertex -1.71465 -2.70185 0
      vertex -2.03976 -2.46564 0
    endloop
  endfacet
endsolid OpenSCAD_Model
