<?xml version="1.0" standalone="no"?>
<!DOCTYPE svg PUBLIC "-//W3C//DTD SVG 1.1//EN" "http://www.w3.org/Graphics/SVG/1.1/DTD/svg11.dtd">
<svg width="16mm" height="16mm" viewBox="-8 -8 16 16" xmlns="http://www.w3.org/2000/svg" version="1.1">
<title>OpenSCAD Model</title>
<path d="
M 1.40535,7.36714 L 2.31763,7.13292 L 3.19334,6.78619 L 4.01869,6.33246 L 4.78067,5.77884 L 5.46725,5.13409
 L 6.06763,4.40839 L 6.5723,3.61314 L 6.97331,2.76093 L 7.26436,1.86517 L 7.44086,0.939987 L 7.5,-0
 L 7.44086,-0.939987 L 7.26436,-1.86517 L 6.97331,-2.76093 L 6.5723,-3.61314 L 6.06763,-4.40839 L 5.46725,-5.13409
 L 4.78067,-5.77884 L 4.01869,-6.33246 L 3.19334,-6.78619 L 2.31763,-7.13292 L 1.40535,-7.36714 L 0.470917,-7.4852
 L -0.470917,-7.4852 L -1.40535,-7.36714 L -2.31763,-7.13292 L -3.19334,-6.78619 L -4.01869,-6.33246 L -4.78067,-5.77884
 L -5.46725,-5.13409 L -6.06763,-4.40839 L -6.5723,-3.61314 L -6.97331,-2.76093 L -7.26436,-1.86517 L -7.44086,-0.939987
 L -7.5,-0 L -7.44086,0.939987 L -7.26436,1.86517 L -6.97331,2.76093 L -6.5723,3.61314 L -6.06763,4.40839
 L -5.46725,5.13409 L -4.78067,5.77884 L -4.01869,6.33246 L -3.19334,6.78619 L -2.31763,7.13292 L -1.40535,7.36714
 L -0.470917,7.4852 L 0.470917,7.4852 z
M -0.200928,3.19368 L -0.599609,3.14331 L -0.988846,3.04338 L -1.36249,2.89543 L -1.71465,2.70184 L -2.03975,2.46564
 L -2.33269,2.19054 L -2.58885,1.88091 L -2.80417,1.54161 L -2.97528,1.17799 L -3.09946,0.795807 L -3.17476,0.401062
 L -3.2,-0 L -3.17476,-0.401062 L -3.09946,-0.795807 L -2.97528,-1.17799 L -2.80417,-1.54161 L -2.58885,-1.88091
 L -2.33269,-2.19054 L -2.03975,-2.46564 L -1.71465,-2.70184 L -1.36249,-2.89543 L -0.988846,-3.04338 L -0.599609,-3.14331
 L -0.200928,-3.19368 L 0.200928,-3.19368 L 0.599609,-3.14331 L 0.988846,-3.04338 L 1.36249,-2.89543 L 1.71465,-2.70184
 L 2.03975,-2.46564 L 2.33269,-2.19054 L 2.58885,-1.88091 L 2.80417,-1.54161 L 2.97528,-1.17799 L 3.09946,-0.795807
 L 3.17476,-0.401062 L 3.2,-0 L 3.17476,0.401062 L 3.09946,0.795807 L 2.97528,1.17799 L 2.80417,1.54161
 L 2.58885,1.88091 L 2.33269,2.19054 L 2.03975,2.46564 L 1.71465,2.70184 L 1.36249,2.89543 L 0.988846,3.04338
 L 0.599609,3.14331 L 0.200928,3.19368 z
" stroke="black" fill="lightgray" stroke-width="0.5"/>
</svg>
