  0
SECTION
  2
BLOCKS
  0
ENDSEC
  0
SECTION
  2
ENTITIES
  0
LINE
  8
0
 10
1.40535
 20
-7.36714
 11
2.31763
 21
-7.13292
  0
LINE
  8
0
 10
2.31763
 20
-7.13292
 11
3.19334
 21
-6.78619
  0
LINE
  8
0
 10
3.19334
 20
-6.78619
 11
4.01869
 21
-6.33246
  0
LINE
  8
0
 10
4.01869
 20
-6.33246
 11
4.78067
 21
-5.77884
  0
LINE
  8
0
 10
4.78067
 20
-5.77884
 11
5.46725
 21
-5.13409
  0
LINE
  8
0
 10
5.46725
 20
-5.13409
 11
6.06763
 21
-4.40839
  0
LINE
  8
0
 10
6.06763
 20
-4.40839
 11
6.5723
 21
-3.61314
  0
LINE
  8
0
 10
6.5723
 20
-3.61314
 11
6.97331
 21
-2.76093
  0
LINE
  8
0
 10
6.97331
 20
-2.76093
 11
7.26436
 21
-1.86517
  0
LINE
  8
0
 10
7.26436
 20
-1.86517
 11
7.44086
 21
-0.939987
  0
LINE
  8
0
 10
7.44086
 20
-0.939987
 11
7.5
 21
0
  0
LINE
  8
0
 10
7.5
 20
0
 11
7.44086
 21
0.939987
  0
LINE
  8
0
 10
7.44086
 20
0.939987
 11
7.26436
 21
1.86517
  0
LINE
  8
0
 10
7.26436
 20
1.86517
 11
6.97331
 21
2.76093
  0
LINE
  8
0
 10
6.97331
 20
2.76093
 11
6.5723
 21
3.61314
  0
LINE
  8
0
 10
6.5723
 20
3.61314
 11
6.06763
 21
4.40839
  0
LINE
  8
0
 10
6.06763
 20
4.40839
 11
5.46725
 21
5.13409
  0
LINE
  8
0
 10
5.46725
 20
5.13409
 11
4.78067
 21
5.77884
  0
LINE
  8
0
 10
4.78067
 20
5.77884
 11
4.01869
 21
6.33246
  0
LINE
  8
0
 10
4.01869
 20
6.33246
 11
3.19334
 21
6.78619
  0
LINE
  8
0
 10
3.19334
 20
6.78619
 11
2.31763
 21
7.13292
  0
LINE
  8
0
 10
2.31763
 20
7.13292
 11
1.40535
 21
7.36714
  0
LINE
  8
0
 10
1.40535
 20
7.36714
 11
0.470917
 21
7.4852
  0
LINE
  8
0
 10
0.470917
 20
7.4852
 11
-0.470917
 21
7.4852
  0
LINE
  8
0
 10
-0.470917
 20
7.4852
 11
-1.40535
 21
7.36714
  0
LINE
  8
0
 10
-1.40535
 20
7.36714
 11
-2.31763
 21
7.13292
  0
LINE
  8
0
 10
-2.31763
 20
7.13292
 11
-3.19334
 21
6.78619
  0
LINE
  8
0
 10
-3.19334
 20
6.78619
 11
-4.01869
 21
6.33246
  0
LINE
  8
0
 10
-4.01869
 20
6.33246
 11
-4.78067
 21
5.77884
  0
LINE
  8
0
 10
-4.78067
 20
5.77884
 11
-5.46725
 21
5.13409
  0
LINE
  8
0
 10
-5.46725
 20
5.13409
 11
-6.06763
 21
4.40839
  0
LINE
  8
0
 10
-6.06763
 20
4.40839
 11
-6.5723
 21
3.61314
  0
LINE
  8
0
 10
-6.5723
 20
3.61314
 11
-6.97331
 21
2.76093
  0
LINE
  8
0
 10
-6.97331
 20
2.76093
 11
-7.26436
 21
1.86517
  0
LINE
  8
0
 10
-7.26436
 20
1.86517
 11
-7.44086
 21
0.939987
  0
LINE
  8
0
 10
-7.44086
 20
0.939987
 11
-7.5
 21
0
  0
LINE
  8
0
 10
-7.5
 20
0
 11
-7.44086
 21
-0.939987
  0
LINE
  8
0
 10
-7.44086
 20
-0.939987
 11
-7.26436
 21
-1.86517
  0
LINE
  8
0
 10
-7.26436
 20
-1.86517
 11
-6.97331
 21
-2.76093
  0
LINE
  8
0
 10
-6.97331
 20
-2.76093
 11
-6.5723
 21
-3.61314
  0
LINE
  8
0
 10
-6.5723
 20
-3.61314
 11
-6.06763
 21
-4.40839
  0
LINE
  8
0
 10
-6.06763
 20
-4.40839
 11
-5.46725
 21
-5.13409
  0
LINE
  8
0
 10
-5.46725
 20
-5.13409
 11
-4.78067
 21
-5.77884
  0
LINE
  8
0
 10
-4.78067
 20
-5.77884
 11
-4.01869
 21
-6.33246
  0
LINE
  8
0
 10
-4.01869
 20
-6.33246
 11
-3.19334
 21
-6.78619
  0
LINE
  8
0
 10
-3.19334
 20
-6.78619
 11
-2.31763
 21
-7.13292
  0
LINE
  8
0
 10
-2.31763
 20
-7.13292
 11
-1.40535
 21
-7.36714
  0
LINE
  8
0
 10
-1.40535
 20
-7.36714
 11
-0.470917
 21
-7.4852
  0
LINE
  8
0
 10
-0.470917
 20
-7.4852
 11
0.470917
 21
-7.4852
  0
LINE
  8
0
 10
0.470917
 20
-7.4852
 11
1.40535
 21
-7.36714
  0
LINE
  8
0
 10
-0.200928
 20
-3.19368
 11
-0.599609
 21
-3.14331
  0
LINE
  8
0
 10
-0.599609
 20
-3.14331
 11
-0.988846
 21
-3.04338
  0
LINE
  8
0
 10
-0.988846
 20
-3.04338
 11
-1.36249
 21
-2.89543
  0
LINE
  8
0
 10
-1.36249
 20
-2.89543
 11
-1.71465
 21
-2.70184
  0
LINE
  8
0
 10
-1.71465
 20
-2.70184
 11
-2.03975
 21
-2.46564
  0
LINE
  8
0
 10
-2.03975
 20
-2.46564
 11
-2.33269
 21
-2.19054
  0
LINE
  8
0
 10
-2.33269
 20
-2.19054
 11
-2.58885
 21
-1.88091
  0
LINE
  8
0
 10
-2.58885
 20
-1.88091
 11
-2.80417
 21
-1.54161
  0
LINE
  8
0
 10
-2.80417
 20
-1.54161
 11
-2.97528
 21
-1.17799
  0
LINE
  8
0
 10
-2.97528
 20
-1.17799
 11
-3.09946
 21
-0.795807
  0
LINE
  8
0
 10
-3.09946
 20
-0.795807
 11
-3.17476
 21
-0.401062
  0
LINE
  8
0
 10
-3.17476
 20
-0.401062
 11
-3.2
 21
0
  0
LINE
  8
0
 10
-3.2
 20
0
 11
-3.17476
 21
0.401062
  0
LINE
  8
0
 10
-3.17476
 20
0.401062
 11
-3.09946
 21
0.795807
  0
LINE
  8
0
 10
-3.09946
 20
0.795807
 11
-2.97528
 21
1.17799
  0
LINE
  8
0
 10
-2.97528
 20
1.17799
 11
-2.80417
 21
1.54161
  0
LINE
  8
0
 10
-2.80417
 20
1.54161
 11
-2.58885
 21
1.88091
  0
LINE
  8
0
 10
-2.58885
 20
1.88091
 11
-2.33269
 21
2.19054
  0
LINE
  8
0
 10
-2.33269
 20
2.19054
 11
-2.03975
 21
2.46564
  0
LINE
  8
0
 10
-2.03975
 20
2.46564
 11
-1.71465
 21
2.70184
  0
LINE
  8
0
 10
-1.71465
 20
2.70184
 11
-1.36249
 21
2.89543
  0
LINE
  8
0
 10
-1.36249
 20
2.89543
 11
-0.988846
 21
3.04338
  0
LINE
  8
0
 10
-0.988846
 20
3.04338
 11
-0.599609
 21
3.14331
  0
LINE
  8
0
 10
-0.599609
 20
3.14331
 11
-0.200928
 21
3.19368
  0
LINE
  8
0
 10
-0.200928
 20
3.19368
 11
0.200928
 21
3.19368
  0
LINE
  8
0
 10
0.200928
 20
3.19368
 11
0.599609
 21
3.14331
  0
LINE
  8
0
 10
0.599609
 20
3.14331
 11
0.988846
 21
3.04338
  0
LINE
  8
0
 10
0.988846
 20
3.04338
 11
1.36249
 21
2.89543
  0
LINE
  8
0
 10
1.36249
 20
2.89543
 11
1.71465
 21
2.70184
  0
LINE
  8
0
 10
1.71465
 20
2.70184
 11
2.03975
 21
2.46564
  0
LINE
  8
0
 10
2.03975
 20
2.46564
 11
2.33269
 21
2.19054
  0
LINE
  8
0
 10
2.33269
 20
2.19054
 11
2.58885
 21
1.88091
  0
LINE
  8
0
 10
2.58885
 20
1.88091
 11
2.80417
 21
1.54161
  0
LINE
  8
0
 10
2.80417
 20
1.54161
 11
2.97528
 21
1.17799
  0
LINE
  8
0
 10
2.97528
 20
1.17799
 11
3.09946
 21
0.795807
  0
LINE
  8
0
 10
3.09946
 20
0.795807
 11
3.17476
 21
0.401062
  0
LINE
  8
0
 10
3.17476
 20
0.401062
 11
3.2
 21
0
  0
LINE
  8
0
 10
3.2
 20
0
 11
3.17476
 21
-0.401062
  0
LINE
  8
0
 10
3.17476
 20
-0.401062
 11
3.09946
 21
-0.795807
  0
LINE
  8
0
 10
3.09946
 20
-0.795807
 11
2.97528
 21
-1.17799
  0
LINE
  8
0
 10
2.97528
 20
-1.17799
 11
2.80417
 21
-1.54161
  0
LINE
  8
0
 10
2.80417
 20
-1.54161
 11
2.58885
 21
-1.88091
  0
LINE
  8
0
 10
2.58885
 20
-1.88091
 11
2.33269
 21
-2.19054
  0
LINE
  8
0
 10
2.33269
 20
-2.19054
 11
2.03975
 21
-2.46564
  0
LINE
  8
0
 10
2.03975
 20
-2.46564
 11
1.71465
 21
-2.70184
  0
LINE
  8
0
 10
1.71465
 20
-2.70184
 11
1.36249
 21
-2.89543
  0
LINE
  8
0
 10
1.36249
 20
-2.89543
 11
0.988846
 21
-3.04338
  0
LINE
  8
0
 10
0.988846
 20
-3.04338
 11
0.599609
 21
-3.14331
  0
LINE
  8
0
 10
0.599609
 20
-3.14331
 11
0.200928
 21
-3.19368
  0
LINE
  8
0
 10
0.200928
 20
-3.19368
 11
-0.200928
 21
-3.19368
  0
ENDSEC
  0
SECTION
  2
OBJECTS
  0
DICTIONARY
  0
ENDSEC
  0
EOF
