  0
SECTION
  2
BLOCKS
  0
ENDSEC
  0
SECTION
  2
ENTITIES
  0
LINE
  8
0
 10
1.40535
 20
-7.36714
 11
2.31763
 21
-7.13292
  0
LINE
  8
0
 10
2.31763
 20
-7.13292
 11
3.19334
 21
-6.78619
  0
LINE
  8
0
 10
3.19334
 20
-6.78619
 11
4.01869
 21
-6.33246
  0
LINE
  8
0
 10
4.01869
 20
-6.33246
 11
4.78067
 21
-5.77884
  0
LINE
  8
0
 10
4.78067
 20
-5.77884
 11
5.46725
 21
-5.13409
  0
LINE
  8
0
 10
5.46725
 20
-5.13409
 11
6.06763
 21
-4.40839
  0
LINE
  8
0
 10
6.06763
 20
-4.40839
 11
6.5723
 21
-3.61314
  0
LINE
  8
0
 10
6.5723
 20
-3.61314
 11
6.97331
 21
-2.76093
  0
LINE
  8
0
 10
6.97331
 20
-2.76093
 11
7.26436
 21
-1.86517
  0
LINE
  8
0
 10
7.26436
 20
-1.86517
 11
7.44086
 21
-0.939987
  0
LINE
  8
0
 10
7.44086
 20
-0.939987
 11
7.5
 21
0
  0
LINE
  8
0
 10
7.5
 20
0
 11
7.44086
 21
0.939987
  0
LINE
  8
0
 10
7.44086
 20
0.939987
 11
7.26436
 21
1.86517
  0
LINE
  8
0
 10
7.26436
 20
1.86517
 11
6.97331
 21
2.76093
  0
LINE
  8
0
 10
6.97331
 20
2.76093
 11
6.5723
 21
3.61314
  0
LINE
  8
0
 10
6.5723
 20
3.61314
 11
6.06763
 21
4.40839
  0
LINE
  8
0
 10
6.06763
 20
4.40839
 11
5.46725
 21
5.13409
  0
LINE
  8
0
 10
5.46725
 20
5.13409
 11
4.78067
 21
5.77884
  0
LINE
  8
0
 10
4.78067
 20
5.77884
 11
4.01869
 21
6.33246
  0
LINE
  8
0
 10
4.01869
 20
6.33246
 11
3.19334
 21
6.78619
  0
LINE
  8
0
 10
3.19334
 20
6.78619
 11
2.31763
 21
7.13292
  0
LINE
  8
0
 10
2.31763
 20
7.13292
 11
1.40535
 21
7.36714
  0
LINE
  8
0
 10
1.40535
 20
7.36714
 11
0.470917
 21
7.4852
  0
LINE
  8
0
 10
0.470917
 20
7.4852
 11
-0.470917
 21
7.4852
  0
LINE
  8
0
 10
-0.470917
 20
7.4852
 11
-1.40535
 21
7.36714
  0
LINE
  8
0
 10
-1.40535
 20
7.36714
 11
-2.31763
 21
7.13292
  0
LINE
  8
0
 10
-2.31763
 20
7.13292
 11
-3.19334
 21
6.78619
  0
LINE
  8
0
 10
-3.19334
 20
6.78619
 11
-4.01869
 21
6.33246
  0
LINE
  8
0
 10
-4.01869
 20
6.33246
 11
-4.78067
 21
5.77884
  0
LINE
  8
0
 10
-4.78067
 20
5.77884
 11
-5.46725
 21
5.13409
  0
LINE
  8
0
 10
-5.46725
 20
5.13409
 11
-6.06763
 21
4.40839
  0
LINE
  8
0
 10
-6.06763
 20
4.40839
 11
-6.5723
 21
3.61314
  0
LINE
  8
0
 10
-6.5723
 20
3.61314
 11
-6.97331
 21
2.76093
  0
LINE
  8
0
 10
-6.97331
 20
2.76093
 11
-7.26436
 21
1.86517
  0
LINE
  8
0
 10
-7.26436
 20
1.86517
 11
-7.44086
 21
0.939987
  0
LINE
  8
0
 10
-7.44086
 20
0.939987
 11
-7.5
 21
0
  0
LINE
  8
0
 10
-7.5
 20
0
 11
-7.44086
 21
-0.939987
  0
LINE
  8
0
 10
-7.44086
 20
-0.939987
 11
-7.26436
 21
-1.86517
  0
LINE
  8
0
 10
-7.26436
 20
-1.86517
 11
-6.97331
 21
-2.76093
  0
LINE
  8
0
 10
-6.97331
 20
-2.76093
 11
-6.5723
 21
-3.61314
  0
LINE
  8
0
 10
-6.5723
 20
-3.61314
 11
-6.06763
 21
-4.40839
  0
LINE
  8
0
 10
-6.06763
 20
-4.40839
 11
-5.46725
 21
-5.13409
  0
LINE
  8
0
 10
-5.46725
 20
-5.13409
 11
-4.78067
 21
-5.77884
  0
LINE
  8
0
 10
-4.78067
 20
-5.77884
 11
-4.01869
 21
-6.33246
  0
LINE
  8
0
 10
-4.01869
 20
-6.33246
 11
-3.19334
 21
-6.78619
  0
LINE
  8
0
 10
-3.19334
 20
-6.78619
 11
-2.31763
 21
-7.13292
  0
LINE
  8
0
 10
-2.31763
 20
-7.13292
 11
-1.40535
 21
-7.36714
  0
LINE
  8
0
 10
-1.40535
 20
-7.36714
 11
-0.470917
 21
-7.4852
  0
LINE
  8
0
 10
-0.470917
 20
-7.4852
 11
0.470917
 21
-7.4852
  0
LINE
  8
0
 10
0.470917
 20
-7.4852
 11
1.40535
 21
-7.36714
  0
LINE
  8
0
 10
-0.106735
 20
-1.69664
 11
-0.318542
 21
-1.66988
  0
LINE
  8
0
 10
-0.318542
 20
-1.66988
 11
-0.525314
 21
-1.61679
  0
LINE
  8
0
 10
-0.525314
 20
-1.61679
 11
-0.723816
 21
-1.53819
  0
LINE
  8
0
 10
-0.723816
 20
-1.53819
 11
-0.910904
 21
-1.43535
  0
LINE
  8
0
 10
-0.910904
 20
-1.43535
 11
-1.08362
 21
-1.30986
  0
LINE
  8
0
 10
-1.08362
 20
-1.30986
 11
-1.23924
 21
-1.16373
  0
LINE
  8
0
 10
-1.23924
 20
-1.16373
 11
-1.37532
 21
-0.999222
  0
LINE
  8
0
 10
-1.37532
 20
-0.999222
 11
-1.48972
 21
-0.81897
  0
LINE
  8
0
 10
-1.48972
 20
-0.81897
 11
-1.58061
 21
-0.625809
  0
LINE
  8
0
 10
-1.58061
 20
-0.625809
 11
-1.64659
 21
-0.42276
  0
LINE
  8
0
 10
-1.64659
 20
-0.42276
 11
-1.68658
 21
-0.213058
  0
LINE
  8
0
 10
-1.68658
 20
-0.213058
 11
-1.7
 21
0
  0
LINE
  8
0
 10
-1.7
 20
0
 11
-1.68658
 21
0.213058
  0
LINE
  8
0
 10
-1.68658
 20
0.213058
 11
-1.64659
 21
0.42276
  0
LINE
  8
0
 10
-1.64659
 20
0.42276
 11
-1.58061
 21
0.625809
  0
LINE
  8
0
 10
-1.58061
 20
0.625809
 11
-1.48972
 21
0.81897
  0
LINE
  8
0
 10
-1.48972
 20
0.81897
 11
-1.37532
 21
0.999222
  0
LINE
  8
0
 10
-1.37532
 20
0.999222
 11
-1.23924
 21
1.16373
  0
LINE
  8
0
 10
-1.23924
 20
1.16373
 11
-1.08362
 21
1.30986
  0
LINE
  8
0
 10
-1.08362
 20
1.30986
 11
-0.910904
 21
1.43535
  0
LINE
  8
0
 10
-0.910904
 20
1.43535
 11
-0.723816
 21
1.53819
  0
LINE
  8
0
 10
-0.723816
 20
1.53819
 11
-0.525314
 21
1.61679
  0
LINE
  8
0
 10
-0.525314
 20
1.61679
 11
-0.318542
 21
1.66988
  0
LINE
  8
0
 10
-0.318542
 20
1.66988
 11
-0.106735
 21
1.69664
  0
LINE
  8
0
 10
-0.106735
 20
1.69664
 11
0.106735
 21
1.69664
  0
LINE
  8
0
 10
0.106735
 20
1.69664
 11
0.318542
 21
1.66988
  0
LINE
  8
0
 10
0.318542
 20
1.66988
 11
0.525314
 21
1.61679
  0
LINE
  8
0
 10
0.525314
 20
1.61679
 11
0.723816
 21
1.53819
  0
LINE
  8
0
 10
0.723816
 20
1.53819
 11
0.910904
 21
1.43535
  0
LINE
  8
0
 10
0.910904
 20
1.43535
 11
1.08362
 21
1.30986
  0
LINE
  8
0
 10
1.08362
 20
1.30986
 11
1.23924
 21
1.16373
  0
LINE
  8
0
 10
1.23924
 20
1.16373
 11
1.37532
 21
0.999222
  0
LINE
  8
0
 10
1.37532
 20
0.999222
 11
1.48972
 21
0.81897
  0
LINE
  8
0
 10
1.48972
 20
0.81897
 11
1.58061
 21
0.625809
  0
LINE
  8
0
 10
1.58061
 20
0.625809
 11
1.64659
 21
0.42276
  0
LINE
  8
0
 10
1.64659
 20
0.42276
 11
1.68658
 21
0.213058
  0
LINE
  8
0
 10
1.68658
 20
0.213058
 11
1.7
 21
0
  0
LINE
  8
0
 10
1.7
 20
0
 11
1.68658
 21
-0.213058
  0
LINE
  8
0
 10
1.68658
 20
-0.213058
 11
1.64659
 21
-0.42276
  0
LINE
  8
0
 10
1.64659
 20
-0.42276
 11
1.58061
 21
-0.625809
  0
LINE
  8
0
 10
1.58061
 20
-0.625809
 11
1.48972
 21
-0.81897
  0
LINE
  8
0
 10
1.48972
 20
-0.81897
 11
1.37532
 21
-0.999222
  0
LINE
  8
0
 10
1.37532
 20
-0.999222
 11
1.23924
 21
-1.16373
  0
LINE
  8
0
 10
1.23924
 20
-1.16373
 11
1.08362
 21
-1.30986
  0
LINE
  8
0
 10
1.08362
 20
-1.30986
 11
0.910904
 21
-1.43535
  0
LINE
  8
0
 10
0.910904
 20
-1.43535
 11
0.723816
 21
-1.53819
  0
LINE
  8
0
 10
0.723816
 20
-1.53819
 11
0.525314
 21
-1.61679
  0
LINE
  8
0
 10
0.525314
 20
-1.61679
 11
0.318542
 21
-1.66988
  0
LINE
  8
0
 10
0.318542
 20
-1.66988
 11
0.106735
 21
-1.69664
  0
LINE
  8
0
 10
0.106735
 20
-1.69664
 11
-0.106735
 21
-1.69664
  0
ENDSEC
  0
SECTION
  2
OBJECTS
  0
DICTIONARY
  0
ENDSEC
  0
EOF
