<?xml version="1.0" standalone="no"?>
<!DOCTYPE svg PUBLIC "-//W3C//DTD SVG 1.1//EN" "http://www.w3.org/Graphics/SVG/1.1/DTD/svg11.dtd">
<svg width="16mm" height="16mm" viewBox="-8 -8 16 16" xmlns="http://www.w3.org/2000/svg" version="1.1">
<title>OpenSCAD Model</title>
<path d="
M 1.40535,7.36714 L 2.31763,7.13292 L 3.19334,6.78619 L 4.01869,6.33246 L 4.78067,5.77884 L 5.46725,5.13409
 L 6.06763,4.40839 L 6.5723,3.61314 L 6.97331,2.76093 L 7.26436,1.86517 L 7.44086,0.939987 L 7.5,-0
 L 7.44086,-0.939987 L 7.26436,-1.86517 L 6.97331,-2.76093 L 6.5723,-3.61314 L 6.06763,-4.40839 L 5.46725,-5.13409
 L 4.78067,-5.77884 L 4.01869,-6.33246 L 3.19334,-6.78619 L 2.31763,-7.13292 L 1.40535,-7.36714 L 0.470917,-7.4852
 L -0.470917,-7.4852 L -1.40535,-7.36714 L -2.31763,-7.13292 L -3.19334,-6.78619 L -4.01869,-6.33246 L -4.78067,-5.77884
 L -5.46725,-5.13409 L -6.06763,-4.40839 L -6.5723,-3.61314 L -6.97331,-2.76093 L -7.26436,-1.86517 L -7.44086,-0.939987
 L -7.5,-0 L -7.44086,0.939987 L -7.26436,1.86517 L -6.97331,2.76093 L -6.5723,3.61314 L -6.06763,4.40839
 L -5.46725,5.13409 L -4.78067,5.77884 L -4.01869,6.33246 L -3.19334,6.78619 L -2.31763,7.13292 L -1.40535,7.36714
 L -0.470917,7.4852 L 0.470917,7.4852 z
M -0.106735,1.69664 L -0.318542,1.66988 L -0.525314,1.61679 L -0.723816,1.53819 L -0.910904,1.43535 L -1.08362,1.30986
 L -1.23924,1.16373 L -1.37532,0.999222 L -1.48972,0.81897 L -1.58061,0.625809 L -1.64659,0.42276 L -1.68658,0.213058
 L -1.7,-0 L -1.68658,-0.213058 L -1.64659,-0.42276 L -1.58061,-0.625809 L -1.48972,-0.81897 L -1.37532,-0.999222
 L -1.23924,-1.16373 L -1.08362,-1.30986 L -0.910904,-1.43535 L -0.723816,-1.53819 L -0.525314,-1.61679 L -0.318542,-1.66988
 L -0.106735,-1.69664 L 0.106735,-1.69664 L 0.318542,-1.66988 L 0.525314,-1.61679 L 0.723816,-1.53819 L 0.910904,-1.43535
 L 1.08362,-1.30986 L 1.23924,-1.16373 L 1.37532,-0.999222 L 1.48972,-0.81897 L 1.58061,-0.625809 L 1.64659,-0.42276
 L 1.68658,-0.213058 L 1.7,-0 L 1.68658,0.213058 L 1.64659,0.42276 L 1.58061,0.625809 L 1.48972,0.81897
 L 1.37532,0.999222 L 1.23924,1.16373 L 1.08362,1.30986 L 0.910904,1.43535 L 0.723816,1.53819 L 0.525314,1.61679
 L 0.318542,1.66988 L 0.106735,1.69664 z
" stroke="black" fill="lightgray" stroke-width="0.5"/>
</svg>
