  0
SECTION
  2
BLOCKS
  0
ENDSEC
  0
SECTION
  2
ENTITIES
  0
LINE
  8
0
 10
-0.936905
 20
-4.91142
 11
-0.31395
 21
-4.99013
  0
LINE
  8
0
 10
-0.31395
 20
-4.99013
 11
0.31395
 21
-4.99013
  0
LINE
  8
0
 10
0.31395
 20
-4.99013
 11
0.936905
 21
-4.91142
  0
LINE
  8
0
 10
0.936905
 20
-4.91142
 11
1.54507
 21
-4.75528
  0
LINE
  8
0
 10
1.54507
 20
-4.75528
 11
2.12889
 21
-4.52412
  0
LINE
  8
0
 10
2.12889
 20
-4.52412
 11
2.67912
 21
-4.22163
  0
LINE
  8
0
 10
2.67912
 20
-4.22163
 11
3.18712
 21
-3.85255
  0
LINE
  8
0
 10
3.18712
 20
-3.85255
 11
3.64484
 21
-3.42273
  0
LINE
  8
0
 10
3.64484
 20
-3.42273
 11
4.04507
 21
-2.93892
  0
LINE
  8
0
 10
4.04507
 20
-2.93892
 11
4.38153
 21
-2.40877
  0
LINE
  8
0
 10
4.38153
 20
-2.40877
 11
4.64888
 21
-1.84062
  0
LINE
  8
0
 10
4.64888
 20
-1.84062
 11
4.84291
 21
-1.24344
  0
LINE
  8
0
 10
4.84291
 20
-1.24344
 11
4.96057
 21
-0.626663
  0
LINE
  8
0
 10
4.96057
 20
-0.626663
 11
5
 21
0
  0
LINE
  8
0
 10
5
 20
0
 11
4.96057
 21
0.626663
  0
LINE
  8
0
 10
4.96057
 20
0.626663
 11
4.84291
 21
1.24344
  0
LINE
  8
0
 10
4.84291
 20
1.24344
 11
4.64888
 21
1.84062
  0
LINE
  8
0
 10
4.64888
 20
1.84062
 11
4.38153
 21
2.40877
  0
LINE
  8
0
 10
4.38153
 20
2.40877
 11
4.04507
 21
2.93892
  0
LINE
  8
0
 10
4.04507
 20
2.93892
 11
3.64484
 21
3.42273
  0
LINE
  8
0
 10
3.64484
 20
3.42273
 11
3.18712
 21
3.85255
  0
LINE
  8
0
 10
3.18712
 20
3.85255
 11
2.67912
 21
4.22163
  0
LINE
  8
0
 10
2.67912
 20
4.22163
 11
2.12889
 21
4.52412
  0
LINE
  8
0
 10
2.12889
 20
4.52412
 11
1.54507
 21
4.75528
  0
LINE
  8
0
 10
1.54507
 20
4.75528
 11
0.936905
 21
4.91142
  0
LINE
  8
0
 10
0.936905
 20
4.91142
 11
0.31395
 21
4.99013
  0
LINE
  8
0
 10
0.31395
 20
4.99013
 11
-0.31395
 21
4.99013
  0
LINE
  8
0
 10
-0.31395
 20
4.99013
 11
-0.936905
 21
4.91142
  0
LINE
  8
0
 10
-0.936905
 20
4.91142
 11
-1.54507
 21
4.75528
  0
LINE
  8
0
 10
-1.54507
 20
4.75528
 11
-2.12889
 21
4.52412
  0
LINE
  8
0
 10
-2.12889
 20
4.52412
 11
-2.67912
 21
4.22163
  0
LINE
  8
0
 10
-2.67912
 20
4.22163
 11
-3.18712
 21
3.85255
  0
LINE
  8
0
 10
-3.18712
 20
3.85255
 11
-3.64484
 21
3.42273
  0
LINE
  8
0
 10
-3.64484
 20
3.42273
 11
-4.04507
 21
2.93892
  0
LINE
  8
0
 10
-4.04507
 20
2.93892
 11
-4.38153
 21
2.40877
  0
LINE
  8
0
 10
-4.38153
 20
2.40877
 11
-4.64888
 21
1.84062
  0
LINE
  8
0
 10
-4.64888
 20
1.84062
 11
-4.84291
 21
1.24344
  0
LINE
  8
0
 10
-4.84291
 20
1.24344
 11
-4.96057
 21
0.626663
  0
LINE
  8
0
 10
-4.96057
 20
0.626663
 11
-5
 21
0
  0
LINE
  8
0
 10
-5
 20
0
 11
-4.96057
 21
-0.626663
  0
LINE
  8
0
 10
-4.96057
 20
-0.626663
 11
-4.84291
 21
-1.24344
  0
LINE
  8
0
 10
-4.84291
 20
-1.24344
 11
-4.64888
 21
-1.84062
  0
LINE
  8
0
 10
-4.64888
 20
-1.84062
 11
-4.38153
 21
-2.40877
  0
LINE
  8
0
 10
-4.38153
 20
-2.40877
 11
-4.04507
 21
-2.93892
  0
LINE
  8
0
 10
-4.04507
 20
-2.93892
 11
-3.64484
 21
-3.42273
  0
LINE
  8
0
 10
-3.64484
 20
-3.42273
 11
-3.18712
 21
-3.85255
  0
LINE
  8
0
 10
-3.18712
 20
-3.85255
 11
-2.67912
 21
-4.22163
  0
LINE
  8
0
 10
-2.67912
 20
-4.22163
 11
-2.12889
 21
-4.52412
  0
LINE
  8
0
 10
-2.12889
 20
-4.52412
 11
-1.54507
 21
-4.75528
  0
LINE
  8
0
 10
-1.54507
 20
-4.75528
 11
-0.936905
 21
-4.91142
  0
LINE
  8
0
 10
-0.844635
 20
-2.59955
 11
-1.16379
 21
-2.47319
  0
LINE
  8
0
 10
-1.16379
 20
-2.47319
 11
-1.46458
 21
-2.30782
  0
LINE
  8
0
 10
-1.46458
 20
-2.30782
 11
-1.74228
 21
-2.10606
  0
LINE
  8
0
 10
-1.74228
 20
-2.10606
 11
-1.99251
 21
-1.87109
  0
LINE
  8
0
 10
-1.99251
 20
-1.87109
 11
-2.2113
 21
-1.6066
  0
LINE
  8
0
 10
-2.2113
 20
-1.6066
 11
-2.39523
 21
-1.31679
  0
LINE
  8
0
 10
-2.39523
 20
-1.31679
 11
-2.54138
 21
-1.0062
  0
LINE
  8
0
 10
-2.54138
 20
-1.0062
 11
-2.64745
 21
-0.679749
  0
LINE
  8
0
 10
-2.64745
 20
-0.679749
 11
-2.71178
 21
-0.342575
  0
LINE
  8
0
 10
-2.71178
 20
-0.342575
 11
-2.73332
 21
0
  0
LINE
  8
0
 10
-2.73332
 20
0
 11
-2.71178
 21
0.342575
  0
LINE
  8
0
 10
-2.71178
 20
0.342575
 11
-2.64745
 21
0.679749
  0
LINE
  8
0
 10
-2.64745
 20
0.679749
 11
-2.54138
 21
1.0062
  0
LINE
  8
0
 10
-2.54138
 20
1.0062
 11
-2.39523
 21
1.31679
  0
LINE
  8
0
 10
-2.39523
 20
1.31679
 11
-2.2113
 21
1.6066
  0
LINE
  8
0
 10
-2.2113
 20
1.6066
 11
-1.99251
 21
1.87109
  0
LINE
  8
0
 10
-1.99251
 20
1.87109
 11
-1.74228
 21
2.10606
  0
LINE
  8
0
 10
-1.74228
 20
2.10606
 11
-1.46458
 21
2.30782
  0
LINE
  8
0
 10
-1.46458
 20
2.30782
 11
-1.16379
 21
2.47319
  0
LINE
  8
0
 10
-1.16379
 20
2.47319
 11
-0.844635
 21
2.59955
  0
LINE
  8
0
 10
-0.844635
 20
2.59955
 11
-0.512161
 21
2.68491
  0
LINE
  8
0
 10
-0.512161
 20
2.68491
 11
-0.171616
 21
2.72794
  0
LINE
  8
0
 10
-0.171616
 20
2.72794
 11
0.171616
 21
2.72794
  0
LINE
  8
0
 10
0.171616
 20
2.72794
 11
0.512161
 21
2.68491
  0
LINE
  8
0
 10
0.512161
 20
2.68491
 11
0.844635
 21
2.59955
  0
LINE
  8
0
 10
0.844635
 20
2.59955
 11
1.16379
 21
2.47319
  0
LINE
  8
0
 10
1.16379
 20
2.47319
 11
1.46458
 21
2.30782
  0
LINE
  8
0
 10
1.46458
 20
2.30782
 11
1.74228
 21
2.10606
  0
LINE
  8
0
 10
1.74228
 20
2.10606
 11
1.99251
 21
1.87109
  0
LINE
  8
0
 10
1.99251
 20
1.87109
 11
2.2113
 21
1.6066
  0
LINE
  8
0
 10
2.2113
 20
1.6066
 11
2.39523
 21
1.31679
  0
LINE
  8
0
 10
2.39523
 20
1.31679
 11
2.54138
 21
1.0062
  0
LINE
  8
0
 10
2.54138
 20
1.0062
 11
2.64745
 21
0.679749
  0
LINE
  8
0
 10
2.64745
 20
0.679749
 11
2.71178
 21
0.342575
  0
LINE
  8
0
 10
2.71178
 20
0.342575
 11
2.73332
 21
0
  0
LINE
  8
0
 10
2.73332
 20
0
 11
2.71178
 21
-0.342575
  0
LINE
  8
0
 10
2.71178
 20
-0.342575
 11
2.64745
 21
-0.679749
  0
LINE
  8
0
 10
2.64745
 20
-0.679749
 11
2.54138
 21
-1.0062
  0
LINE
  8
0
 10
2.54138
 20
-1.0062
 11
2.39523
 21
-1.31679
  0
LINE
  8
0
 10
2.39523
 20
-1.31679
 11
2.2113
 21
-1.6066
  0
LINE
  8
0
 10
2.2113
 20
-1.6066
 11
1.99251
 21
-1.87109
  0
LINE
  8
0
 10
1.99251
 20
-1.87109
 11
1.74228
 21
-2.10606
  0
LINE
  8
0
 10
1.74228
 20
-2.10606
 11
1.46458
 21
-2.30782
  0
LINE
  8
0
 10
1.46458
 20
-2.30782
 11
1.16379
 21
-2.47319
  0
LINE
  8
0
 10
1.16379
 20
-2.47319
 11
0.844635
 21
-2.59955
  0
LINE
  8
0
 10
0.844635
 20
-2.59955
 11
0.512161
 21
-2.68491
  0
LINE
  8
0
 10
0.512161
 20
-2.68491
 11
0.171616
 21
-2.72794
  0
LINE
  8
0
 10
0.171616
 20
-2.72794
 11
-0.171616
 21
-2.72794
  0
LINE
  8
0
 10
-0.171616
 20
-2.72794
 11
-0.512161
 21
-2.68491
  0
LINE
  8
0
 10
-0.512161
 20
-2.68491
 11
-0.844635
 21
-2.59955
  0
ENDSEC
  0
SECTION
  2
OBJECTS
  0
DICTIONARY
  0
ENDSEC
  0
EOF
