  0
SECTION
  2
BLOCKS
  0
ENDSEC
  0
SECTION
  2
ENTITIES
  0
LINE
  8
0
 10
20.9369
 20
-24.9114
 11
21.5451
 21
-24.7553
  0
LINE
  8
0
 10
21.5451
 20
-24.7553
 11
22.1289
 21
-24.5241
  0
LINE
  8
0
 10
22.1289
 20
-24.5241
 11
22.6791
 21
-24.2216
  0
LINE
  8
0
 10
22.6791
 20
-24.2216
 11
23.1871
 21
-23.8526
  0
LINE
  8
0
 10
23.1871
 20
-23.8526
 11
23.6448
 21
-23.4227
  0
LINE
  8
0
 10
23.6448
 20
-23.4227
 11
24.0451
 21
-22.9389
  0
LINE
  8
0
 10
24.0451
 20
-22.9389
 11
24.3815
 21
-22.4088
  0
LINE
  8
0
 10
24.3815
 20
-22.4088
 11
24.6489
 21
-21.8406
  0
LINE
  8
0
 10
24.6489
 20
-21.8406
 11
24.8429
 21
-21.2434
  0
LINE
  8
0
 10
24.8429
 20
-21.2434
 11
24.9606
 21
-20.6267
  0
LINE
  8
0
 10
24.9606
 20
-20.6267
 11
25
 21
-20
  0
LINE
  8
0
 10
25
 20
-20
 11
25
 21
20
  0
LINE
  8
0
 10
25
 20
20
 11
24.9606
 21
20.6267
  0
LINE
  8
0
 10
24.9606
 20
20.6267
 11
24.8429
 21
21.2434
  0
LINE
  8
0
 10
24.8429
 20
21.2434
 11
24.6489
 21
21.8406
  0
LINE
  8
0
 10
24.6489
 20
21.8406
 11
24.3815
 21
22.4088
  0
LINE
  8
0
 10
24.3815
 20
22.4088
 11
24.0451
 21
22.9389
  0
LINE
  8
0
 10
24.0451
 20
22.9389
 11
23.6448
 21
23.4227
  0
LINE
  8
0
 10
23.6448
 20
23.4227
 11
23.1871
 21
23.8526
  0
LINE
  8
0
 10
23.1871
 20
23.8526
 11
22.6791
 21
24.2216
  0
LINE
  8
0
 10
22.6791
 20
24.2216
 11
22.1289
 21
24.5241
  0
LINE
  8
0
 10
22.1289
 20
24.5241
 11
21.5451
 21
24.7553
  0
LINE
  8
0
 10
21.5451
 20
24.7553
 11
20.9369
 21
24.9114
  0
LINE
  8
0
 10
20.9369
 20
24.9114
 11
20.3139
 21
24.9901
  0
LINE
  8
0
 10
20.3139
 20
24.9901
 11
-20.3139
 21
24.9901
  0
LINE
  8
0
 10
-20.3139
 20
24.9901
 11
-20.9369
 21
24.9114
  0
LINE
  8
0
 10
-20.9369
 20
24.9114
 11
-21.5451
 21
24.7553
  0
LINE
  8
0
 10
-21.5451
 20
24.7553
 11
-22.1289
 21
24.5241
  0
LINE
  8
0
 10
-22.1289
 20
24.5241
 11
-22.6791
 21
24.2216
  0
LINE
  8
0
 10
-22.6791
 20
24.2216
 11
-23.1871
 21
23.8526
  0
LINE
  8
0
 10
-23.1871
 20
23.8526
 11
-23.6448
 21
23.4227
  0
LINE
  8
0
 10
-23.6448
 20
23.4227
 11
-24.0451
 21
22.9389
  0
LINE
  8
0
 10
-24.0451
 20
22.9389
 11
-24.3815
 21
22.4088
  0
LINE
  8
0
 10
-24.3815
 20
22.4088
 11
-24.6489
 21
21.8406
  0
LINE
  8
0
 10
-24.6489
 20
21.8406
 11
-24.8429
 21
21.2434
  0
LINE
  8
0
 10
-24.8429
 20
21.2434
 11
-24.9606
 21
20.6267
  0
LINE
  8
0
 10
-24.9606
 20
20.6267
 11
-25
 21
20
  0
LINE
  8
0
 10
-25
 20
20
 11
-25
 21
-20
  0
LINE
  8
0
 10
-25
 20
-20
 11
-24.9606
 21
-20.6267
  0
LINE
  8
0
 10
-24.9606
 20
-20.6267
 11
-24.8429
 21
-21.2434
  0
LINE
  8
0
 10
-24.8429
 20
-21.2434
 11
-24.6489
 21
-21.8406
  0
LINE
  8
0
 10
-24.6489
 20
-21.8406
 11
-24.3815
 21
-22.4088
  0
LINE
  8
0
 10
-24.3815
 20
-22.4088
 11
-24.0451
 21
-22.9389
  0
LINE
  8
0
 10
-24.0451
 20
-22.9389
 11
-23.6448
 21
-23.4227
  0
LINE
  8
0
 10
-23.6448
 20
-23.4227
 11
-23.1871
 21
-23.8526
  0
LINE
  8
0
 10
-23.1871
 20
-23.8526
 11
-22.6791
 21
-24.2216
  0
LINE
  8
0
 10
-22.6791
 20
-24.2216
 11
-22.1289
 21
-24.5241
  0
LINE
  8
0
 10
-22.1289
 20
-24.5241
 11
-21.5451
 21
-24.7553
  0
LINE
  8
0
 10
-21.5451
 20
-24.7553
 11
-20.9369
 21
-24.9114
  0
LINE
  8
0
 10
-20.9369
 20
-24.9114
 11
-20.3139
 21
-24.9901
  0
LINE
  8
0
 10
-20.3139
 20
-24.9901
 11
20.3139
 21
-24.9901
  0
LINE
  8
0
 10
20.3139
 20
-24.9901
 11
20.9369
 21
-24.9114
  0
LINE
  8
0
 10
14.8179
 20
12.1057
 11
14.4566
 21
12.1514
  0
LINE
  8
0
 10
14.4566
 20
12.1514
 11
14.1038
 21
12.2419
  0
LINE
  8
0
 10
14.1038
 20
12.2419
 11
13.7652
 21
12.376
  0
LINE
  8
0
 10
13.7652
 20
12.376
 11
13.4461
 21
12.5514
  0
LINE
  8
0
 10
13.4461
 20
12.5514
 11
13.1515
 21
12.7655
  0
LINE
  8
0
 10
13.1515
 20
12.7655
 11
12.886
 21
13.0148
  0
LINE
  8
0
 10
12.886
 20
13.0148
 11
12.6538
 21
13.2954
  0
LINE
  8
0
 10
12.6538
 20
13.2954
 11
12.4587
 21
13.6029
  0
LINE
  8
0
 10
12.4587
 20
13.6029
 11
12.3036
 21
13.9324
  0
LINE
  8
0
 10
12.3036
 20
13.9324
 11
12.1911
 21
14.2788
  0
LINE
  8
0
 10
12.1911
 20
14.2788
 11
12.1229
 21
14.6365
  0
LINE
  8
0
 10
12.1229
 20
14.6365
 11
12.1
 21
15
  0
LINE
  8
0
 10
12.1
 20
15
 11
12.1229
 21
15.3635
  0
LINE
  8
0
 10
12.1229
 20
15.3635
 11
12.1911
 21
15.7212
  0
LINE
  8
0
 10
12.1911
 20
15.7212
 11
12.3036
 21
16.0676
  0
LINE
  8
0
 10
12.3036
 20
16.0676
 11
12.4587
 21
16.3971
  0
LINE
  8
0
 10
12.4587
 20
16.3971
 11
12.6538
 21
16.7046
  0
LINE
  8
0
 10
12.6538
 20
16.7046
 11
12.886
 21
16.9852
  0
LINE
  8
0
 10
12.886
 20
16.9852
 11
13.1515
 21
17.2345
  0
LINE
  8
0
 10
13.1515
 20
17.2345
 11
13.4461
 21
17.4485
  0
LINE
  8
0
 10
13.4461
 20
17.4485
 11
13.7652
 21
17.624
  0
LINE
  8
0
 10
13.7652
 20
17.624
 11
14.1038
 21
17.7581
  0
LINE
  8
0
 10
14.1038
 20
17.7581
 11
14.4566
 21
17.8486
  0
LINE
  8
0
 10
14.4566
 20
17.8486
 11
14.8179
 21
17.8943
  0
LINE
  8
0
 10
14.8179
 20
17.8943
 11
15.1821
 21
17.8943
  0
LINE
  8
0
 10
15.1821
 20
17.8943
 11
15.5434
 21
17.8486
  0
LINE
  8
0
 10
15.5434
 20
17.8486
 11
15.8961
 21
17.7581
  0
LINE
  8
0
 10
15.8961
 20
17.7581
 11
16.2348
 21
17.624
  0
LINE
  8
0
 10
16.2348
 20
17.624
 11
16.5539
 21
17.4485
  0
LINE
  8
0
 10
16.5539
 20
17.4485
 11
16.8485
 21
17.2345
  0
LINE
  8
0
 10
16.8485
 20
17.2345
 11
17.114
 21
16.9852
  0
LINE
  8
0
 10
17.114
 20
16.9852
 11
17.3461
 21
16.7046
  0
LINE
  8
0
 10
17.3461
 20
16.7046
 11
17.5413
 21
16.3971
  0
LINE
  8
0
 10
17.5413
 20
16.3971
 11
17.6964
 21
16.0676
  0
LINE
  8
0
 10
17.6964
 20
16.0676
 11
17.8089
 21
15.7212
  0
LINE
  8
0
 10
17.8089
 20
15.7212
 11
17.8771
 21
15.3635
  0
LINE
  8
0
 10
17.8771
 20
15.3635
 11
17.9
 21
15
  0
LINE
  8
0
 10
17.9
 20
15
 11
17.8771
 21
14.6365
  0
LINE
  8
0
 10
17.8771
 20
14.6365
 11
17.8089
 21
14.2788
  0
LINE
  8
0
 10
17.8089
 20
14.2788
 11
17.6964
 21
13.9324
  0
LINE
  8
0
 10
17.6964
 20
13.9324
 11
17.5413
 21
13.6029
  0
LINE
  8
0
 10
17.5413
 20
13.6029
 11
17.3461
 21
13.2954
  0
LINE
  8
0
 10
17.3461
 20
13.2954
 11
17.114
 21
13.0148
  0
LINE
  8
0
 10
17.114
 20
13.0148
 11
16.8485
 21
12.7655
  0
LINE
  8
0
 10
16.8485
 20
12.7655
 11
16.5539
 21
12.5514
  0
LINE
  8
0
 10
16.5539
 20
12.5514
 11
16.2348
 21
12.376
  0
LINE
  8
0
 10
16.2348
 20
12.376
 11
15.8961
 21
12.2419
  0
LINE
  8
0
 10
15.8961
 20
12.2419
 11
15.5434
 21
12.1514
  0
LINE
  8
0
 10
15.5434
 20
12.1514
 11
15.1821
 21
12.1057
  0
LINE
  8
0
 10
15.1821
 20
12.1057
 11
14.8179
 21
12.1057
  0
LINE
  8
0
 10
-0.172668
 20
12.2554
 11
-0.515289
 21
12.2987
  0
LINE
  8
0
 10
-0.515289
 20
12.2987
 11
-0.849792
 21
12.3846
  0
LINE
  8
0
 10
-0.849792
 20
12.3846
 11
-1.17088
 21
12.5117
  0
LINE
  8
0
 10
-1.17088
 20
12.5117
 11
-1.47351
 21
12.6781
  0
LINE
  8
0
 10
-1.47351
 20
12.6781
 11
-1.75291
 21
12.8811
  0
LINE
  8
0
 10
-1.75291
 20
12.8811
 11
-2.00465
 21
13.1175
  0
LINE
  8
0
 10
-2.00465
 20
13.1175
 11
-2.22479
 21
13.3836
  0
LINE
  8
0
 10
-2.22479
 20
13.3836
 11
-2.40984
 21
13.6752
  0
LINE
  8
0
 10
-2.40984
 20
13.6752
 11
-2.55688
 21
13.9877
  0
LINE
  8
0
 10
-2.55688
 20
13.9877
 11
-2.66359
 21
14.3161
  0
LINE
  8
0
 10
-2.66359
 20
14.3161
 11
-2.7283
 21
14.6553
  0
LINE
  8
0
 10
-2.7283
 20
14.6553
 11
-2.75
 21
15
  0
LINE
  8
0
 10
-2.75
 20
15
 11
-2.7283
 21
15.3447
  0
LINE
  8
0
 10
-2.7283
 20
15.3447
 11
-2.66359
 21
15.6839
  0
LINE
  8
0
 10
-2.66359
 20
15.6839
 11
-2.55688
 21
16.0123
  0
LINE
  8
0
 10
-2.55688
 20
16.0123
 11
-2.40984
 21
16.3248
  0
LINE
  8
0
 10
-2.40984
 20
16.3248
 11
-2.22479
 21
16.6164
  0
LINE
  8
0
 10
-2.22479
 20
16.6164
 11
-2.00465
 21
16.8825
  0
LINE
  8
0
 10
-2.00465
 20
16.8825
 11
-1.75291
 21
17.1189
  0
LINE
  8
0
 10
-1.75291
 20
17.1189
 11
-1.47351
 21
17.3219
  0
LINE
  8
0
 10
-1.47351
 20
17.3219
 11
-1.17088
 21
17.4883
  0
LINE
  8
0
 10
-1.17088
 20
17.4883
 11
-0.849792
 21
17.6154
  0
LINE
  8
0
 10
-0.849792
 20
17.6154
 11
-0.515289
 21
17.7013
  0
LINE
  8
0
 10
-0.515289
 20
17.7013
 11
-0.172668
 21
17.7446
  0
LINE
  8
0
 10
-0.172668
 20
17.7446
 11
0.172668
 21
17.7446
  0
LINE
  8
0
 10
0.172668
 20
17.7446
 11
0.515289
 21
17.7013
  0
LINE
  8
0
 10
0.515289
 20
17.7013
 11
0.849792
 21
17.6154
  0
LINE
  8
0
 10
0.849792
 20
17.6154
 11
1.17088
 21
17.4883
  0
LINE
  8
0
 10
1.17088
 20
17.4883
 11
1.47351
 21
17.3219
  0
LINE
  8
0
 10
1.47351
 20
17.3219
 11
1.75291
 21
17.1189
  0
LINE
  8
0
 10
1.75291
 20
17.1189
 11
2.00465
 21
16.8825
  0
LINE
  8
0
 10
2.00465
 20
16.8825
 11
2.22479
 21
16.6164
  0
LINE
  8
0
 10
2.22479
 20
16.6164
 11
2.40984
 21
16.3248
  0
LINE
  8
0
 10
2.40984
 20
16.3248
 11
2.55688
 21
16.0123
  0
LINE
  8
0
 10
2.55688
 20
16.0123
 11
2.66359
 21
15.6839
  0
LINE
  8
0
 10
2.66359
 20
15.6839
 11
2.7283
 21
15.3447
  0
LINE
  8
0
 10
2.7283
 20
15.3447
 11
2.75
 21
15
  0
LINE
  8
0
 10
2.75
 20
15
 11
2.7283
 21
14.6553
  0
LINE
  8
0
 10
2.7283
 20
14.6553
 11
2.66359
 21
14.3161
  0
LINE
  8
0
 10
2.66359
 20
14.3161
 11
2.55688
 21
13.9877
  0
LINE
  8
0
 10
2.55688
 20
13.9877
 11
2.40984
 21
13.6752
  0
LINE
  8
0
 10
2.40984
 20
13.6752
 11
2.22479
 21
13.3836
  0
LINE
  8
0
 10
2.22479
 20
13.3836
 11
2.00465
 21
13.1175
  0
LINE
  8
0
 10
2.00465
 20
13.1175
 11
1.75291
 21
12.8811
  0
LINE
  8
0
 10
1.75291
 20
12.8811
 11
1.47351
 21
12.6781
  0
LINE
  8
0
 10
1.47351
 20
12.6781
 11
1.17088
 21
12.5117
  0
LINE
  8
0
 10
1.17088
 20
12.5117
 11
0.849792
 21
12.3846
  0
LINE
  8
0
 10
0.849792
 20
12.3846
 11
0.515289
 21
12.2987
  0
LINE
  8
0
 10
0.515289
 20
12.2987
 11
0.172668
 21
12.2554
  0
LINE
  8
0
 10
0.172668
 20
12.2554
 11
-0.172668
 21
12.2554
  0
LINE
  8
0
 10
-15.1633
 20
12.4051
 11
-15.4872
 21
12.446
  0
LINE
  8
0
 10
-15.4872
 20
12.446
 11
-15.8034
 21
12.5273
  0
LINE
  8
0
 10
-15.8034
 20
12.5273
 11
-16.107
 21
12.6474
  0
LINE
  8
0
 10
-16.107
 20
12.6474
 11
-16.3931
 21
12.8047
  0
LINE
  8
0
 10
-16.3931
 20
12.8047
 11
-16.6573
 21
12.9967
  0
LINE
  8
0
 10
-16.6573
 20
12.9967
 11
-16.8953
 21
13.2202
  0
LINE
  8
0
 10
-16.8953
 20
13.2202
 11
-17.1034
 21
13.4718
  0
LINE
  8
0
 10
-17.1034
 20
13.4718
 11
-17.2784
 21
13.7474
  0
LINE
  8
0
 10
-17.2784
 20
13.7474
 11
-17.4174
 21
14.0429
  0
LINE
  8
0
 10
-17.4174
 20
14.0429
 11
-17.5183
 21
14.3534
  0
LINE
  8
0
 10
-17.5183
 20
14.3534
 11
-17.5795
 21
14.6741
  0
LINE
  8
0
 10
-17.5795
 20
14.6741
 11
-17.6
 21
15
  0
LINE
  8
0
 10
-17.6
 20
15
 11
-17.5795
 21
15.3259
  0
LINE
  8
0
 10
-17.5795
 20
15.3259
 11
-17.5183
 21
15.6466
  0
LINE
  8
0
 10
-17.5183
 20
15.6466
 11
-17.4174
 21
15.9571
  0
LINE
  8
0
 10
-17.4174
 20
15.9571
 11
-17.2784
 21
16.2525
  0
LINE
  8
0
 10
-17.2784
 20
16.2525
 11
-17.1034
 21
16.5282
  0
LINE
  8
0
 10
-17.1034
 20
16.5282
 11
-16.8953
 21
16.7798
  0
LINE
  8
0
 10
-16.8953
 20
16.7798
 11
-16.6573
 21
17.0033
  0
LINE
  8
0
 10
-16.6573
 20
17.0033
 11
-16.3931
 21
17.1953
  0
LINE
  8
0
 10
-16.3931
 20
17.1953
 11
-16.107
 21
17.3525
  0
LINE
  8
0
 10
-16.107
 20
17.3525
 11
-15.8034
 21
17.4727
  0
LINE
  8
0
 10
-15.8034
 20
17.4727
 11
-15.4872
 21
17.5539
  0
LINE
  8
0
 10
-15.4872
 20
17.5539
 11
-15.1633
 21
17.5949
  0
LINE
  8
0
 10
-15.1633
 20
17.5949
 11
-14.8367
 21
17.5949
  0
LINE
  8
0
 10
-14.8367
 20
17.5949
 11
-14.5128
 21
17.5539
  0
LINE
  8
0
 10
-14.5128
 20
17.5539
 11
-14.1965
 21
17.4727
  0
LINE
  8
0
 10
-14.1965
 20
17.4727
 11
-13.893
 21
17.3525
  0
LINE
  8
0
 10
-13.893
 20
17.3525
 11
-13.6068
 21
17.1953
  0
LINE
  8
0
 10
-13.6068
 20
17.1953
 11
-13.3427
 21
17.0033
  0
LINE
  8
0
 10
-13.3427
 20
17.0033
 11
-13.1047
 21
16.7798
  0
LINE
  8
0
 10
-13.1047
 20
16.7798
 11
-12.8965
 21
16.5282
  0
LINE
  8
0
 10
-12.8965
 20
16.5282
 11
-12.7216
 21
16.2525
  0
LINE
  8
0
 10
-12.7216
 20
16.2525
 11
-12.5826
 21
15.9571
  0
LINE
  8
0
 10
-12.5826
 20
15.9571
 11
-12.4817
 21
15.6466
  0
LINE
  8
0
 10
-12.4817
 20
15.6466
 11
-12.4205
 21
15.3259
  0
LINE
  8
0
 10
-12.4205
 20
15.3259
 11
-12.4
 21
15
  0
LINE
  8
0
 10
-12.4
 20
15
 11
-12.4205
 21
14.6741
  0
LINE
  8
0
 10
-12.4205
 20
14.6741
 11
-12.4817
 21
14.3534
  0
LINE
  8
0
 10
-12.4817
 20
14.3534
 11
-12.5826
 21
14.0429
  0
LINE
  8
0
 10
-12.5826
 20
14.0429
 11
-12.7216
 21
13.7474
  0
LINE
  8
0
 10
-12.7216
 20
13.7474
 11
-12.8965
 21
13.4718
  0
LINE
  8
0
 10
-12.8965
 20
13.4718
 11
-13.1047
 21
13.2202
  0
LINE
  8
0
 10
-13.1047
 20
13.2202
 11
-13.3427
 21
12.9967
  0
LINE
  8
0
 10
-13.3427
 20
12.9967
 11
-13.6068
 21
12.8047
  0
LINE
  8
0
 10
-13.6068
 20
12.8047
 11
-13.893
 21
12.6474
  0
LINE
  8
0
 10
-13.893
 20
12.6474
 11
-14.1965
 21
12.5273
  0
LINE
  8
0
 10
-14.1965
 20
12.5273
 11
-14.5128
 21
12.446
  0
LINE
  8
0
 10
-14.5128
 20
12.446
 11
-14.8367
 21
12.4051
  0
LINE
  8
0
 10
-14.8367
 20
12.4051
 11
-15.1633
 21
12.4051
  0
LINE
  8
0
 10
14.821
 20
-2.84438
 11
14.466
 21
-2.79951
  0
LINE
  8
0
 10
14.466
 20
-2.79951
 11
14.1193
 21
-2.71051
  0
LINE
  8
0
 10
14.1193
 20
-2.71051
 11
13.7865
 21
-2.57875
  0
LINE
  8
0
 10
13.7865
 20
-2.57875
 11
13.4729
 21
-2.40633
  0
LINE
  8
0
 10
13.4729
 20
-2.40633
 11
13.1833
 21
-2.19595
  0
LINE
  8
0
 10
13.1833
 20
-2.19595
 11
12.9224
 21
-1.95096
  0
LINE
  8
0
 10
12.9224
 20
-1.95096
 11
12.6943
 21
-1.67519
  0
LINE
  8
0
 10
12.6943
 20
-1.67519
 11
12.5025
 21
-1.37299
  0
LINE
  8
0
 10
12.5025
 20
-1.37299
 11
12.3501
 21
-1.04915
  0
LINE
  8
0
 10
12.3501
 20
-1.04915
 11
12.2395
 21
-0.708755
  0
LINE
  8
0
 10
12.2395
 20
-0.708755
 11
12.1725
 21
-0.357193
  0
LINE
  8
0
 10
12.1725
 20
-0.357193
 11
12.15
 21
0
  0
LINE
  8
0
 10
12.15
 20
0
 11
12.1725
 21
0.357193
  0
LINE
  8
0
 10
12.1725
 20
0.357193
 11
12.2395
 21
0.708755
  0
LINE
  8
0
 10
12.2395
 20
0.708755
 11
12.3501
 21
1.04915
  0
LINE
  8
0
 10
12.3501
 20
1.04915
 11
12.5025
 21
1.37299
  0
LINE
  8
0
 10
12.5025
 20
1.37299
 11
12.6943
 21
1.67519
  0
LINE
  8
0
 10
12.6943
 20
1.67519
 11
12.9224
 21
1.95096
  0
LINE
  8
0
 10
12.9224
 20
1.95096
 11
13.1833
 21
2.19595
  0
LINE
  8
0
 10
13.1833
 20
2.19595
 11
13.4729
 21
2.40633
  0
LINE
  8
0
 10
13.4729
 20
2.40633
 11
13.7865
 21
2.57875
  0
LINE
  8
0
 10
13.7865
 20
2.57875
 11
14.1193
 21
2.71051
  0
LINE
  8
0
 10
14.1193
 20
2.71051
 11
14.466
 21
2.79951
  0
LINE
  8
0
 10
14.466
 20
2.79951
 11
14.821
 21
2.84438
  0
LINE
  8
0
 10
14.821
 20
2.84438
 11
15.1789
 21
2.84438
  0
LINE
  8
0
 10
15.1789
 20
2.84438
 11
15.534
 21
2.79951
  0
LINE
  8
0
 10
15.534
 20
2.79951
 11
15.8807
 21
2.71051
  0
LINE
  8
0
 10
15.8807
 20
2.71051
 11
16.2135
 21
2.57875
  0
LINE
  8
0
 10
16.2135
 20
2.57875
 11
16.5271
 21
2.40633
  0
LINE
  8
0
 10
16.5271
 20
2.40633
 11
16.8167
 21
2.19595
  0
LINE
  8
0
 10
16.8167
 20
2.19595
 11
17.0776
 21
1.95096
  0
LINE
  8
0
 10
17.0776
 20
1.95096
 11
17.3057
 21
1.67519
  0
LINE
  8
0
 10
17.3057
 20
1.67519
 11
17.4975
 21
1.37299
  0
LINE
  8
0
 10
17.4975
 20
1.37299
 11
17.6499
 21
1.04915
  0
LINE
  8
0
 10
17.6499
 20
1.04915
 11
17.7605
 21
0.708755
  0
LINE
  8
0
 10
17.7605
 20
0.708755
 11
17.8275
 21
0.357193
  0
LINE
  8
0
 10
17.8275
 20
0.357193
 11
17.85
 21
0
  0
LINE
  8
0
 10
17.85
 20
0
 11
17.8275
 21
-0.357193
  0
LINE
  8
0
 10
17.8275
 20
-0.357193
 11
17.7605
 21
-0.708755
  0
LINE
  8
0
 10
17.7605
 20
-0.708755
 11
17.6499
 21
-1.04915
  0
LINE
  8
0
 10
17.6499
 20
-1.04915
 11
17.4975
 21
-1.37299
  0
LINE
  8
0
 10
17.4975
 20
-1.37299
 11
17.3057
 21
-1.67519
  0
LINE
  8
0
 10
17.3057
 20
-1.67519
 11
17.0776
 21
-1.95096
  0
LINE
  8
0
 10
17.0776
 20
-1.95096
 11
16.8167
 21
-2.19595
  0
LINE
  8
0
 10
16.8167
 20
-2.19595
 11
16.5271
 21
-2.40633
  0
LINE
  8
0
 10
16.5271
 20
-2.40633
 11
16.2135
 21
-2.57875
  0
LINE
  8
0
 10
16.2135
 20
-2.57875
 11
15.8807
 21
-2.71051
  0
LINE
  8
0
 10
15.8807
 20
-2.71051
 11
15.534
 21
-2.79951
  0
LINE
  8
0
 10
15.534
 20
-2.79951
 11
15.1789
 21
-2.84438
  0
LINE
  8
0
 10
15.1789
 20
-2.84438
 11
14.821
 21
-2.84438
  0
LINE
  8
0
 10
-0.169525
 20
-2.69467
 11
-0.50592
 21
-2.65216
  0
LINE
  8
0
 10
-0.50592
 20
-2.65216
 11
-0.834335
 21
-2.56784
  0
LINE
  8
0
 10
-0.834335
 20
-2.56784
 11
-1.1496
 21
-2.44302
  0
LINE
  8
0
 10
-1.1496
 20
-2.44302
 11
-1.44673
 21
-2.27968
  0
LINE
  8
0
 10
-1.44673
 20
-2.27968
 11
-1.72104
 21
-2.08038
  0
LINE
  8
0
 10
-1.72104
 20
-2.08038
 11
-1.9682
 21
-1.84827
  0
LINE
  8
0
 10
-1.9682
 20
-1.84827
 11
-2.18434
 21
-1.58701
  0
LINE
  8
0
 10
-2.18434
 20
-1.58701
 11
-2.36603
 21
-1.30072
  0
LINE
  8
0
 10
-2.36603
 20
-1.30072
 11
-2.51039
 21
-0.993927
  0
LINE
  8
0
 10
-2.51039
 20
-0.993927
 11
-2.61517
 21
-0.671448
  0
LINE
  8
0
 10
-2.61517
 20
-0.671448
 11
-2.6787
 21
-0.338394
  0
LINE
  8
0
 10
-2.6787
 20
-0.338394
 11
-2.7
 21
0
  0
LINE
  8
0
 10
-2.7
 20
0
 11
-2.6787
 21
0.338394
  0
LINE
  8
0
 10
-2.6787
 20
0.338394
 11
-2.61517
 21
0.671448
  0
LINE
  8
0
 10
-2.61517
 20
0.671448
 11
-2.51039
 21
0.993927
  0
LINE
  8
0
 10
-2.51039
 20
0.993927
 11
-2.36603
 21
1.30072
  0
LINE
  8
0
 10
-2.36603
 20
1.30072
 11
-2.18434
 21
1.58701
  0
LINE
  8
0
 10
-2.18434
 20
1.58701
 11
-1.9682
 21
1.84827
  0
LINE
  8
0
 10
-1.9682
 20
1.84827
 11
-1.72104
 21
2.08038
  0
LINE
  8
0
 10
-1.72104
 20
2.08038
 11
-1.44673
 21
2.27968
  0
LINE
  8
0
 10
-1.44673
 20
2.27968
 11
-1.1496
 21
2.44302
  0
LINE
  8
0
 10
-1.1496
 20
2.44302
 11
-0.834335
 21
2.56784
  0
LINE
  8
0
 10
-0.834335
 20
2.56784
 11
-0.50592
 21
2.65216
  0
LINE
  8
0
 10
-0.50592
 20
2.65216
 11
-0.169525
 21
2.69467
  0
LINE
  8
0
 10
-0.169525
 20
2.69467
 11
0.169525
 21
2.69467
  0
LINE
  8
0
 10
0.169525
 20
2.69467
 11
0.50592
 21
2.65216
  0
LINE
  8
0
 10
0.50592
 20
2.65216
 11
0.834335
 21
2.56784
  0
LINE
  8
0
 10
0.834335
 20
2.56784
 11
1.1496
 21
2.44302
  0
LINE
  8
0
 10
1.1496
 20
2.44302
 11
1.44673
 21
2.27968
  0
LINE
  8
0
 10
1.44673
 20
2.27968
 11
1.72104
 21
2.08038
  0
LINE
  8
0
 10
1.72104
 20
2.08038
 11
1.9682
 21
1.84827
  0
LINE
  8
0
 10
1.9682
 20
1.84827
 11
2.18434
 21
1.58701
  0
LINE
  8
0
 10
2.18434
 20
1.58701
 11
2.36603
 21
1.30072
  0
LINE
  8
0
 10
2.36603
 20
1.30072
 11
2.51039
 21
0.993927
  0
LINE
  8
0
 10
2.51039
 20
0.993927
 11
2.61517
 21
0.671448
  0
LINE
  8
0
 10
2.61517
 20
0.671448
 11
2.6787
 21
0.338394
  0
LINE
  8
0
 10
2.6787
 20
0.338394
 11
2.7
 21
0
  0
LINE
  8
0
 10
2.7
 20
0
 11
2.6787
 21
-0.338394
  0
LINE
  8
0
 10
2.6787
 20
-0.338394
 11
2.61517
 21
-0.671448
  0
LINE
  8
0
 10
2.61517
 20
-0.671448
 11
2.51039
 21
-0.993927
  0
LINE
  8
0
 10
2.51039
 20
-0.993927
 11
2.36603
 21
-1.30072
  0
LINE
  8
0
 10
2.36603
 20
-1.30072
 11
2.18434
 21
-1.58701
  0
LINE
  8
0
 10
2.18434
 20
-1.58701
 11
1.9682
 21
-1.84827
  0
LINE
  8
0
 10
1.9682
 20
-1.84827
 11
1.72104
 21
-2.08038
  0
LINE
  8
0
 10
1.72104
 20
-2.08038
 11
1.44673
 21
-2.27968
  0
LINE
  8
0
 10
1.44673
 20
-2.27968
 11
1.1496
 21
-2.44302
  0
LINE
  8
0
 10
1.1496
 20
-2.44302
 11
0.834335
 21
-2.56784
  0
LINE
  8
0
 10
0.834335
 20
-2.56784
 11
0.50592
 21
-2.65216
  0
LINE
  8
0
 10
0.50592
 20
-2.65216
 11
0.169525
 21
-2.69467
  0
LINE
  8
0
 10
0.169525
 20
-2.69467
 11
-0.169525
 21
-2.69467
  0
LINE
  8
0
 10
-15.1601
 20
-2.54497
 11
-15.4778
 21
-2.50482
  0
LINE
  8
0
 10
-15.4778
 20
-2.50482
 11
-15.788
 21
-2.42519
  0
LINE
  8
0
 10
-15.788
 20
-2.42519
 11
-16.0857
 21
-2.3073
  0
LINE
  8
0
 10
-16.0857
 20
-2.3073
 11
-16.3663
 21
-2.15303
  0
LINE
  8
0
 10
-16.3663
 20
-2.15303
 11
-16.6254
 21
-1.9648
  0
LINE
  8
0
 10
-16.6254
 20
-1.9648
 11
-16.8589
 21
-1.74559
  0
LINE
  8
0
 10
-16.8589
 20
-1.74559
 11
-17.063
 21
-1.49884
  0
LINE
  8
0
 10
-17.063
 20
-1.49884
 11
-17.2346
 21
-1.22847
  0
LINE
  8
0
 10
-17.2346
 20
-1.22847
 11
-17.3709
 21
-0.938705
  0
LINE
  8
0
 10
-17.3709
 20
-0.938705
 11
-17.4699
 21
-0.634155
  0
LINE
  8
0
 10
-17.4699
 20
-0.634155
 11
-17.5299
 21
-0.319595
  0
LINE
  8
0
 10
-17.5299
 20
-0.319595
 11
-17.55
 21
0
  0
LINE
  8
0
 10
-17.55
 20
0
 11
-17.5299
 21
0.319595
  0
LINE
  8
0
 10
-17.5299
 20
0.319595
 11
-17.4699
 21
0.634155
  0
LINE
  8
0
 10
-17.4699
 20
0.634155
 11
-17.3709
 21
0.938705
  0
LINE
  8
0
 10
-17.3709
 20
0.938705
 11
-17.2346
 21
1.22847
  0
LINE
  8
0
 10
-17.2346
 20
1.22847
 11
-17.063
 21
1.49884
  0
LINE
  8
0
 10
-17.063
 20
1.49884
 11
-16.8589
 21
1.74559
  0
LINE
  8
0
 10
-16.8589
 20
1.74559
 11
-16.6254
 21
1.9648
  0
LINE
  8
0
 10
-16.6254
 20
1.9648
 11
-16.3663
 21
2.15303
  0
LINE
  8
0
 10
-16.3663
 20
2.15303
 11
-16.0857
 21
2.3073
  0
LINE
  8
0
 10
-16.0857
 20
2.3073
 11
-15.788
 21
2.42519
  0
LINE
  8
0
 10
-15.788
 20
2.42519
 11
-15.4778
 21
2.50482
  0
LINE
  8
0
 10
-15.4778
 20
2.50482
 11
-15.1601
 21
2.54497
  0
LINE
  8
0
 10
-15.1601
 20
2.54497
 11
-14.8399
 21
2.54497
  0
LINE
  8
0
 10
-14.8399
 20
2.54497
 11
-14.5222
 21
2.50482
  0
LINE
  8
0
 10
-14.5222
 20
2.50482
 11
-14.212
 21
2.42519
  0
LINE
  8
0
 10
-14.212
 20
2.42519
 11
-13.9143
 21
2.3073
  0
LINE
  8
0
 10
-13.9143
 20
2.3073
 11
-13.6336
 21
2.15303
  0
LINE
  8
0
 10
-13.6336
 20
2.15303
 11
-13.3746
 21
1.9648
  0
LINE
  8
0
 10
-13.3746
 20
1.9648
 11
-13.1411
 21
1.74559
  0
LINE
  8
0
 10
-13.1411
 20
1.74559
 11
-12.937
 21
1.49884
  0
LINE
  8
0
 10
-12.937
 20
1.49884
 11
-12.7654
 21
1.22847
  0
LINE
  8
0
 10
-12.7654
 20
1.22847
 11
-12.6291
 21
0.938705
  0
LINE
  8
0
 10
-12.6291
 20
0.938705
 11
-12.5301
 21
0.634155
  0
LINE
  8
0
 10
-12.5301
 20
0.634155
 11
-12.4701
 21
0.319595
  0
LINE
  8
0
 10
-12.4701
 20
0.319595
 11
-12.45
 21
0
  0
LINE
  8
0
 10
-12.45
 20
0
 11
-12.4701
 21
-0.319595
  0
LINE
  8
0
 10
-12.4701
 20
-0.319595
 11
-12.5301
 21
-0.634155
  0
LINE
  8
0
 10
-12.5301
 20
-0.634155
 11
-12.6291
 21
-0.938705
  0
LINE
  8
0
 10
-12.6291
 20
-0.938705
 11
-12.7654
 21
-1.22847
  0
LINE
  8
0
 10
-12.7654
 20
-1.22847
 11
-12.937
 21
-1.49884
  0
LINE
  8
0
 10
-12.937
 20
-1.49884
 11
-13.1411
 21
-1.74559
  0
LINE
  8
0
 10
-13.1411
 20
-1.74559
 11
-13.3746
 21
-1.9648
  0
LINE
  8
0
 10
-13.3746
 20
-1.9648
 11
-13.6336
 21
-2.15303
  0
LINE
  8
0
 10
-13.6336
 20
-2.15303
 11
-13.9143
 21
-2.3073
  0
LINE
  8
0
 10
-13.9143
 20
-2.3073
 11
-14.212
 21
-2.42519
  0
LINE
  8
0
 10
-14.212
 20
-2.42519
 11
-14.5222
 21
-2.50482
  0
LINE
  8
0
 10
-14.5222
 20
-2.50482
 11
-14.8399
 21
-2.54497
  0
LINE
  8
0
 10
-14.8399
 20
-2.54497
 11
-15.1601
 21
-2.54497
  0
LINE
  8
0
 10
14.8242
 20
-17.7945
 11
14.4753
 21
-17.7504
  0
LINE
  8
0
 10
14.4753
 20
-17.7504
 11
14.1348
 21
-17.6629
  0
LINE
  8
0
 10
14.1348
 20
-17.6629
 11
13.8078
 21
-17.5335
  0
LINE
  8
0
 10
13.8078
 20
-17.5335
 11
13.4997
 21
-17.3641
  0
LINE
  8
0
 10
13.4997
 20
-17.3641
 11
13.2152
 21
-17.1574
  0
LINE
  8
0
 10
13.2152
 20
-17.1574
 11
12.9589
 21
-16.9167
  0
LINE
  8
0
 10
12.9589
 20
-16.9167
 11
12.7347
 21
-16.6458
  0
LINE
  8
0
 10
12.7347
 20
-16.6458
 11
12.5463
 21
-16.3489
  0
LINE
  8
0
 10
12.5463
 20
-16.3489
 11
12.3966
 21
-16.0307
  0
LINE
  8
0
 10
12.3966
 20
-16.0307
 11
12.288
 21
-15.6963
  0
LINE
  8
0
 10
12.288
 20
-15.6963
 11
12.2221
 21
-15.3509
  0
LINE
  8
0
 10
12.2221
 20
-15.3509
 11
12.2
 21
-15
  0
LINE
  8
0
 10
12.2
 20
-15
 11
12.2221
 21
-14.6491
  0
LINE
  8
0
 10
12.2221
 20
-14.6491
 11
12.288
 21
-14.3037
  0
LINE
  8
0
 10
12.288
 20
-14.3037
 11
12.3966
 21
-13.9692
  0
LINE
  8
0
 10
12.3966
 20
-13.9692
 11
12.5463
 21
-13.6511
  0
LINE
  8
0
 10
12.5463
 20
-13.6511
 11
12.7347
 21
-13.3542
  0
LINE
  8
0
 10
12.7347
 20
-13.3542
 11
12.9589
 21
-13.0833
  0
LINE
  8
0
 10
12.9589
 20
-13.0833
 11
13.2152
 21
-12.8426
  0
LINE
  8
0
 10
13.2152
 20
-12.8426
 11
13.4997
 21
-12.6359
  0
LINE
  8
0
 10
13.4997
 20
-12.6359
 11
13.8078
 21
-12.4665
  0
LINE
  8
0
 10
13.8078
 20
-12.4665
 11
14.1348
 21
-12.337
  0
LINE
  8
0
 10
14.1348
 20
-12.337
 11
14.4753
 21
-12.2496
  0
LINE
  8
0
 10
14.4753
 20
-12.2496
 11
14.8242
 21
-12.2055
  0
LINE
  8
0
 10
14.8242
 20
-12.2055
 11
15.1758
 21
-12.2055
  0
LINE
  8
0
 10
15.1758
 20
-12.2055
 11
15.5247
 21
-12.2496
  0
LINE
  8
0
 10
15.5247
 20
-12.2496
 11
15.8652
 21
-12.337
  0
LINE
  8
0
 10
15.8652
 20
-12.337
 11
16.1922
 21
-12.4665
  0
LINE
  8
0
 10
16.1922
 20
-12.4665
 11
16.5003
 21
-12.6359
  0
LINE
  8
0
 10
16.5003
 20
-12.6359
 11
16.7848
 21
-12.8426
  0
LINE
  8
0
 10
16.7848
 20
-12.8426
 11
17.0411
 21
-13.0833
  0
LINE
  8
0
 10
17.0411
 20
-13.0833
 11
17.2652
 21
-13.3542
  0
LINE
  8
0
 10
17.2652
 20
-13.3542
 11
17.4537
 21
-13.6511
  0
LINE
  8
0
 10
17.4537
 20
-13.6511
 11
17.6034
 21
-13.9692
  0
LINE
  8
0
 10
17.6034
 20
-13.9692
 11
17.712
 21
-14.3037
  0
LINE
  8
0
 10
17.712
 20
-14.3037
 11
17.7779
 21
-14.6491
  0
LINE
  8
0
 10
17.7779
 20
-14.6491
 11
17.8
 21
-15
  0
LINE
  8
0
 10
17.8
 20
-15
 11
17.7779
 21
-15.3509
  0
LINE
  8
0
 10
17.7779
 20
-15.3509
 11
17.712
 21
-15.6963
  0
LINE
  8
0
 10
17.712
 20
-15.6963
 11
17.6034
 21
-16.0307
  0
LINE
  8
0
 10
17.6034
 20
-16.0307
 11
17.4537
 21
-16.3489
  0
LINE
  8
0
 10
17.4537
 20
-16.3489
 11
17.2652
 21
-16.6458
  0
LINE
  8
0
 10
17.2652
 20
-16.6458
 11
17.0411
 21
-16.9167
  0
LINE
  8
0
 10
17.0411
 20
-16.9167
 11
16.7848
 21
-17.1574
  0
LINE
  8
0
 10
16.7848
 20
-17.1574
 11
16.5003
 21
-17.3641
  0
LINE
  8
0
 10
16.5003
 20
-17.3641
 11
16.1922
 21
-17.5335
  0
LINE
  8
0
 10
16.1922
 20
-17.5335
 11
15.8652
 21
-17.6629
  0
LINE
  8
0
 10
15.8652
 20
-17.6629
 11
15.5247
 21
-17.7504
  0
LINE
  8
0
 10
15.5247
 20
-17.7504
 11
15.1758
 21
-17.7945
  0
LINE
  8
0
 10
15.1758
 20
-17.7945
 11
14.8242
 21
-17.7945
  0
LINE
  8
0
 10
-0.166382
 20
-17.6448
 11
-0.496552
 21
-17.6031
  0
LINE
  8
0
 10
-0.496552
 20
-17.6031
 11
-0.818893
 21
-17.5203
  0
LINE
  8
0
 10
-0.818893
 20
-17.5203
 11
-1.12831
 21
-17.3978
  0
LINE
  8
0
 10
-1.12831
 20
-17.3978
 11
-1.41994
 21
-17.2375
  0
LINE
  8
0
 10
-1.41994
 20
-17.2375
 11
-1.68916
 21
-17.0419
  0
LINE
  8
0
 10
-1.68916
 20
-17.0419
 11
-1.93176
 21
-16.814
  0
LINE
  8
0
 10
-1.93176
 20
-16.814
 11
-2.14389
 21
-16.5576
  0
LINE
  8
0
 10
-2.14389
 20
-16.5576
 11
-2.3222
 21
-16.2766
  0
LINE
  8
0
 10
-2.3222
 20
-16.2766
 11
-2.4639
 21
-15.9755
  0
LINE
  8
0
 10
-2.4639
 20
-15.9755
 11
-2.56674
 21
-15.659
  0
LINE
  8
0
 10
-2.56674
 20
-15.659
 11
-2.62909
 21
-15.3321
  0
LINE
  8
0
 10
-2.62909
 20
-15.3321
 11
-2.64999
 21
-15
  0
LINE
  8
0
 10
-2.64999
 20
-15
 11
-2.62909
 21
-14.6679
  0
LINE
  8
0
 10
-2.62909
 20
-14.6679
 11
-2.56674
 21
-14.341
  0
LINE
  8
0
 10
-2.56674
 20
-14.341
 11
-2.4639
 21
-14.0245
  0
LINE
  8
0
 10
-2.4639
 20
-14.0245
 11
-2.3222
 21
-13.7233
  0
LINE
  8
0
 10
-2.3222
 20
-13.7233
 11
-2.14389
 21
-13.4424
  0
LINE
  8
0
 10
-2.14389
 20
-13.4424
 11
-1.93176
 21
-13.1859
  0
LINE
  8
0
 10
-1.93176
 20
-13.1859
 11
-1.68916
 21
-12.9581
  0
LINE
  8
0
 10
-1.68916
 20
-12.9581
 11
-1.41994
 21
-12.7625
  0
LINE
  8
0
 10
-1.41994
 20
-12.7625
 11
-1.12831
 21
-12.6022
  0
LINE
  8
0
 10
-1.12831
 20
-12.6022
 11
-0.818893
 21
-12.4797
  0
LINE
  8
0
 10
-0.818893
 20
-12.4797
 11
-0.496552
 21
-12.3969
  0
LINE
  8
0
 10
-0.496552
 20
-12.3969
 11
-0.166382
 21
-12.3552
  0
LINE
  8
0
 10
-0.166382
 20
-12.3552
 11
0.166382
 21
-12.3552
  0
LINE
  8
0
 10
0.166382
 20
-12.3552
 11
0.496552
 21
-12.3969
  0
LINE
  8
0
 10
0.496552
 20
-12.3969
 11
0.818893
 21
-12.4797
  0
LINE
  8
0
 10
0.818893
 20
-12.4797
 11
1.12831
 21
-12.6022
  0
LINE
  8
0
 10
1.12831
 20
-12.6022
 11
1.41994
 21
-12.7625
  0
LINE
  8
0
 10
1.41994
 20
-12.7625
 11
1.68916
 21
-12.9581
  0
LINE
  8
0
 10
1.68916
 20
-12.9581
 11
1.93176
 21
-13.1859
  0
LINE
  8
0
 10
1.93176
 20
-13.1859
 11
2.14389
 21
-13.4424
  0
LINE
  8
0
 10
2.14389
 20
-13.4424
 11
2.3222
 21
-13.7233
  0
LINE
  8
0
 10
2.3222
 20
-13.7233
 11
2.4639
 21
-14.0245
  0
LINE
  8
0
 10
2.4639
 20
-14.0245
 11
2.56674
 21
-14.341
  0
LINE
  8
0
 10
2.56674
 20
-14.341
 11
2.62909
 21
-14.6679
  0
LINE
  8
0
 10
2.62909
 20
-14.6679
 11
2.64999
 21
-15
  0
LINE
  8
0
 10
2.64999
 20
-15
 11
2.62909
 21
-15.3321
  0
LINE
  8
0
 10
2.62909
 20
-15.3321
 11
2.56674
 21
-15.659
  0
LINE
  8
0
 10
2.56674
 20
-15.659
 11
2.4639
 21
-15.9755
  0
LINE
  8
0
 10
2.4639
 20
-15.9755
 11
2.3222
 21
-16.2766
  0
LINE
  8
0
 10
2.3222
 20
-16.2766
 11
2.14389
 21
-16.5576
  0
LINE
  8
0
 10
2.14389
 20
-16.5576
 11
1.93176
 21
-16.814
  0
LINE
  8
0
 10
1.93176
 20
-16.814
 11
1.68916
 21
-17.0419
  0
LINE
  8
0
 10
1.68916
 20
-17.0419
 11
1.41994
 21
-17.2375
  0
LINE
  8
0
 10
1.41994
 20
-17.2375
 11
1.12831
 21
-17.3978
  0
LINE
  8
0
 10
1.12831
 20
-17.3978
 11
0.818893
 21
-17.5203
  0
LINE
  8
0
 10
0.818893
 20
-17.5203
 11
0.496552
 21
-17.6031
  0
LINE
  8
0
 10
0.496552
 20
-17.6031
 11
0.166382
 21
-17.6448
  0
LINE
  8
0
 10
0.166382
 20
-17.6448
 11
-0.166382
 21
-17.6448
  0
LINE
  8
0
 10
-15.157
 20
-17.4951
 11
-15.4684
 21
-17.4557
  0
LINE
  8
0
 10
-15.4684
 20
-17.4557
 11
-15.7725
 21
-17.3776
  0
LINE
  8
0
 10
-15.7725
 20
-17.3776
 11
-16.0644
 21
-17.2621
  0
LINE
  8
0
 10
-16.0644
 20
-17.2621
 11
-16.3396
 21
-17.1108
  0
LINE
  8
0
 10
-16.3396
 20
-17.1108
 11
-16.5936
 21
-16.9263
  0
LINE
  8
0
 10
-16.5936
 20
-16.9263
 11
-16.8224
 21
-16.7114
  0
LINE
  8
0
 10
-16.8224
 20
-16.7114
 11
-17.0225
 21
-16.4695
  0
LINE
  8
0
 10
-17.0225
 20
-16.4695
 11
-17.1908
 21
-16.2044
  0
LINE
  8
0
 10
-17.1908
 20
-16.2044
 11
-17.3244
 21
-15.9203
  0
LINE
  8
0
 10
-17.3244
 20
-15.9203
 11
-17.4214
 21
-15.6217
  0
LINE
  8
0
 10
-17.4214
 20
-15.6217
 11
-17.4803
 21
-15.3133
  0
LINE
  8
0
 10
-17.4803
 20
-15.3133
 11
-17.5
 21
-15
  0
LINE
  8
0
 10
-17.5
 20
-15
 11
-17.4803
 21
-14.6867
  0
LINE
  8
0
 10
-17.4803
 20
-14.6867
 11
-17.4214
 21
-14.3783
  0
LINE
  8
0
 10
-17.4214
 20
-14.3783
 11
-17.3244
 21
-14.0797
  0
LINE
  8
0
 10
-17.3244
 20
-14.0797
 11
-17.1908
 21
-13.7956
  0
LINE
  8
0
 10
-17.1908
 20
-13.7956
 11
-17.0225
 21
-13.5305
  0
LINE
  8
0
 10
-17.0225
 20
-13.5305
 11
-16.8224
 21
-13.2886
  0
LINE
  8
0
 10
-16.8224
 20
-13.2886
 11
-16.5936
 21
-13.0737
  0
LINE
  8
0
 10
-16.5936
 20
-13.0737
 11
-16.3396
 21
-12.8892
  0
LINE
  8
0
 10
-16.3396
 20
-12.8892
 11
-16.0644
 21
-12.7379
  0
LINE
  8
0
 10
-16.0644
 20
-12.7379
 11
-15.7725
 21
-12.6223
  0
LINE
  8
0
 10
-15.7725
 20
-12.6223
 11
-15.4684
 21
-12.5443
  0
LINE
  8
0
 10
-15.4684
 20
-12.5443
 11
-15.157
 21
-12.5049
  0
LINE
  8
0
 10
-15.157
 20
-12.5049
 11
-14.843
 21
-12.5049
  0
LINE
  8
0
 10
-14.843
 20
-12.5049
 11
-14.5315
 21
-12.5443
  0
LINE
  8
0
 10
-14.5315
 20
-12.5443
 11
-14.2274
 21
-12.6223
  0
LINE
  8
0
 10
-14.2274
 20
-12.6223
 11
-13.9355
 21
-12.7379
  0
LINE
  8
0
 10
-13.9355
 20
-12.7379
 11
-13.6604
 21
-12.8892
  0
LINE
  8
0
 10
-13.6604
 20
-12.8892
 11
-13.4064
 21
-13.0737
  0
LINE
  8
0
 10
-13.4064
 20
-13.0737
 11
-13.1776
 21
-13.2886
  0
LINE
  8
0
 10
-13.1776
 20
-13.2886
 11
-12.9774
 21
-13.5305
  0
LINE
  8
0
 10
-12.9774
 20
-13.5305
 11
-12.8092
 21
-13.7956
  0
LINE
  8
0
 10
-12.8092
 20
-13.7956
 11
-12.6756
 21
-14.0797
  0
LINE
  8
0
 10
-12.6756
 20
-14.0797
 11
-12.5785
 21
-14.3783
  0
LINE
  8
0
 10
-12.5785
 20
-14.3783
 11
-12.5197
 21
-14.6867
  0
LINE
  8
0
 10
-12.5197
 20
-14.6867
 11
-12.5
 21
-15
  0
LINE
  8
0
 10
-12.5
 20
-15
 11
-12.5197
 21
-15.3133
  0
LINE
  8
0
 10
-12.5197
 20
-15.3133
 11
-12.5785
 21
-15.6217
  0
LINE
  8
0
 10
-12.5785
 20
-15.6217
 11
-12.6756
 21
-15.9203
  0
LINE
  8
0
 10
-12.6756
 20
-15.9203
 11
-12.8092
 21
-16.2044
  0
LINE
  8
0
 10
-12.8092
 20
-16.2044
 11
-12.9774
 21
-16.4695
  0
LINE
  8
0
 10
-12.9774
 20
-16.4695
 11
-13.1776
 21
-16.7114
  0
LINE
  8
0
 10
-13.1776
 20
-16.7114
 11
-13.4064
 21
-16.9263
  0
LINE
  8
0
 10
-13.4064
 20
-16.9263
 11
-13.6604
 21
-17.1108
  0
LINE
  8
0
 10
-13.6604
 20
-17.1108
 11
-13.9355
 21
-17.2621
  0
LINE
  8
0
 10
-13.9355
 20
-17.2621
 11
-14.2274
 21
-17.3776
  0
LINE
  8
0
 10
-14.2274
 20
-17.3776
 11
-14.5315
 21
-17.4557
  0
LINE
  8
0
 10
-14.5315
 20
-17.4557
 11
-14.843
 21
-17.4951
  0
LINE
  8
0
 10
-14.843
 20
-17.4951
 11
-15.157
 21
-17.4951
  0
ENDSEC
  0
SECTION
  2
OBJECTS
  0
DICTIONARY
  0
ENDSEC
  0
EOF
