<?xml version="1.0" standalone="no"?>
<!DOCTYPE svg PUBLIC "-//W3C//DTD SVG 1.1//EN" "http://www.w3.org/Graphics/SVG/1.1/DTD/svg11.dtd">
<svg width="300mm" height="300mm" viewBox="-150 -150 300 300" xmlns="http://www.w3.org/2000/svg" version="1.1">
<title>OpenSCAD Model</title>
<path d="
M 28.1072,147.343 L 46.3525,142.658 L 63.8669,135.724 L 80.374,126.649 L 95.6136,115.577 L 109.345,102.682
 L 121.353,88.1678 L 131.446,72.263 L 139.466,55.2187 L 145.287,37.3035 L 148.817,18.8 L 150,-0
 L 148.817,-18.8 L 145.287,-37.3035 L 139.466,-55.2187 L 131.446,-72.263 L 121.353,-88.1678 L 109.345,-102.682
 L 95.6136,-115.577 L 80.374,-126.649 L 63.8669,-135.724 L 46.3525,-142.658 L 28.1072,-147.343 L 9.41856,-149.704
 L -9.41856,-149.704 L -28.1072,-147.343 L -46.3525,-142.658 L -63.8669,-135.724 L -80.374,-126.649 L -95.6136,-115.577
 L -109.345,-102.682 L -121.353,-88.1678 L -131.446,-72.263 L -139.466,-55.2187 L -145.287,-37.3035 L -148.817,-18.8
 L -150,-0 L -148.817,18.8 L -145.287,37.3035 L -139.466,55.2187 L -131.446,72.263 L -121.353,88.1678
 L -109.345,102.682 L -95.6136,115.577 L -80.374,126.649 L -63.8669,135.724 L -46.3525,142.658 L -28.1072,147.343
 L -9.41856,149.704 L 9.41856,149.704 z
M -1.25333,-90.0789 L -2.48689,-90.3142 L -3.68124,-90.7022 L -4.81754,-91.2369 L -5.87784,-91.9098 L -6.84546,-92.7103
 L -7.70512,-93.6258 L -8.44327,-94.6417 L -9.04826,-95.7422 L -9.51056,-96.9098 L -9.82286,-98.1262 L -9.98026,-99.3721
 L -9.98026,-117.493 L -10.1127,-117.653 L -10.9538,-118.978 L -11.6222,-120.398 L -12.1073,-121.891 L -12.4014,-123.433
 L -12.5,-125 L -12.4014,-126.567 L -12.1073,-128.109 L -11.6222,-129.602 L -10.9538,-131.022 L -10.1127,-132.347
 L -9.11211,-133.557 L -7.96779,-134.631 L -6.69783,-135.554 L -5.32224,-136.31 L -3.8627,-136.888 L -2.34225,-137.279
 L -0.784866,-137.475 L 0.784866,-137.475 L 2.34225,-137.279 L 3.8627,-136.888 L 5.32224,-136.31 L 6.69783,-135.554
 L 7.96779,-134.631 L 9.11211,-133.557 L 10.1127,-132.347 L 10.9538,-131.022 L 11.6222,-129.602 L 12.1073,-128.109
 L 12.4014,-126.567 L 12.5,-125 L 12.4014,-123.433 L 12.1073,-121.891 L 11.6222,-120.398 L 10.9538,-118.978
 L 10.1127,-117.653 L 9.98026,-117.493 L 9.98026,-99.3721 L 9.82286,-98.1262 L 9.51056,-96.9098 L 9.04826,-95.7422
 L 8.44327,-94.6417 L 7.70512,-93.6258 L 6.84546,-92.7103 L 5.87784,-91.9098 L 4.81754,-91.2369 L 3.68124,-90.7022
 L 2.48689,-90.3142 L 1.25333,-90.0789 L 0,-90 z
M -70.2507,-98.0158 L -70.4974,-98.0628 L -70.7363,-98.1404 L -70.9635,-98.2474 L -71.1756,-98.382 L -71.3691,-98.5421
 L -71.541,-98.7251 L -71.6886,-98.9283 L -71.8096,-99.1484 L -71.9021,-99.382 L -71.9646,-99.6252 L -71.996,-99.8744
 L -71.996,-104.542 L -72.1433,-104.623 L -72.5497,-104.918 L -72.9159,-105.262 L -73.2361,-105.649 L -73.5052,-106.073
 L -73.7191,-106.527 L -73.8743,-107.005 L -73.9685,-107.499 L -74,-108 L -73.9685,-108.501 L -73.8743,-108.995
 L -73.7191,-109.472 L -73.5052,-109.927 L -73.2361,-110.351 L -72.9159,-110.738 L -72.5497,-111.082 L -72.1433,-111.377
 L -71.7031,-111.619 L -71.2361,-111.804 L -70.7495,-111.929 L -70.2512,-111.992 L -69.7488,-111.992 L -69.2505,-111.929
 L -68.7639,-111.804 L -68.2969,-111.619 L -67.8567,-111.377 L -67.4503,-111.082 L -67.0841,-110.738 L -66.7639,-110.351
 L -66.4948,-109.927 L -66.2809,-109.472 L -66.1257,-108.995 L -66.0315,-108.501 L -66,-108 L -66.0315,-107.499
 L -66.1257,-107.005 L -66.2809,-106.527 L -66.4948,-106.073 L -66.7639,-105.649 L -67.0841,-105.262 L -67.4503,-104.918
 L -67.8567,-104.623 L -68.0039,-104.542 L -68.0039,-99.8744 L -68.0354,-99.6252 L -68.0979,-99.382 L -68.1903,-99.1484
 L -68.3113,-98.9283 L -68.459,-98.7251 L -68.6309,-98.5421 L -68.8244,-98.382 L -69.0365,-98.2474 L -69.2637,-98.1404
 L -69.5026,-98.0628 L -69.7493,-98.0158 L -70,-98 z
M 69.7493,-98.0158 L 69.5026,-98.0628 L 69.2637,-98.1404 L 69.0365,-98.2474 L 68.8244,-98.382 L 68.6309,-98.5421
 L 68.459,-98.7251 L 68.3113,-98.9283 L 68.1903,-99.1484 L 68.0979,-99.382 L 68.0354,-99.6252 L 68.0039,-99.8744
 L 68.0039,-104.542 L 67.8567,-104.623 L 67.4503,-104.918 L 67.0841,-105.262 L 66.7639,-105.649 L 66.4948,-106.073
 L 66.2809,-106.527 L 66.1257,-107.005 L 66.0315,-107.499 L 66,-108 L 66.0315,-108.501 L 66.1257,-108.995
 L 66.2809,-109.472 L 66.4948,-109.927 L 66.7639,-110.351 L 67.0841,-110.738 L 67.4503,-111.082 L 67.8567,-111.377
 L 68.2969,-111.619 L 68.7639,-111.804 L 69.2505,-111.929 L 69.7488,-111.992 L 70.2512,-111.992 L 70.7495,-111.929
 L 71.2361,-111.804 L 71.7031,-111.619 L 72.1433,-111.377 L 72.5497,-111.082 L 72.9159,-110.738 L 73.2361,-110.351
 L 73.5052,-109.927 L 73.7191,-109.472 L 73.8743,-108.995 L 73.9685,-108.501 L 74,-108 L 73.9685,-107.499
 L 73.8743,-107.005 L 73.7191,-106.527 L 73.5052,-106.073 L 73.2361,-105.649 L 72.9159,-105.262 L 72.5497,-104.918
 L 72.1433,-104.623 L 71.996,-104.542 L 71.996,-99.8744 L 71.9646,-99.6252 L 71.9021,-99.382 L 71.8096,-99.1484
 L 71.6886,-98.9283 L 71.541,-98.7251 L 71.3691,-98.5421 L 71.1756,-98.382 L 70.9635,-98.2474 L 70.7363,-98.1404
 L 70.4974,-98.0628 L 70.2507,-98.0158 L 70,-98 z
M -100.104,-98.3533 L -100.309,-98.3792 L -100.51,-98.4308 L -100.703,-98.507 L -100.884,-98.6069 L -101.052,-98.7287
 L -101.203,-98.8705 L -101.335,-99.0302 L -101.446,-99.2051 L -101.534,-99.3926 L -101.598,-99.5897 L -101.637,-99.7932
 L -101.65,-100 L -101.637,-100.207 L -101.598,-100.41 L -101.534,-100.607 L -101.446,-100.795 L -101.335,-100.97
 L -101.203,-101.13 L -101.052,-101.271 L -100.884,-101.393 L -100.703,-101.493 L -100.51,-101.569 L -100.309,-101.621
 L -100.104,-101.647 L -99.8964,-101.647 L -99.6908,-101.621 L -99.4901,-101.569 L -99.2975,-101.493 L -99.1159,-101.393
 L -98.9482,-101.271 L -98.7972,-101.13 L -98.6651,-100.97 L -98.5541,-100.795 L -98.4659,-100.607 L -98.4018,-100.41
 L -98.363,-100.207 L -98.35,-100 L -98.363,-99.7932 L -98.4018,-99.5897 L -98.4659,-99.3926 L -98.5541,-99.2051
 L -98.6651,-99.0302 L -98.7972,-98.8705 L -98.9482,-98.7287 L -99.1159,-98.6069 L -99.2975,-98.507 L -99.4901,-98.4308
 L -99.6908,-98.3792 L -99.8964,-98.3533 z
M 99.8964,-98.3533 L 99.6908,-98.3792 L 99.4901,-98.4308 L 99.2975,-98.507 L 99.1159,-98.6069 L 98.9482,-98.7287
 L 98.7972,-98.8705 L 98.6651,-99.0302 L 98.5541,-99.2051 L 98.4659,-99.3926 L 98.4018,-99.5897 L 98.363,-99.7932
 L 98.35,-100 L 98.363,-100.207 L 98.4018,-100.41 L 98.4659,-100.607 L 98.5541,-100.795 L 98.6651,-100.97
 L 98.7972,-101.13 L 98.9482,-101.271 L 99.1159,-101.393 L 99.2975,-101.493 L 99.4901,-101.569 L 99.6908,-101.621
 L 99.8964,-101.647 L 100.104,-101.647 L 100.309,-101.621 L 100.51,-101.569 L 100.703,-101.493 L 100.884,-101.393
 L 101.052,-101.271 L 101.203,-101.13 L 101.335,-100.97 L 101.446,-100.795 L 101.534,-100.607 L 101.598,-100.41
 L 101.637,-100.207 L 101.65,-100 L 101.637,-99.7932 L 101.598,-99.5897 L 101.534,-99.3926 L 101.446,-99.2051
 L 101.335,-99.0302 L 101.203,-98.8705 L 101.052,-98.7287 L 100.884,-98.6069 L 100.703,-98.507 L 100.51,-98.4308
 L 100.309,-98.3792 L 100.104,-98.3533 z
M 98.7467,9.92114 L 97.5131,9.68582 L 96.3188,9.29776 L 95.1825,8.76306 L 94.1221,8.09016 L 93.1545,7.28967
 L 92.2949,6.37424 L 91.5567,5.35826 L 90.9517,4.25778 L 90.4894,3.09016 L 90.1771,1.87381 L 90.0197,0.627899
 L 90.0197,-17.4926 L 89.8873,-17.6527 L 89.0462,-18.9781 L 88.3778,-20.3984 L 87.8927,-21.8914 L 87.5986,-23.4333
 L 87.5,-25 L 87.5986,-26.5667 L 87.8927,-28.1086 L 88.3778,-29.6015 L 89.0462,-31.0219 L 89.8873,-32.3473
 L 90.8879,-33.5568 L 92.0322,-34.6314 L 93.3022,-35.5541 L 94.6777,-36.3103 L 96.1373,-36.8882 L 97.6577,-37.2786
 L 99.2151,-37.4753 L 100.785,-37.4753 L 102.342,-37.2786 L 103.863,-36.8882 L 105.322,-36.3103 L 106.698,-35.5541
 L 107.968,-34.6314 L 109.112,-33.5568 L 110.113,-32.3473 L 110.954,-31.0219 L 111.622,-29.6015 L 112.107,-28.1086
 L 112.401,-26.5667 L 112.5,-25 L 112.401,-23.4333 L 112.107,-21.8914 L 111.622,-20.3984 L 110.954,-18.9781
 L 110.113,-17.6527 L 109.98,-17.4926 L 109.98,0.627899 L 109.823,1.87381 L 109.511,3.09016 L 109.048,4.25778
 L 108.443,5.35826 L 107.705,6.37424 L 106.845,7.28967 L 105.878,8.09016 L 104.818,8.76306 L 103.681,9.29776
 L 102.487,9.68582 L 101.253,9.92114 L 100,10 z
M -101.253,9.92114 L -102.487,9.68582 L -103.681,9.29776 L -104.818,8.76306 L -105.878,8.09016 L -106.845,7.28967
 L -107.705,6.37424 L -108.443,5.35826 L -109.048,4.25778 L -109.511,3.09016 L -109.823,1.87381 L -109.98,0.627899
 L -109.98,-17.4926 L -110.113,-17.6527 L -110.954,-18.9781 L -111.622,-20.3984 L -112.107,-21.8914 L -112.401,-23.4333
 L -112.5,-25 L -112.401,-26.5667 L -112.107,-28.1086 L -111.622,-29.6015 L -110.954,-31.0219 L -110.113,-32.3473
 L -109.112,-33.5568 L -107.968,-34.6314 L -106.698,-35.5541 L -105.322,-36.3103 L -103.863,-36.8882 L -102.342,-37.2786
 L -100.785,-37.4753 L -99.2151,-37.4753 L -97.6577,-37.2786 L -96.1373,-36.8882 L -94.6777,-36.3103 L -93.3022,-35.5541
 L -92.0322,-34.6314 L -90.8879,-33.5568 L -89.8873,-32.3473 L -89.0462,-31.0219 L -88.3778,-29.6015 L -87.8927,-28.1086
 L -87.5986,-26.5667 L -87.5,-25 L -87.5986,-23.4333 L -87.8927,-21.8914 L -88.3778,-20.3984 L -89.0462,-18.9781
 L -89.8873,-17.6527 L -90.0197,-17.4926 L -90.0197,0.627899 L -90.1771,1.87381 L -90.4894,3.09016 L -90.9517,4.25778
 L -91.5567,5.35826 L -92.2949,6.37424 L -93.1545,7.28967 L -94.1221,8.09016 L -95.1825,8.76306 L -96.3188,9.29776
 L -97.5131,9.68582 L -98.7467,9.92114 L -100,10 z
M -0.204056,3.24358 L -0.608978,3.19243 L -1.0043,3.09093 L -1.38377,2.94067 L -1.74142,2.74406 L -2.07162,2.50417
 L -2.36914,2.22478 L -2.6293,1.91029 L -2.84799,1.56569 L -3.02176,1.1964 L -3.14789,0.808228 L -3.22437,0.407318
 L -3.25,-0 L -3.22437,-0.407318 L -3.14789,-0.808228 L -3.02176,-1.1964 L -2.84799,-1.56569 L -2.6293,-1.91029
 L -2.36914,-2.22478 L -2.07162,-2.50417 L -1.74142,-2.74406 L -1.38377,-2.94067 L -1.0043,-3.09093 L -0.608978,-3.19243
 L -0.204056,-3.24358 L 0.204056,-3.24358 L 0.608978,-3.19243 L 1.0043,-3.09093 L 1.38377,-2.94067 L 1.74142,-2.74406
 L 2.07162,-2.50417 L 2.36914,-2.22478 L 2.6293,-1.91029 L 2.84799,-1.56569 L 3.02176,-1.1964 L 3.14789,-0.808228
 L 3.22437,-0.407318 L 3.25,-0 L 3.22437,0.407318 L 3.14789,0.808228 L 3.02176,1.1964 L 2.84799,1.56569
 L 2.6293,1.91029 L 2.36914,2.22478 L 2.07162,2.50417 L 1.74142,2.74406 L 1.38377,2.94067 L 1.0043,3.09093
 L 0.608978,3.19243 L 0.204056,3.24358 z
M -1.25333,109.921 L -2.48689,109.686 L -3.68124,109.298 L -4.81754,108.763 L -5.87784,108.09 L -6.84546,107.29
 L -7.70512,106.374 L -8.44327,105.358 L -9.04826,104.258 L -9.51056,103.09 L -9.82286,101.874 L -9.98026,100.628
 L -9.98026,82.5074 L -10.1127,82.3473 L -10.9538,81.0219 L -11.6222,79.6015 L -12.1073,78.1086 L -12.4014,76.5667
 L -12.5,75 L -12.4014,73.4333 L -12.1073,71.8914 L -11.6222,70.3984 L -10.9538,68.9781 L -10.1127,67.6527
 L -9.11211,66.4432 L -7.96779,65.3686 L -6.69783,64.4459 L -5.32224,63.6897 L -3.8627,63.1118 L -2.34225,62.7214
 L -0.784866,62.5247 L 0.784866,62.5247 L 2.34225,62.7214 L 3.8627,63.1118 L 5.32224,63.6897 L 6.69783,64.4459
 L 7.96779,65.3686 L 9.11211,66.4432 L 10.1127,67.6527 L 10.9538,68.9781 L 11.6222,70.3984 L 12.1073,71.8914
 L 12.4014,73.4333 L 12.5,75 L 12.4014,76.5667 L 12.1073,78.1086 L 11.6222,79.6015 L 10.9538,81.0219
 L 10.1127,82.3473 L 9.98026,82.5074 L 9.98026,100.628 L 9.82286,101.874 L 9.51056,103.09 L 9.04826,104.258
 L 8.44327,105.358 L 7.70512,106.374 L 6.84546,107.29 L 5.87784,108.09 L 4.81754,108.763 L 3.68124,109.298
 L 2.48689,109.686 L 1.25333,109.921 L 0,110 z
M -100.104,101.647 L -100.309,101.621 L -100.51,101.569 L -100.703,101.493 L -100.884,101.393 L -101.052,101.271
 L -101.203,101.13 L -101.335,100.97 L -101.446,100.795 L -101.534,100.607 L -101.598,100.41 L -101.637,100.207
 L -101.65,100 L -101.637,99.7932 L -101.598,99.5897 L -101.534,99.3926 L -101.446,99.2051 L -101.335,99.0302
 L -101.203,98.8705 L -101.052,98.7287 L -100.884,98.6069 L -100.703,98.507 L -100.51,98.4308 L -100.309,98.3792
 L -100.104,98.3533 L -99.8964,98.3533 L -99.6908,98.3792 L -99.4901,98.4308 L -99.2975,98.507 L -99.1159,98.6069
 L -98.9482,98.7287 L -98.7972,98.8705 L -98.6651,99.0302 L -98.5541,99.2051 L -98.4659,99.3926 L -98.4018,99.5897
 L -98.363,99.7932 L -98.35,100 L -98.363,100.207 L -98.4018,100.41 L -98.4659,100.607 L -98.5541,100.795
 L -98.6651,100.97 L -98.7972,101.13 L -98.9482,101.271 L -99.1159,101.393 L -99.2975,101.493 L -99.4901,101.569
 L -99.6908,101.621 L -99.8964,101.647 z
M 99.8964,101.647 L 99.6908,101.621 L 99.4901,101.569 L 99.2975,101.493 L 99.1159,101.393 L 98.9482,101.271
 L 98.7972,101.13 L 98.6651,100.97 L 98.5541,100.795 L 98.4659,100.607 L 98.4018,100.41 L 98.363,100.207
 L 98.35,100 L 98.363,99.7932 L 98.4018,99.5897 L 98.4659,99.3926 L 98.5541,99.2051 L 98.6651,99.0302
 L 98.7972,98.8705 L 98.9482,98.7287 L 99.1159,98.6069 L 99.2975,98.507 L 99.4901,98.4308 L 99.6908,98.3792
 L 99.8964,98.3533 L 100.104,98.3533 L 100.309,98.3792 L 100.51,98.4308 L 100.703,98.507 L 100.884,98.6069
 L 101.052,98.7287 L 101.203,98.8705 L 101.335,99.0302 L 101.446,99.2051 L 101.534,99.3926 L 101.598,99.5897
 L 101.637,99.7932 L 101.65,100 L 101.637,100.207 L 101.598,100.41 L 101.534,100.607 L 101.446,100.795
 L 101.335,100.97 L 101.203,101.13 L 101.052,101.271 L 100.884,101.393 L 100.703,101.493 L 100.51,101.569
 L 100.309,101.621 L 100.104,101.647 z
" stroke="black" fill="lightgray" stroke-width="0.5"/>
</svg>
