  0
SECTION
  2
BLOCKS
  0
ENDSEC
  0
SECTION
  2
ENTITIES
  0
LINE
  8
0
 10
9.36906
 20
-49.1143
 11
15.4508
 21
-47.5528
  0
LINE
  8
0
 10
15.4508
 20
-47.5528
 11
21.289
 21
-45.2413
  0
LINE
  8
0
 10
21.289
 20
-45.2413
 11
26.7913
 21
-42.2164
  0
LINE
  8
0
 10
26.7913
 20
-42.2164
 11
31.8712
 21
-38.5257
  0
LINE
  8
0
 10
31.8712
 20
-38.5257
 11
36.4484
 21
-34.2274
  0
LINE
  8
0
 10
36.4484
 20
-34.2274
 11
40.4509
 21
-29.3893
  0
LINE
  8
0
 10
40.4509
 20
-29.3893
 11
43.8153
 21
-24.0877
  0
LINE
  8
0
 10
43.8153
 20
-24.0877
 11
46.4888
 21
-18.4062
  0
LINE
  8
0
 10
46.4888
 20
-18.4062
 11
48.4292
 21
-12.4345
  0
LINE
  8
0
 10
48.4292
 20
-12.4345
 11
49.6057
 21
-6.26665
  0
LINE
  8
0
 10
49.6057
 20
-6.26665
 11
50
 21
0
  0
LINE
  8
0
 10
50
 20
0
 11
49.6057
 21
6.26665
  0
LINE
  8
0
 10
49.6057
 20
6.26665
 11
48.4292
 21
12.4345
  0
LINE
  8
0
 10
48.4292
 20
12.4345
 11
46.4888
 21
18.4062
  0
LINE
  8
0
 10
46.4888
 20
18.4062
 11
43.8153
 21
24.0877
  0
LINE
  8
0
 10
43.8153
 20
24.0877
 11
40.4509
 21
29.3893
  0
LINE
  8
0
 10
40.4509
 20
29.3893
 11
36.4484
 21
34.2274
  0
LINE
  8
0
 10
36.4484
 20
34.2274
 11
31.8712
 21
38.5257
  0
LINE
  8
0
 10
31.8712
 20
38.5257
 11
26.7913
 21
42.2164
  0
LINE
  8
0
 10
26.7913
 20
42.2164
 11
21.289
 21
45.2413
  0
LINE
  8
0
 10
21.289
 20
45.2413
 11
15.4508
 21
47.5528
  0
LINE
  8
0
 10
15.4508
 20
47.5528
 11
9.36906
 21
49.1143
  0
LINE
  8
0
 10
9.36906
 20
49.1143
 11
3.13951
 21
49.9013
  0
LINE
  8
0
 10
3.13951
 20
49.9013
 11
-3.13951
 21
49.9013
  0
LINE
  8
0
 10
-3.13951
 20
49.9013
 11
-9.36906
 21
49.1143
  0
LINE
  8
0
 10
-9.36906
 20
49.1143
 11
-15.4508
 21
47.5528
  0
LINE
  8
0
 10
-15.4508
 20
47.5528
 11
-21.289
 21
45.2413
  0
LINE
  8
0
 10
-21.289
 20
45.2413
 11
-26.7913
 21
42.2164
  0
LINE
  8
0
 10
-26.7913
 20
42.2164
 11
-31.8712
 21
38.5257
  0
LINE
  8
0
 10
-31.8712
 20
38.5257
 11
-36.4484
 21
34.2274
  0
LINE
  8
0
 10
-36.4484
 20
34.2274
 11
-40.4509
 21
29.3893
  0
LINE
  8
0
 10
-40.4509
 20
29.3893
 11
-43.8153
 21
24.0877
  0
LINE
  8
0
 10
-43.8153
 20
24.0877
 11
-46.4888
 21
18.4062
  0
LINE
  8
0
 10
-46.4888
 20
18.4062
 11
-48.4292
 21
12.4345
  0
LINE
  8
0
 10
-48.4292
 20
12.4345
 11
-49.6057
 21
6.26665
  0
LINE
  8
0
 10
-49.6057
 20
6.26665
 11
-50
 21
0
  0
LINE
  8
0
 10
-50
 20
0
 11
-49.6057
 21
-6.26665
  0
LINE
  8
0
 10
-49.6057
 20
-6.26665
 11
-48.4292
 21
-12.4345
  0
LINE
  8
0
 10
-48.4292
 20
-12.4345
 11
-46.4888
 21
-18.4062
  0
LINE
  8
0
 10
-46.4888
 20
-18.4062
 11
-43.8153
 21
-24.0877
  0
LINE
  8
0
 10
-43.8153
 20
-24.0877
 11
-40.4509
 21
-29.3893
  0
LINE
  8
0
 10
-40.4509
 20
-29.3893
 11
-36.4484
 21
-34.2274
  0
LINE
  8
0
 10
-36.4484
 20
-34.2274
 11
-31.8712
 21
-38.5257
  0
LINE
  8
0
 10
-31.8712
 20
-38.5257
 11
-26.7913
 21
-42.2164
  0
LINE
  8
0
 10
-26.7913
 20
-42.2164
 11
-21.289
 21
-45.2413
  0
LINE
  8
0
 10
-21.289
 20
-45.2413
 11
-15.4508
 21
-47.5528
  0
LINE
  8
0
 10
-15.4508
 20
-47.5528
 11
-9.36906
 21
-49.1143
  0
LINE
  8
0
 10
-9.36906
 20
-49.1143
 11
-3.13951
 21
-49.9013
  0
LINE
  8
0
 10
-3.13951
 20
-49.9013
 11
3.13951
 21
-49.9013
  0
LINE
  8
0
 10
3.13951
 20
-49.9013
 11
9.36906
 21
-49.1143
  0
LINE
  8
0
 10
-0.103592
 20
-1.64674
 11
-0.309174
 21
-1.62077
  0
LINE
  8
0
 10
-0.309174
 20
-1.62077
 11
-0.509872
 21
-1.56923
  0
LINE
  8
0
 10
-0.509872
 20
-1.56923
 11
-0.70253
 21
-1.49295
  0
LINE
  8
0
 10
-0.70253
 20
-1.49295
 11
-0.884109
 21
-1.39313
  0
LINE
  8
0
 10
-0.884109
 20
-1.39313
 11
-1.05174
 21
-1.27133
  0
LINE
  8
0
 10
-1.05174
 20
-1.27133
 11
-1.20279
 21
-1.1295
  0
LINE
  8
0
 10
-1.20279
 20
-1.1295
 11
-1.33487
 21
-0.969833
  0
LINE
  8
0
 10
-1.33487
 20
-0.969833
 11
-1.44589
 21
-0.794891
  0
LINE
  8
0
 10
-1.44589
 20
-0.794891
 11
-1.53412
 21
-0.607391
  0
LINE
  8
0
 10
-1.53412
 20
-0.607391
 11
-1.59816
 21
-0.410324
  0
LINE
  8
0
 10
-1.59816
 20
-0.410324
 11
-1.63698
 21
-0.206787
  0
LINE
  8
0
 10
-1.63698
 20
-0.206787
 11
-1.64999
 21
0
  0
LINE
  8
0
 10
-1.64999
 20
0
 11
-1.63698
 21
0.206787
  0
LINE
  8
0
 10
-1.63698
 20
0.206787
 11
-1.59816
 21
0.410324
  0
LINE
  8
0
 10
-1.59816
 20
0.410324
 11
-1.53412
 21
0.607391
  0
LINE
  8
0
 10
-1.53412
 20
0.607391
 11
-1.44589
 21
0.794891
  0
LINE
  8
0
 10
-1.44589
 20
0.794891
 11
-1.33487
 21
0.969833
  0
LINE
  8
0
 10
-1.33487
 20
0.969833
 11
-1.20279
 21
1.1295
  0
LINE
  8
0
 10
-1.20279
 20
1.1295
 11
-1.05174
 21
1.27133
  0
LINE
  8
0
 10
-1.05174
 20
1.27133
 11
-0.884109
 21
1.39313
  0
LINE
  8
0
 10
-0.884109
 20
1.39313
 11
-0.70253
 21
1.49295
  0
LINE
  8
0
 10
-0.70253
 20
1.49295
 11
-0.509872
 21
1.56923
  0
LINE
  8
0
 10
-0.509872
 20
1.56923
 11
-0.309174
 21
1.62077
  0
LINE
  8
0
 10
-0.309174
 20
1.62077
 11
-0.103592
 21
1.64674
  0
LINE
  8
0
 10
-0.103592
 20
1.64674
 11
0.103592
 21
1.64674
  0
LINE
  8
0
 10
0.103592
 20
1.64674
 11
0.309174
 21
1.62077
  0
LINE
  8
0
 10
0.309174
 20
1.62077
 11
0.509872
 21
1.56923
  0
LINE
  8
0
 10
0.509872
 20
1.56923
 11
0.70253
 21
1.49295
  0
LINE
  8
0
 10
0.70253
 20
1.49295
 11
0.884109
 21
1.39313
  0
LINE
  8
0
 10
0.884109
 20
1.39313
 11
1.05174
 21
1.27133
  0
LINE
  8
0
 10
1.05174
 20
1.27133
 11
1.20279
 21
1.1295
  0
LINE
  8
0
 10
1.20279
 20
1.1295
 11
1.33487
 21
0.969833
  0
LINE
  8
0
 10
1.33487
 20
0.969833
 11
1.44589
 21
0.794891
  0
LINE
  8
0
 10
1.44589
 20
0.794891
 11
1.53412
 21
0.607391
  0
LINE
  8
0
 10
1.53412
 20
0.607391
 11
1.59816
 21
0.410324
  0
LINE
  8
0
 10
1.59816
 20
0.410324
 11
1.63698
 21
0.206787
  0
LINE
  8
0
 10
1.63698
 20
0.206787
 11
1.64999
 21
0
  0
LINE
  8
0
 10
1.64999
 20
0
 11
1.63698
 21
-0.206787
  0
LINE
  8
0
 10
1.63698
 20
-0.206787
 11
1.59816
 21
-0.410324
  0
LINE
  8
0
 10
1.59816
 20
-0.410324
 11
1.53412
 21
-0.607391
  0
LINE
  8
0
 10
1.53412
 20
-0.607391
 11
1.44589
 21
-0.794891
  0
LINE
  8
0
 10
1.44589
 20
-0.794891
 11
1.33487
 21
-0.969833
  0
LINE
  8
0
 10
1.33487
 20
-0.969833
 11
1.20279
 21
-1.1295
  0
LINE
  8
0
 10
1.20279
 20
-1.1295
 11
1.05174
 21
-1.27133
  0
LINE
  8
0
 10
1.05174
 20
-1.27133
 11
0.884109
 21
-1.39313
  0
LINE
  8
0
 10
0.884109
 20
-1.39313
 11
0.70253
 21
-1.49295
  0
LINE
  8
0
 10
0.70253
 20
-1.49295
 11
0.509872
 21
-1.56923
  0
LINE
  8
0
 10
0.509872
 20
-1.56923
 11
0.309174
 21
-1.62077
  0
LINE
  8
0
 10
0.309174
 20
-1.62077
 11
0.103592
 21
-1.64674
  0
LINE
  8
0
 10
0.103592
 20
-1.64674
 11
-0.103592
 21
-1.64674
  0
ENDSEC
  0
SECTION
  2
OBJECTS
  0
DICTIONARY
  0
ENDSEC
  0
EOF
