<?xml version="1.0" standalone="no"?>
<!DOCTYPE svg PUBLIC "-//W3C//DTD SVG 1.1//EN" "http://www.w3.org/Graphics/SVG/1.1/DTD/svg11.dtd">
<svg width="100mm" height="100mm" viewBox="-50 -50 100 100" xmlns="http://www.w3.org/2000/svg" version="1.1">
<title>OpenSCAD Model</title>
<path d="
M 9.36906,49.1143 L 15.4508,47.5528 L 21.289,45.2413 L 26.7913,42.2164 L 31.8712,38.5257 L 36.4484,34.2274
 L 40.4509,29.3893 L 43.8153,24.0877 L 46.4888,18.4062 L 48.4292,12.4345 L 49.6057,6.26665 L 50,-0
 L 49.6057,-6.26665 L 48.4292,-12.4345 L 46.4888,-18.4062 L 43.8153,-24.0877 L 40.4509,-29.3893 L 36.4484,-34.2274
 L 31.8712,-38.5257 L 26.7913,-42.2164 L 21.289,-45.2413 L 15.4508,-47.5528 L 9.36906,-49.1143 L 3.13951,-49.9013
 L -3.13951,-49.9013 L -9.36906,-49.1143 L -15.4508,-47.5528 L -21.289,-45.2413 L -26.7913,-42.2164 L -31.8712,-38.5257
 L -36.4484,-34.2274 L -40.4509,-29.3893 L -43.8153,-24.0877 L -46.4888,-18.4062 L -48.4292,-12.4345 L -49.6057,-6.26665
 L -50,-0 L -49.6057,6.26665 L -48.4292,12.4345 L -46.4888,18.4062 L -43.8153,24.0877 L -40.4509,29.3893
 L -36.4484,34.2274 L -31.8712,38.5257 L -26.7913,42.2164 L -21.289,45.2413 L -15.4508,47.5528 L -9.36906,49.1143
 L -3.13951,49.9013 L 3.13951,49.9013 z
M -0.103592,1.64674 L -0.309174,1.62077 L -0.509872,1.56923 L -0.70253,1.49295 L -0.884109,1.39313 L -1.05174,1.27133
 L -1.20279,1.1295 L -1.33487,0.969833 L -1.44589,0.794891 L -1.53412,0.607391 L -1.59816,0.410324 L -1.63698,0.206787
 L -1.64999,-0 L -1.63698,-0.206787 L -1.59816,-0.410324 L -1.53412,-0.607391 L -1.44589,-0.794891 L -1.33487,-0.969833
 L -1.20279,-1.1295 L -1.05174,-1.27133 L -0.884109,-1.39313 L -0.70253,-1.49295 L -0.509872,-1.56923 L -0.309174,-1.62077
 L -0.103592,-1.64674 L 0.103592,-1.64674 L 0.309174,-1.62077 L 0.509872,-1.56923 L 0.70253,-1.49295 L 0.884109,-1.39313
 L 1.05174,-1.27133 L 1.20279,-1.1295 L 1.33487,-0.969833 L 1.44589,-0.794891 L 1.53412,-0.607391 L 1.59816,-0.410324
 L 1.63698,-0.206787 L 1.64999,-0 L 1.63698,0.206787 L 1.59816,0.410324 L 1.53412,0.607391 L 1.44589,0.794891
 L 1.33487,0.969833 L 1.20279,1.1295 L 1.05174,1.27133 L 0.884109,1.39313 L 0.70253,1.49295 L 0.509872,1.56923
 L 0.309174,1.62077 L 0.103592,1.64674 z
" stroke="black" fill="lightgray" stroke-width="0.5"/>
</svg>
