<?xml version="1.0" standalone="no"?>
<!DOCTYPE svg PUBLIC "-//W3C//DTD SVG 1.1//EN" "http://www.w3.org/Graphics/SVG/1.1/DTD/svg11.dtd">
<svg width="100mm" height="273mm" viewBox="-50 -223 100 273" xmlns="http://www.w3.org/2000/svg" version="1.1">
<title>OpenSCAD Model</title>
<path d="
M 2.34225,-197.721 L 3.8627,-198.112 L 5.32224,-198.69 L 6.69783,-199.446 L 7.96779,-200.369 L 9.11211,-201.443
 L 10.1127,-202.653 L 10.9538,-203.978 L 11.6222,-205.398 L 12.1073,-206.891 L 12.4014,-208.433 L 12.5,-210
 L 12.4014,-211.567 L 12.1073,-213.109 L 11.6222,-214.602 L 10.9538,-216.022 L 10.1127,-217.347 L 9.11211,-218.557
 L 7.96779,-219.631 L 6.69783,-220.554 L 5.32224,-221.31 L 3.8627,-221.888 L 2.34225,-222.279 L 0.784866,-222.475
 L -0.784866,-222.475 L -2.34225,-222.279 L -3.8627,-221.888 L -5.32224,-221.31 L -6.69783,-220.554 L -7.96779,-219.631
 L -9.11211,-218.557 L -10.1127,-217.347 L -10.9538,-216.022 L -11.6222,-214.602 L -12.1073,-213.109 L -12.4014,-211.567
 L -12.5,-210 L -12.4014,-208.433 L -12.1073,-206.891 L -11.6222,-205.398 L -10.9538,-203.978 L -10.1127,-202.653
 L -9.11211,-201.443 L -7.96779,-200.369 L -6.69783,-199.446 L -5.32224,-198.69 L -3.8627,-198.112 L -2.34225,-197.721
 L -0.784866,-197.525 L 0.784866,-197.525 z
M -0.186325,-207.038 L -0.556076,-207.085 L -0.917038,-207.178 L -1.26355,-207.315 L -1.59013,-207.494 L -1.89165,-207.713
 L -2.16331,-207.969 L -2.40086,-208.256 L -2.60056,-208.57 L -2.75925,-208.908 L -2.8744,-209.262 L -2.94424,-209.628
 L -2.96764,-210 L -2.94424,-210.372 L -2.8744,-210.738 L -2.75925,-211.092 L -2.60056,-211.43 L -2.40086,-211.744
 L -2.16331,-212.031 L -1.89165,-212.287 L -1.59013,-212.506 L -1.26355,-212.685 L -0.917038,-212.822 L -0.556076,-212.915
 L -0.186325,-212.962 L 0.186325,-212.962 L 0.556076,-212.915 L 0.917038,-212.822 L 1.26355,-212.685 L 1.59013,-212.506
 L 1.89165,-212.287 L 2.16331,-212.031 L 2.40086,-211.744 L 2.60056,-211.43 L 2.75925,-211.092 L 2.8744,-210.738
 L 2.94424,-210.372 L 2.96764,-210 L 2.94424,-209.628 L 2.8744,-209.262 L 2.75925,-208.908 L 2.60056,-208.57
 L 2.40086,-208.256 L 2.16331,-207.969 L 1.89165,-207.713 L 1.59013,-207.494 L 1.26355,-207.315 L 0.917038,-207.178
 L 0.556076,-207.085 L 0.186325,-207.038 z
M 2.34225,-92.7214 L 3.8627,-93.1118 L 5.32224,-93.6897 L 6.69783,-94.4459 L 7.96779,-95.3686 L 9.11211,-96.4432
 L 10.1127,-97.6527 L 10.9538,-98.9781 L 11.6222,-100.398 L 12.1073,-101.891 L 12.4014,-103.433 L 12.5,-105
 L 12.4014,-106.567 L 12.1073,-108.109 L 11.6222,-109.602 L 10.9538,-111.022 L 10.1127,-112.347 L 9.11211,-113.557
 L 7.96779,-114.631 L 6.69783,-115.554 L 5.32224,-116.31 L 3.8627,-116.888 L 2.34225,-117.279 L 0.784866,-117.475
 L -0.784866,-117.475 L -2.34225,-117.279 L -3.8627,-116.888 L -5.32224,-116.31 L -6.69783,-115.554 L -7.96779,-114.631
 L -9.11211,-113.557 L -10.1127,-112.347 L -10.9538,-111.022 L -11.6222,-109.602 L -12.1073,-108.109 L -12.4014,-106.567
 L -12.5,-105 L -12.4014,-103.433 L -12.1073,-101.891 L -11.6222,-100.398 L -10.9538,-98.9781 L -10.1127,-97.6527
 L -9.11211,-96.4432 L -7.96779,-95.3686 L -6.69783,-94.4459 L -5.32224,-93.6897 L -3.8627,-93.1118 L -2.34225,-92.7214
 L -0.784866,-92.5247 L 0.784866,-92.5247 z
M -0.103592,-103.353 L -0.309174,-103.379 L -0.509872,-103.431 L -0.70253,-103.507 L -0.884109,-103.607 L -1.05174,-103.729
 L -1.20279,-103.87 L -1.33487,-104.03 L -1.44589,-104.205 L -1.53412,-104.393 L -1.59816,-104.59 L -1.63698,-104.793
 L -1.64999,-105 L -1.63698,-105.207 L -1.59816,-105.41 L -1.53412,-105.607 L -1.44589,-105.795 L -1.33487,-105.97
 L -1.20279,-106.13 L -1.05174,-106.271 L -0.884109,-106.393 L -0.70253,-106.493 L -0.509872,-106.569 L -0.309174,-106.621
 L -0.103592,-106.647 L 0.103592,-106.647 L 0.309174,-106.621 L 0.509872,-106.569 L 0.70253,-106.493 L 0.884109,-106.393
 L 1.05174,-106.271 L 1.20279,-106.13 L 1.33487,-105.97 L 1.44589,-105.795 L 1.53412,-105.607 L 1.59816,-105.41
 L 1.63698,-105.207 L 1.64999,-105 L 1.63698,-104.793 L 1.59816,-104.59 L 1.53412,-104.393 L 1.44589,-104.205
 L 1.33487,-104.03 L 1.20279,-103.87 L 1.05174,-103.729 L 0.884109,-103.607 L 0.70253,-103.507 L 0.509872,-103.431
 L 0.309174,-103.379 L 0.103592,-103.353 z
M 9.36906,49.1143 L 15.4508,47.5528 L 21.289,45.2413 L 26.7913,42.2164 L 31.8712,38.5257 L 36.4484,34.2274
 L 40.4509,29.3893 L 43.8153,24.0877 L 46.4888,18.4062 L 48.4292,12.4345 L 49.6057,6.26665 L 50,-0
 L 49.6057,-6.26665 L 48.4292,-12.4345 L 46.4888,-18.4062 L 43.8153,-24.0877 L 40.4509,-29.3893 L 36.4484,-34.2274
 L 31.8712,-38.5257 L 26.7913,-42.2164 L 21.289,-45.2413 L 15.4508,-47.5528 L 9.36906,-49.1143 L 3.13951,-49.9013
 L -3.13951,-49.9013 L -9.36906,-49.1143 L -15.4508,-47.5528 L -21.289,-45.2413 L -26.7913,-42.2164 L -31.8712,-38.5257
 L -36.4484,-34.2274 L -40.4509,-29.3893 L -43.8153,-24.0877 L -46.4888,-18.4062 L -48.4292,-12.4345 L -49.6057,-6.26665
 L -50,-0 L -49.6057,6.26665 L -48.4292,12.4345 L -46.4888,18.4062 L -43.8153,24.0877 L -40.4509,29.3893
 L -36.4484,34.2274 L -31.8712,38.5257 L -26.7913,42.2164 L -21.289,45.2413 L -15.4508,47.5528 L -9.36906,49.1143
 L -3.13951,49.9013 L 3.13951,49.9013 z
M -0.103592,1.64674 L -0.309174,1.62077 L -0.509872,1.56923 L -0.70253,1.49295 L -0.884109,1.39313 L -1.05174,1.27133
 L -1.20279,1.1295 L -1.33487,0.969833 L -1.44589,0.794891 L -1.53412,0.607391 L -1.59816,0.410324 L -1.63698,0.206787
 L -1.64999,-0 L -1.63698,-0.206787 L -1.59816,-0.410324 L -1.53412,-0.607391 L -1.44589,-0.794891 L -1.33487,-0.969833
 L -1.20279,-1.1295 L -1.05174,-1.27133 L -0.884109,-1.39313 L -0.70253,-1.49295 L -0.509872,-1.56923 L -0.309174,-1.62077
 L -0.103592,-1.64674 L 0.103592,-1.64674 L 0.309174,-1.62077 L 0.509872,-1.56923 L 0.70253,-1.49295 L 0.884109,-1.39313
 L 1.05174,-1.27133 L 1.20279,-1.1295 L 1.33487,-0.969833 L 1.44589,-0.794891 L 1.53412,-0.607391 L 1.59816,-0.410324
 L 1.63698,-0.206787 L 1.64999,-0 L 1.63698,0.206787 L 1.59816,0.410324 L 1.53412,0.607391 L 1.44589,0.794891
 L 1.33487,0.969833 L 1.20279,1.1295 L 1.05174,1.27133 L 0.884109,1.39313 L 0.70253,1.49295 L 0.509872,1.56923
 L 0.309174,1.62077 L 0.103592,1.64674 z
" stroke="black" fill="lightgray" stroke-width="0.5"/>
</svg>
