  0
SECTION
  2
BLOCKS
  0
ENDSEC
  0
SECTION
  2
ENTITIES
  0
LINE
  8
0
 10
2.81071
 20
195.266
 11
4.63525
 21
195.734
  0
LINE
  8
0
 10
4.63525
 20
195.734
 11
6.38669
 21
196.428
  0
LINE
  8
0
 10
6.38669
 20
196.428
 11
8.0374
 21
197.335
  0
LINE
  8
0
 10
8.0374
 20
197.335
 11
9.56136
 21
198.442
  0
LINE
  8
0
 10
9.56136
 20
198.442
 11
10.9345
 21
199.732
  0
LINE
  8
0
 10
10.9345
 20
199.732
 11
12.1353
 21
201.183
  0
LINE
  8
0
 10
12.1353
 20
201.183
 11
13.1446
 21
202.774
  0
LINE
  8
0
 10
13.1446
 20
202.774
 11
13.9466
 21
204.478
  0
LINE
  8
0
 10
13.9466
 20
204.478
 11
14.5287
 21
206.27
  0
LINE
  8
0
 10
14.5287
 20
206.27
 11
14.8817
 21
208.12
  0
LINE
  8
0
 10
14.8817
 20
208.12
 11
15
 21
210
  0
LINE
  8
0
 10
15
 20
210
 11
14.8817
 21
211.88
  0
LINE
  8
0
 10
14.8817
 20
211.88
 11
14.5287
 21
213.73
  0
LINE
  8
0
 10
14.5287
 20
213.73
 11
13.9466
 21
215.522
  0
LINE
  8
0
 10
13.9466
 20
215.522
 11
13.1446
 21
217.226
  0
LINE
  8
0
 10
13.1446
 20
217.226
 11
12.1353
 21
218.817
  0
LINE
  8
0
 10
12.1353
 20
218.817
 11
10.9345
 21
220.268
  0
LINE
  8
0
 10
10.9345
 20
220.268
 11
9.56136
 21
221.558
  0
LINE
  8
0
 10
9.56136
 20
221.558
 11
8.0374
 21
222.665
  0
LINE
  8
0
 10
8.0374
 20
222.665
 11
6.38669
 21
223.572
  0
LINE
  8
0
 10
6.38669
 20
223.572
 11
4.63525
 21
224.266
  0
LINE
  8
0
 10
4.63525
 20
224.266
 11
2.81071
 21
224.734
  0
LINE
  8
0
 10
2.81071
 20
224.734
 11
0.941849
 21
224.97
  0
LINE
  8
0
 10
0.941849
 20
224.97
 11
-0.941849
 21
224.97
  0
LINE
  8
0
 10
-0.941849
 20
224.97
 11
-2.81071
 21
224.734
  0
LINE
  8
0
 10
-2.81071
 20
224.734
 11
-4.63525
 21
224.266
  0
LINE
  8
0
 10
-4.63525
 20
224.266
 11
-6.38669
 21
223.572
  0
LINE
  8
0
 10
-6.38669
 20
223.572
 11
-8.0374
 21
222.665
  0
LINE
  8
0
 10
-8.0374
 20
222.665
 11
-9.56136
 21
221.558
  0
LINE
  8
0
 10
-9.56136
 20
221.558
 11
-10.9345
 21
220.268
  0
LINE
  8
0
 10
-10.9345
 20
220.268
 11
-12.1353
 21
218.817
  0
LINE
  8
0
 10
-12.1353
 20
218.817
 11
-13.1446
 21
217.226
  0
LINE
  8
0
 10
-13.1446
 20
217.226
 11
-13.9466
 21
215.522
  0
LINE
  8
0
 10
-13.9466
 20
215.522
 11
-14.5287
 21
213.73
  0
LINE
  8
0
 10
-14.5287
 20
213.73
 11
-14.8817
 21
211.88
  0
LINE
  8
0
 10
-14.8817
 20
211.88
 11
-15
 21
210
  0
LINE
  8
0
 10
-15
 20
210
 11
-14.8817
 21
208.12
  0
LINE
  8
0
 10
-14.8817
 20
208.12
 11
-14.5287
 21
206.27
  0
LINE
  8
0
 10
-14.5287
 20
206.27
 11
-13.9466
 21
204.478
  0
LINE
  8
0
 10
-13.9466
 20
204.478
 11
-13.1446
 21
202.774
  0
LINE
  8
0
 10
-13.1446
 20
202.774
 11
-12.1353
 21
201.183
  0
LINE
  8
0
 10
-12.1353
 20
201.183
 11
-10.9345
 21
199.732
  0
LINE
  8
0
 10
-10.9345
 20
199.732
 11
-9.56136
 21
198.442
  0
LINE
  8
0
 10
-9.56136
 20
198.442
 11
-8.0374
 21
197.335
  0
LINE
  8
0
 10
-8.0374
 20
197.335
 11
-6.38669
 21
196.428
  0
LINE
  8
0
 10
-6.38669
 20
196.428
 11
-4.63525
 21
195.734
  0
LINE
  8
0
 10
-4.63525
 20
195.734
 11
-2.81071
 21
195.266
  0
LINE
  8
0
 10
-2.81071
 20
195.266
 11
-0.941849
 21
195.03
  0
LINE
  8
0
 10
-0.941849
 20
195.03
 11
0.941849
 21
195.03
  0
LINE
  8
0
 10
0.941849
 20
195.03
 11
2.81071
 21
195.266
  0
LINE
  8
0
 10
-0.111176
 20
208.233
 11
-0.331772
 21
208.261
  0
LINE
  8
0
 10
-0.331772
 20
208.261
 11
-0.547134
 21
208.316
  0
LINE
  8
0
 10
-0.547134
 20
208.316
 11
-0.753876
 21
208.398
  0
LINE
  8
0
 10
-0.753876
 20
208.398
 11
-0.948715
 21
208.505
  0
LINE
  8
0
 10
-0.948715
 20
208.505
 11
-1.1286
 21
208.636
  0
LINE
  8
0
 10
-1.1286
 20
208.636
 11
-1.2907
 21
208.788
  0
LINE
  8
0
 10
-1.2907
 20
208.788
 11
-1.43243
 21
208.959
  0
LINE
  8
0
 10
-1.43243
 20
208.959
 11
-1.55157
 21
209.147
  0
LINE
  8
0
 10
-1.55157
 20
209.147
 11
-1.64624
 21
209.348
  0
LINE
  8
0
 10
-1.64624
 20
209.348
 11
-1.71495
 21
209.56
  0
LINE
  8
0
 10
-1.71495
 20
209.56
 11
-1.75662
 21
209.778
  0
LINE
  8
0
 10
-1.75662
 20
209.778
 11
-1.77058
 21
210
  0
LINE
  8
0
 10
-1.77058
 20
210
 11
-1.75662
 21
210.222
  0
LINE
  8
0
 10
-1.75662
 20
210.222
 11
-1.71495
 21
210.44
  0
LINE
  8
0
 10
-1.71495
 20
210.44
 11
-1.64624
 21
210.652
  0
LINE
  8
0
 10
-1.64624
 20
210.652
 11
-1.55157
 21
210.853
  0
LINE
  8
0
 10
-1.55157
 20
210.853
 11
-1.43243
 21
211.041
  0
LINE
  8
0
 10
-1.43243
 20
211.041
 11
-1.2907
 21
211.212
  0
LINE
  8
0
 10
-1.2907
 20
211.212
 11
-1.1286
 21
211.364
  0
LINE
  8
0
 10
-1.1286
 20
211.364
 11
-0.948715
 21
211.495
  0
LINE
  8
0
 10
-0.948715
 20
211.495
 11
-0.753876
 21
211.602
  0
LINE
  8
0
 10
-0.753876
 20
211.602
 11
-0.547134
 21
211.684
  0
LINE
  8
0
 10
-0.547134
 20
211.684
 11
-0.331772
 21
211.739
  0
LINE
  8
0
 10
-0.331772
 20
211.739
 11
-0.111176
 21
211.767
  0
LINE
  8
0
 10
-0.111176
 20
211.767
 11
0.111176
 21
211.767
  0
LINE
  8
0
 10
0.111176
 20
211.767
 11
0.331772
 21
211.739
  0
LINE
  8
0
 10
0.331772
 20
211.739
 11
0.547134
 21
211.684
  0
LINE
  8
0
 10
0.547134
 20
211.684
 11
0.753876
 21
211.602
  0
LINE
  8
0
 10
0.753876
 20
211.602
 11
0.948715
 21
211.495
  0
LINE
  8
0
 10
0.948715
 20
211.495
 11
1.1286
 21
211.364
  0
LINE
  8
0
 10
1.1286
 20
211.364
 11
1.2907
 21
211.212
  0
LINE
  8
0
 10
1.2907
 20
211.212
 11
1.43243
 21
211.041
  0
LINE
  8
0
 10
1.43243
 20
211.041
 11
1.55157
 21
210.853
  0
LINE
  8
0
 10
1.55157
 20
210.853
 11
1.64624
 21
210.652
  0
LINE
  8
0
 10
1.64624
 20
210.652
 11
1.71495
 21
210.44
  0
LINE
  8
0
 10
1.71495
 20
210.44
 11
1.75662
 21
210.222
  0
LINE
  8
0
 10
1.75662
 20
210.222
 11
1.77058
 21
210
  0
LINE
  8
0
 10
1.77058
 20
210
 11
1.75662
 21
209.778
  0
LINE
  8
0
 10
1.75662
 20
209.778
 11
1.71495
 21
209.56
  0
LINE
  8
0
 10
1.71495
 20
209.56
 11
1.64624
 21
209.348
  0
LINE
  8
0
 10
1.64624
 20
209.348
 11
1.55157
 21
209.147
  0
LINE
  8
0
 10
1.55157
 20
209.147
 11
1.43243
 21
208.959
  0
LINE
  8
0
 10
1.43243
 20
208.959
 11
1.2907
 21
208.788
  0
LINE
  8
0
 10
1.2907
 20
208.788
 11
1.1286
 21
208.636
  0
LINE
  8
0
 10
1.1286
 20
208.636
 11
0.948715
 21
208.505
  0
LINE
  8
0
 10
0.948715
 20
208.505
 11
0.753876
 21
208.398
  0
LINE
  8
0
 10
0.753876
 20
208.398
 11
0.547134
 21
208.316
  0
LINE
  8
0
 10
0.547134
 20
208.316
 11
0.331772
 21
208.261
  0
LINE
  8
0
 10
0.331772
 20
208.261
 11
0.111176
 21
208.233
  0
LINE
  8
0
 10
0.111176
 20
208.233
 11
-0.111176
 21
208.233
  0
LINE
  8
0
 10
1.87381
 20
95.1771
 11
3.09016
 21
95.4894
  0
LINE
  8
0
 10
3.09016
 20
95.4894
 11
4.25778
 21
95.9517
  0
LINE
  8
0
 10
4.25778
 20
95.9517
 11
5.35826
 21
96.5567
  0
LINE
  8
0
 10
5.35826
 20
96.5567
 11
6.37424
 21
97.2949
  0
LINE
  8
0
 10
6.37424
 20
97.2949
 11
7.28967
 21
98.1545
  0
LINE
  8
0
 10
7.28967
 20
98.1545
 11
8.09016
 21
99.1222
  0
LINE
  8
0
 10
8.09016
 20
99.1222
 11
8.76306
 21
100.182
  0
LINE
  8
0
 10
8.76306
 20
100.182
 11
9.29776
 21
101.319
  0
LINE
  8
0
 10
9.29776
 20
101.319
 11
9.68582
 21
102.513
  0
LINE
  8
0
 10
9.68582
 20
102.513
 11
9.92114
 21
103.747
  0
LINE
  8
0
 10
9.92114
 20
103.747
 11
10
 21
105
  0
LINE
  8
0
 10
10
 20
105
 11
9.92114
 21
106.253
  0
LINE
  8
0
 10
9.92114
 20
106.253
 11
9.68582
 21
107.487
  0
LINE
  8
0
 10
9.68582
 20
107.487
 11
9.29776
 21
108.681
  0
LINE
  8
0
 10
9.29776
 20
108.681
 11
8.76306
 21
109.818
  0
LINE
  8
0
 10
8.76306
 20
109.818
 11
8.09016
 21
110.878
  0
LINE
  8
0
 10
8.09016
 20
110.878
 11
7.28967
 21
111.845
  0
LINE
  8
0
 10
7.28967
 20
111.845
 11
6.37424
 21
112.705
  0
LINE
  8
0
 10
6.37424
 20
112.705
 11
5.35826
 21
113.443
  0
LINE
  8
0
 10
5.35826
 20
113.443
 11
4.25778
 21
114.048
  0
LINE
  8
0
 10
4.25778
 20
114.048
 11
3.09016
 21
114.511
  0
LINE
  8
0
 10
3.09016
 20
114.511
 11
1.87381
 21
114.823
  0
LINE
  8
0
 10
1.87381
 20
114.823
 11
0.627899
 21
114.98
  0
LINE
  8
0
 10
0.627899
 20
114.98
 11
-0.627899
 21
114.98
  0
LINE
  8
0
 10
-0.627899
 20
114.98
 11
-1.87381
 21
114.823
  0
LINE
  8
0
 10
-1.87381
 20
114.823
 11
-3.09016
 21
114.511
  0
LINE
  8
0
 10
-3.09016
 20
114.511
 11
-4.25778
 21
114.048
  0
LINE
  8
0
 10
-4.25778
 20
114.048
 11
-5.35826
 21
113.443
  0
LINE
  8
0
 10
-5.35826
 20
113.443
 11
-6.37424
 21
112.705
  0
LINE
  8
0
 10
-6.37424
 20
112.705
 11
-7.28967
 21
111.845
  0
LINE
  8
0
 10
-7.28967
 20
111.845
 11
-8.09016
 21
110.878
  0
LINE
  8
0
 10
-8.09016
 20
110.878
 11
-8.76306
 21
109.818
  0
LINE
  8
0
 10
-8.76306
 20
109.818
 11
-9.29776
 21
108.681
  0
LINE
  8
0
 10
-9.29776
 20
108.681
 11
-9.68582
 21
107.487
  0
LINE
  8
0
 10
-9.68582
 20
107.487
 11
-9.92114
 21
106.253
  0
LINE
  8
0
 10
-9.92114
 20
106.253
 11
-10
 21
105
  0
LINE
  8
0
 10
-10
 20
105
 11
-9.92114
 21
103.747
  0
LINE
  8
0
 10
-9.92114
 20
103.747
 11
-9.68582
 21
102.513
  0
LINE
  8
0
 10
-9.68582
 20
102.513
 11
-9.29776
 21
101.319
  0
LINE
  8
0
 10
-9.29776
 20
101.319
 11
-8.76306
 21
100.182
  0
LINE
  8
0
 10
-8.76306
 20
100.182
 11
-8.09016
 21
99.1222
  0
LINE
  8
0
 10
-8.09016
 20
99.1222
 11
-7.28967
 21
98.1545
  0
LINE
  8
0
 10
-7.28967
 20
98.1545
 11
-6.37424
 21
97.2949
  0
LINE
  8
0
 10
-6.37424
 20
97.2949
 11
-5.35826
 21
96.5567
  0
LINE
  8
0
 10
-5.35826
 20
96.5567
 11
-4.25778
 21
95.9517
  0
LINE
  8
0
 10
-4.25778
 20
95.9517
 11
-3.09016
 21
95.4894
  0
LINE
  8
0
 10
-3.09016
 20
95.4894
 11
-1.87381
 21
95.1771
  0
LINE
  8
0
 10
-1.87381
 20
95.1771
 11
-0.627899
 21
95.0197
  0
LINE
  8
0
 10
-0.627899
 20
95.0197
 11
0.627899
 21
95.0197
  0
LINE
  8
0
 10
0.627899
 20
95.0197
 11
1.87381
 21
95.1771
  0
LINE
  8
0
 10
-0.103592
 20
103.353
 11
-0.309174
 21
103.379
  0
LINE
  8
0
 10
-0.309174
 20
103.379
 11
-0.509872
 21
103.431
  0
LINE
  8
0
 10
-0.509872
 20
103.431
 11
-0.70253
 21
103.507
  0
LINE
  8
0
 10
-0.70253
 20
103.507
 11
-0.884109
 21
103.607
  0
LINE
  8
0
 10
-0.884109
 20
103.607
 11
-1.05174
 21
103.729
  0
LINE
  8
0
 10
-1.05174
 20
103.729
 11
-1.20279
 21
103.87
  0
LINE
  8
0
 10
-1.20279
 20
103.87
 11
-1.33487
 21
104.03
  0
LINE
  8
0
 10
-1.33487
 20
104.03
 11
-1.44589
 21
104.205
  0
LINE
  8
0
 10
-1.44589
 20
104.205
 11
-1.53412
 21
104.393
  0
LINE
  8
0
 10
-1.53412
 20
104.393
 11
-1.59816
 21
104.59
  0
LINE
  8
0
 10
-1.59816
 20
104.59
 11
-1.63698
 21
104.793
  0
LINE
  8
0
 10
-1.63698
 20
104.793
 11
-1.64999
 21
105
  0
LINE
  8
0
 10
-1.64999
 20
105
 11
-1.63698
 21
105.207
  0
LINE
  8
0
 10
-1.63698
 20
105.207
 11
-1.59816
 21
105.41
  0
LINE
  8
0
 10
-1.59816
 20
105.41
 11
-1.53412
 21
105.607
  0
LINE
  8
0
 10
-1.53412
 20
105.607
 11
-1.44589
 21
105.795
  0
LINE
  8
0
 10
-1.44589
 20
105.795
 11
-1.33487
 21
105.97
  0
LINE
  8
0
 10
-1.33487
 20
105.97
 11
-1.20279
 21
106.13
  0
LINE
  8
0
 10
-1.20279
 20
106.13
 11
-1.05174
 21
106.271
  0
LINE
  8
0
 10
-1.05174
 20
106.271
 11
-0.884109
 21
106.393
  0
LINE
  8
0
 10
-0.884109
 20
106.393
 11
-0.70253
 21
106.493
  0
LINE
  8
0
 10
-0.70253
 20
106.493
 11
-0.509872
 21
106.569
  0
LINE
  8
0
 10
-0.509872
 20
106.569
 11
-0.309174
 21
106.621
  0
LINE
  8
0
 10
-0.309174
 20
106.621
 11
-0.103592
 21
106.647
  0
LINE
  8
0
 10
-0.103592
 20
106.647
 11
0.103592
 21
106.647
  0
LINE
  8
0
 10
0.103592
 20
106.647
 11
0.309174
 21
106.621
  0
LINE
  8
0
 10
0.309174
 20
106.621
 11
0.509872
 21
106.569
  0
LINE
  8
0
 10
0.509872
 20
106.569
 11
0.70253
 21
106.493
  0
LINE
  8
0
 10
0.70253
 20
106.493
 11
0.884109
 21
106.393
  0
LINE
  8
0
 10
0.884109
 20
106.393
 11
1.05174
 21
106.271
  0
LINE
  8
0
 10
1.05174
 20
106.271
 11
1.20279
 21
106.13
  0
LINE
  8
0
 10
1.20279
 20
106.13
 11
1.33487
 21
105.97
  0
LINE
  8
0
 10
1.33487
 20
105.97
 11
1.44589
 21
105.795
  0
LINE
  8
0
 10
1.44589
 20
105.795
 11
1.53412
 21
105.607
  0
LINE
  8
0
 10
1.53412
 20
105.607
 11
1.59816
 21
105.41
  0
LINE
  8
0
 10
1.59816
 20
105.41
 11
1.63698
 21
105.207
  0
LINE
  8
0
 10
1.63698
 20
105.207
 11
1.64999
 21
105
  0
LINE
  8
0
 10
1.64999
 20
105
 11
1.63698
 21
104.793
  0
LINE
  8
0
 10
1.63698
 20
104.793
 11
1.59816
 21
104.59
  0
LINE
  8
0
 10
1.59816
 20
104.59
 11
1.53412
 21
104.393
  0
LINE
  8
0
 10
1.53412
 20
104.393
 11
1.44589
 21
104.205
  0
LINE
  8
0
 10
1.44589
 20
104.205
 11
1.33487
 21
104.03
  0
LINE
  8
0
 10
1.33487
 20
104.03
 11
1.20279
 21
103.87
  0
LINE
  8
0
 10
1.20279
 20
103.87
 11
1.05174
 21
103.729
  0
LINE
  8
0
 10
1.05174
 20
103.729
 11
0.884109
 21
103.607
  0
LINE
  8
0
 10
0.884109
 20
103.607
 11
0.70253
 21
103.507
  0
LINE
  8
0
 10
0.70253
 20
103.507
 11
0.509872
 21
103.431
  0
LINE
  8
0
 10
0.509872
 20
103.431
 11
0.309174
 21
103.379
  0
LINE
  8
0
 10
0.309174
 20
103.379
 11
0.103592
 21
103.353
  0
LINE
  8
0
 10
0.103592
 20
103.353
 11
-0.103592
 21
103.353
  0
LINE
  8
0
 10
9.36906
 20
-49.1143
 11
15.4508
 21
-47.5528
  0
LINE
  8
0
 10
15.4508
 20
-47.5528
 11
21.289
 21
-45.2413
  0
LINE
  8
0
 10
21.289
 20
-45.2413
 11
26.7913
 21
-42.2164
  0
LINE
  8
0
 10
26.7913
 20
-42.2164
 11
31.8712
 21
-38.5257
  0
LINE
  8
0
 10
31.8712
 20
-38.5257
 11
36.4484
 21
-34.2274
  0
LINE
  8
0
 10
36.4484
 20
-34.2274
 11
40.4509
 21
-29.3893
  0
LINE
  8
0
 10
40.4509
 20
-29.3893
 11
43.8153
 21
-24.0877
  0
LINE
  8
0
 10
43.8153
 20
-24.0877
 11
46.4888
 21
-18.4062
  0
LINE
  8
0
 10
46.4888
 20
-18.4062
 11
48.4292
 21
-12.4345
  0
LINE
  8
0
 10
48.4292
 20
-12.4345
 11
49.6057
 21
-6.26665
  0
LINE
  8
0
 10
49.6057
 20
-6.26665
 11
50
 21
0
  0
LINE
  8
0
 10
50
 20
0
 11
49.6057
 21
6.26665
  0
LINE
  8
0
 10
49.6057
 20
6.26665
 11
48.4292
 21
12.4345
  0
LINE
  8
0
 10
48.4292
 20
12.4345
 11
46.4888
 21
18.4062
  0
LINE
  8
0
 10
46.4888
 20
18.4062
 11
43.8153
 21
24.0877
  0
LINE
  8
0
 10
43.8153
 20
24.0877
 11
40.4509
 21
29.3893
  0
LINE
  8
0
 10
40.4509
 20
29.3893
 11
36.4484
 21
34.2274
  0
LINE
  8
0
 10
36.4484
 20
34.2274
 11
31.8712
 21
38.5257
  0
LINE
  8
0
 10
31.8712
 20
38.5257
 11
26.7913
 21
42.2164
  0
LINE
  8
0
 10
26.7913
 20
42.2164
 11
21.289
 21
45.2413
  0
LINE
  8
0
 10
21.289
 20
45.2413
 11
15.4508
 21
47.5528
  0
LINE
  8
0
 10
15.4508
 20
47.5528
 11
9.36906
 21
49.1143
  0
LINE
  8
0
 10
9.36906
 20
49.1143
 11
3.13951
 21
49.9013
  0
LINE
  8
0
 10
3.13951
 20
49.9013
 11
-3.13951
 21
49.9013
  0
LINE
  8
0
 10
-3.13951
 20
49.9013
 11
-9.36906
 21
49.1143
  0
LINE
  8
0
 10
-9.36906
 20
49.1143
 11
-15.4508
 21
47.5528
  0
LINE
  8
0
 10
-15.4508
 20
47.5528
 11
-21.289
 21
45.2413
  0
LINE
  8
0
 10
-21.289
 20
45.2413
 11
-26.7913
 21
42.2164
  0
LINE
  8
0
 10
-26.7913
 20
42.2164
 11
-31.8712
 21
38.5257
  0
LINE
  8
0
 10
-31.8712
 20
38.5257
 11
-36.4484
 21
34.2274
  0
LINE
  8
0
 10
-36.4484
 20
34.2274
 11
-40.4509
 21
29.3893
  0
LINE
  8
0
 10
-40.4509
 20
29.3893
 11
-43.8153
 21
24.0877
  0
LINE
  8
0
 10
-43.8153
 20
24.0877
 11
-46.4888
 21
18.4062
  0
LINE
  8
0
 10
-46.4888
 20
18.4062
 11
-48.4292
 21
12.4345
  0
LINE
  8
0
 10
-48.4292
 20
12.4345
 11
-49.6057
 21
6.26665
  0
LINE
  8
0
 10
-49.6057
 20
6.26665
 11
-50
 21
0
  0
LINE
  8
0
 10
-50
 20
0
 11
-49.6057
 21
-6.26665
  0
LINE
  8
0
 10
-49.6057
 20
-6.26665
 11
-48.4292
 21
-12.4345
  0
LINE
  8
0
 10
-48.4292
 20
-12.4345
 11
-46.4888
 21
-18.4062
  0
LINE
  8
0
 10
-46.4888
 20
-18.4062
 11
-43.8153
 21
-24.0877
  0
LINE
  8
0
 10
-43.8153
 20
-24.0877
 11
-40.4509
 21
-29.3893
  0
LINE
  8
0
 10
-40.4509
 20
-29.3893
 11
-36.4484
 21
-34.2274
  0
LINE
  8
0
 10
-36.4484
 20
-34.2274
 11
-31.8712
 21
-38.5257
  0
LINE
  8
0
 10
-31.8712
 20
-38.5257
 11
-26.7913
 21
-42.2164
  0
LINE
  8
0
 10
-26.7913
 20
-42.2164
 11
-21.289
 21
-45.2413
  0
LINE
  8
0
 10
-21.289
 20
-45.2413
 11
-15.4508
 21
-47.5528
  0
LINE
  8
0
 10
-15.4508
 20
-47.5528
 11
-9.36906
 21
-49.1143
  0
LINE
  8
0
 10
-9.36906
 20
-49.1143
 11
-3.13951
 21
-49.9013
  0
LINE
  8
0
 10
-3.13951
 20
-49.9013
 11
3.13951
 21
-49.9013
  0
LINE
  8
0
 10
3.13951
 20
-49.9013
 11
9.36906
 21
-49.1143
  0
LINE
  8
0
 10
-0.103592
 20
-1.64674
 11
-0.309174
 21
-1.62077
  0
LINE
  8
0
 10
-0.309174
 20
-1.62077
 11
-0.509872
 21
-1.56923
  0
LINE
  8
0
 10
-0.509872
 20
-1.56923
 11
-0.70253
 21
-1.49295
  0
LINE
  8
0
 10
-0.70253
 20
-1.49295
 11
-0.884109
 21
-1.39313
  0
LINE
  8
0
 10
-0.884109
 20
-1.39313
 11
-1.05174
 21
-1.27133
  0
LINE
  8
0
 10
-1.05174
 20
-1.27133
 11
-1.20279
 21
-1.1295
  0
LINE
  8
0
 10
-1.20279
 20
-1.1295
 11
-1.33487
 21
-0.969833
  0
LINE
  8
0
 10
-1.33487
 20
-0.969833
 11
-1.44589
 21
-0.794891
  0
LINE
  8
0
 10
-1.44589
 20
-0.794891
 11
-1.53412
 21
-0.607391
  0
LINE
  8
0
 10
-1.53412
 20
-0.607391
 11
-1.59816
 21
-0.410324
  0
LINE
  8
0
 10
-1.59816
 20
-0.410324
 11
-1.63698
 21
-0.206787
  0
LINE
  8
0
 10
-1.63698
 20
-0.206787
 11
-1.64999
 21
0
  0
LINE
  8
0
 10
-1.64999
 20
0
 11
-1.63698
 21
0.206787
  0
LINE
  8
0
 10
-1.63698
 20
0.206787
 11
-1.59816
 21
0.410324
  0
LINE
  8
0
 10
-1.59816
 20
0.410324
 11
-1.53412
 21
0.607391
  0
LINE
  8
0
 10
-1.53412
 20
0.607391
 11
-1.44589
 21
0.794891
  0
LINE
  8
0
 10
-1.44589
 20
0.794891
 11
-1.33487
 21
0.969833
  0
LINE
  8
0
 10
-1.33487
 20
0.969833
 11
-1.20279
 21
1.1295
  0
LINE
  8
0
 10
-1.20279
 20
1.1295
 11
-1.05174
 21
1.27133
  0
LINE
  8
0
 10
-1.05174
 20
1.27133
 11
-0.884109
 21
1.39313
  0
LINE
  8
0
 10
-0.884109
 20
1.39313
 11
-0.70253
 21
1.49295
  0
LINE
  8
0
 10
-0.70253
 20
1.49295
 11
-0.509872
 21
1.56923
  0
LINE
  8
0
 10
-0.509872
 20
1.56923
 11
-0.309174
 21
1.62077
  0
LINE
  8
0
 10
-0.309174
 20
1.62077
 11
-0.103592
 21
1.64674
  0
LINE
  8
0
 10
-0.103592
 20
1.64674
 11
0.103592
 21
1.64674
  0
LINE
  8
0
 10
0.103592
 20
1.64674
 11
0.309174
 21
1.62077
  0
LINE
  8
0
 10
0.309174
 20
1.62077
 11
0.509872
 21
1.56923
  0
LINE
  8
0
 10
0.509872
 20
1.56923
 11
0.70253
 21
1.49295
  0
LINE
  8
0
 10
0.70253
 20
1.49295
 11
0.884109
 21
1.39313
  0
LINE
  8
0
 10
0.884109
 20
1.39313
 11
1.05174
 21
1.27133
  0
LINE
  8
0
 10
1.05174
 20
1.27133
 11
1.20279
 21
1.1295
  0
LINE
  8
0
 10
1.20279
 20
1.1295
 11
1.33487
 21
0.969833
  0
LINE
  8
0
 10
1.33487
 20
0.969833
 11
1.44589
 21
0.794891
  0
LINE
  8
0
 10
1.44589
 20
0.794891
 11
1.53412
 21
0.607391
  0
LINE
  8
0
 10
1.53412
 20
0.607391
 11
1.59816
 21
0.410324
  0
LINE
  8
0
 10
1.59816
 20
0.410324
 11
1.63698
 21
0.206787
  0
LINE
  8
0
 10
1.63698
 20
0.206787
 11
1.64999
 21
0
  0
LINE
  8
0
 10
1.64999
 20
0
 11
1.63698
 21
-0.206787
  0
LINE
  8
0
 10
1.63698
 20
-0.206787
 11
1.59816
 21
-0.410324
  0
LINE
  8
0
 10
1.59816
 20
-0.410324
 11
1.53412
 21
-0.607391
  0
LINE
  8
0
 10
1.53412
 20
-0.607391
 11
1.44589
 21
-0.794891
  0
LINE
  8
0
 10
1.44589
 20
-0.794891
 11
1.33487
 21
-0.969833
  0
LINE
  8
0
 10
1.33487
 20
-0.969833
 11
1.20279
 21
-1.1295
  0
LINE
  8
0
 10
1.20279
 20
-1.1295
 11
1.05174
 21
-1.27133
  0
LINE
  8
0
 10
1.05174
 20
-1.27133
 11
0.884109
 21
-1.39313
  0
LINE
  8
0
 10
0.884109
 20
-1.39313
 11
0.70253
 21
-1.49295
  0
LINE
  8
0
 10
0.70253
 20
-1.49295
 11
0.509872
 21
-1.56923
  0
LINE
  8
0
 10
0.509872
 20
-1.56923
 11
0.309174
 21
-1.62077
  0
LINE
  8
0
 10
0.309174
 20
-1.62077
 11
0.103592
 21
-1.64674
  0
LINE
  8
0
 10
0.103592
 20
-1.64674
 11
-0.103592
 21
-1.64674
  0
ENDSEC
  0
SECTION
  2
OBJECTS
  0
DICTIONARY
  0
ENDSEC
  0
EOF
