  0
SECTION
  2
BLOCKS
  0
ENDSEC
  0
SECTION
  2
ENTITIES
  0
LINE
  8
0
 10
28.1072
 20
-147.343
 11
46.3525
 21
-142.658
  0
LINE
  8
0
 10
46.3525
 20
-142.658
 11
63.8669
 21
-135.724
  0
LINE
  8
0
 10
63.8669
 20
-135.724
 11
80.374
 21
-126.649
  0
LINE
  8
0
 10
80.374
 20
-126.649
 11
95.6136
 21
-115.577
  0
LINE
  8
0
 10
95.6136
 20
-115.577
 11
109.345
 21
-102.682
  0
LINE
  8
0
 10
109.345
 20
-102.682
 11
121.353
 21
-88.1678
  0
LINE
  8
0
 10
121.353
 20
-88.1678
 11
131.446
 21
-72.263
  0
LINE
  8
0
 10
131.446
 20
-72.263
 11
139.466
 21
-55.2187
  0
LINE
  8
0
 10
139.466
 20
-55.2187
 11
145.287
 21
-37.3035
  0
LINE
  8
0
 10
145.287
 20
-37.3035
 11
148.817
 21
-18.8
  0
LINE
  8
0
 10
148.817
 20
-18.8
 11
150
 21
0
  0
LINE
  8
0
 10
150
 20
0
 11
148.817
 21
18.8
  0
LINE
  8
0
 10
148.817
 20
18.8
 11
145.287
 21
37.3035
  0
LINE
  8
0
 10
145.287
 20
37.3035
 11
139.466
 21
55.2187
  0
LINE
  8
0
 10
139.466
 20
55.2187
 11
131.446
 21
72.263
  0
LINE
  8
0
 10
131.446
 20
72.263
 11
121.353
 21
88.1678
  0
LINE
  8
0
 10
121.353
 20
88.1678
 11
109.345
 21
102.682
  0
LINE
  8
0
 10
109.345
 20
102.682
 11
95.6136
 21
115.577
  0
LINE
  8
0
 10
95.6136
 20
115.577
 11
80.374
 21
126.649
  0
LINE
  8
0
 10
80.374
 20
126.649
 11
63.8669
 21
135.724
  0
LINE
  8
0
 10
63.8669
 20
135.724
 11
46.3525
 21
142.658
  0
LINE
  8
0
 10
46.3525
 20
142.658
 11
28.1072
 21
147.343
  0
LINE
  8
0
 10
28.1072
 20
147.343
 11
9.41856
 21
149.704
  0
LINE
  8
0
 10
9.41856
 20
149.704
 11
-9.41856
 21
149.704
  0
LINE
  8
0
 10
-9.41856
 20
149.704
 11
-28.1072
 21
147.343
  0
LINE
  8
0
 10
-28.1072
 20
147.343
 11
-46.3525
 21
142.658
  0
LINE
  8
0
 10
-46.3525
 20
142.658
 11
-63.8669
 21
135.724
  0
LINE
  8
0
 10
-63.8669
 20
135.724
 11
-80.374
 21
126.649
  0
LINE
  8
0
 10
-80.374
 20
126.649
 11
-95.6136
 21
115.577
  0
LINE
  8
0
 10
-95.6136
 20
115.577
 11
-109.345
 21
102.682
  0
LINE
  8
0
 10
-109.345
 20
102.682
 11
-121.353
 21
88.1678
  0
LINE
  8
0
 10
-121.353
 20
88.1678
 11
-131.446
 21
72.263
  0
LINE
  8
0
 10
-131.446
 20
72.263
 11
-139.466
 21
55.2187
  0
LINE
  8
0
 10
-139.466
 20
55.2187
 11
-145.287
 21
37.3035
  0
LINE
  8
0
 10
-145.287
 20
37.3035
 11
-148.817
 21
18.8
  0
LINE
  8
0
 10
-148.817
 20
18.8
 11
-150
 21
0
  0
LINE
  8
0
 10
-150
 20
0
 11
-148.817
 21
-18.8
  0
LINE
  8
0
 10
-148.817
 20
-18.8
 11
-145.287
 21
-37.3035
  0
LINE
  8
0
 10
-145.287
 20
-37.3035
 11
-139.466
 21
-55.2187
  0
LINE
  8
0
 10
-139.466
 20
-55.2187
 11
-131.446
 21
-72.263
  0
LINE
  8
0
 10
-131.446
 20
-72.263
 11
-121.353
 21
-88.1678
  0
LINE
  8
0
 10
-121.353
 20
-88.1678
 11
-109.345
 21
-102.682
  0
LINE
  8
0
 10
-109.345
 20
-102.682
 11
-95.6136
 21
-115.577
  0
LINE
  8
0
 10
-95.6136
 20
-115.577
 11
-80.374
 21
-126.649
  0
LINE
  8
0
 10
-80.374
 20
-126.649
 11
-63.8669
 21
-135.724
  0
LINE
  8
0
 10
-63.8669
 20
-135.724
 11
-46.3525
 21
-142.658
  0
LINE
  8
0
 10
-46.3525
 20
-142.658
 11
-28.1072
 21
-147.343
  0
LINE
  8
0
 10
-28.1072
 20
-147.343
 11
-9.41856
 21
-149.704
  0
LINE
  8
0
 10
-9.41856
 20
-149.704
 11
9.41856
 21
-149.704
  0
LINE
  8
0
 10
9.41856
 20
-149.704
 11
28.1072
 21
-147.343
  0
LINE
  8
0
 10
-1.25333
 20
90.0789
 11
-2.48689
 21
90.3142
  0
LINE
  8
0
 10
-2.48689
 20
90.3142
 11
-3.68124
 21
90.7022
  0
LINE
  8
0
 10
-3.68124
 20
90.7022
 11
-4.81754
 21
91.2369
  0
LINE
  8
0
 10
-4.81754
 20
91.2369
 11
-5.87784
 21
91.9098
  0
LINE
  8
0
 10
-5.87784
 20
91.9098
 11
-6.84546
 21
92.7103
  0
LINE
  8
0
 10
-6.84546
 20
92.7103
 11
-7.70512
 21
93.6258
  0
LINE
  8
0
 10
-7.70512
 20
93.6258
 11
-8.44327
 21
94.6417
  0
LINE
  8
0
 10
-8.44327
 20
94.6417
 11
-9.04826
 21
95.7422
  0
LINE
  8
0
 10
-9.04826
 20
95.7422
 11
-9.51056
 21
96.9098
  0
LINE
  8
0
 10
-9.51056
 20
96.9098
 11
-9.82286
 21
98.1262
  0
LINE
  8
0
 10
-9.82286
 20
98.1262
 11
-9.98026
 21
99.3721
  0
LINE
  8
0
 10
-9.98026
 20
99.3721
 11
-9.98026
 21
117.493
  0
LINE
  8
0
 10
-9.98026
 20
117.493
 11
-10.1127
 21
117.653
  0
LINE
  8
0
 10
-10.1127
 20
117.653
 11
-10.9538
 21
118.978
  0
LINE
  8
0
 10
-10.9538
 20
118.978
 11
-11.6222
 21
120.398
  0
LINE
  8
0
 10
-11.6222
 20
120.398
 11
-12.1073
 21
121.891
  0
LINE
  8
0
 10
-12.1073
 20
121.891
 11
-12.4014
 21
123.433
  0
LINE
  8
0
 10
-12.4014
 20
123.433
 11
-12.5
 21
125
  0
LINE
  8
0
 10
-12.5
 20
125
 11
-12.4014
 21
126.567
  0
LINE
  8
0
 10
-12.4014
 20
126.567
 11
-12.1073
 21
128.109
  0
LINE
  8
0
 10
-12.1073
 20
128.109
 11
-11.6222
 21
129.602
  0
LINE
  8
0
 10
-11.6222
 20
129.602
 11
-10.9538
 21
131.022
  0
LINE
  8
0
 10
-10.9538
 20
131.022
 11
-10.1127
 21
132.347
  0
LINE
  8
0
 10
-10.1127
 20
132.347
 11
-9.11211
 21
133.557
  0
LINE
  8
0
 10
-9.11211
 20
133.557
 11
-7.96779
 21
134.631
  0
LINE
  8
0
 10
-7.96779
 20
134.631
 11
-6.69783
 21
135.554
  0
LINE
  8
0
 10
-6.69783
 20
135.554
 11
-5.32224
 21
136.31
  0
LINE
  8
0
 10
-5.32224
 20
136.31
 11
-3.8627
 21
136.888
  0
LINE
  8
0
 10
-3.8627
 20
136.888
 11
-2.34225
 21
137.279
  0
LINE
  8
0
 10
-2.34225
 20
137.279
 11
-0.784866
 21
137.475
  0
LINE
  8
0
 10
-0.784866
 20
137.475
 11
0.784866
 21
137.475
  0
LINE
  8
0
 10
0.784866
 20
137.475
 11
2.34225
 21
137.279
  0
LINE
  8
0
 10
2.34225
 20
137.279
 11
3.8627
 21
136.888
  0
LINE
  8
0
 10
3.8627
 20
136.888
 11
5.32224
 21
136.31
  0
LINE
  8
0
 10
5.32224
 20
136.31
 11
6.69783
 21
135.554
  0
LINE
  8
0
 10
6.69783
 20
135.554
 11
7.96779
 21
134.631
  0
LINE
  8
0
 10
7.96779
 20
134.631
 11
9.11211
 21
133.557
  0
LINE
  8
0
 10
9.11211
 20
133.557
 11
10.1127
 21
132.347
  0
LINE
  8
0
 10
10.1127
 20
132.347
 11
10.9538
 21
131.022
  0
LINE
  8
0
 10
10.9538
 20
131.022
 11
11.6222
 21
129.602
  0
LINE
  8
0
 10
11.6222
 20
129.602
 11
12.1073
 21
128.109
  0
LINE
  8
0
 10
12.1073
 20
128.109
 11
12.4014
 21
126.567
  0
LINE
  8
0
 10
12.4014
 20
126.567
 11
12.5
 21
125
  0
LINE
  8
0
 10
12.5
 20
125
 11
12.4014
 21
123.433
  0
LINE
  8
0
 10
12.4014
 20
123.433
 11
12.1073
 21
121.891
  0
LINE
  8
0
 10
12.1073
 20
121.891
 11
11.6222
 21
120.398
  0
LINE
  8
0
 10
11.6222
 20
120.398
 11
10.9538
 21
118.978
  0
LINE
  8
0
 10
10.9538
 20
118.978
 11
10.1127
 21
117.653
  0
LINE
  8
0
 10
10.1127
 20
117.653
 11
9.98026
 21
117.493
  0
LINE
  8
0
 10
9.98026
 20
117.493
 11
9.98026
 21
99.3721
  0
LINE
  8
0
 10
9.98026
 20
99.3721
 11
9.82286
 21
98.1262
  0
LINE
  8
0
 10
9.82286
 20
98.1262
 11
9.51056
 21
96.9098
  0
LINE
  8
0
 10
9.51056
 20
96.9098
 11
9.04826
 21
95.7422
  0
LINE
  8
0
 10
9.04826
 20
95.7422
 11
8.44327
 21
94.6417
  0
LINE
  8
0
 10
8.44327
 20
94.6417
 11
7.70512
 21
93.6258
  0
LINE
  8
0
 10
7.70512
 20
93.6258
 11
6.84546
 21
92.7103
  0
LINE
  8
0
 10
6.84546
 20
92.7103
 11
5.87784
 21
91.9098
  0
LINE
  8
0
 10
5.87784
 20
91.9098
 11
4.81754
 21
91.2369
  0
LINE
  8
0
 10
4.81754
 20
91.2369
 11
3.68124
 21
90.7022
  0
LINE
  8
0
 10
3.68124
 20
90.7022
 11
2.48689
 21
90.3142
  0
LINE
  8
0
 10
2.48689
 20
90.3142
 11
1.25333
 21
90.0789
  0
LINE
  8
0
 10
1.25333
 20
90.0789
 11
0
 21
90
  0
LINE
  8
0
 10
0
 20
90
 11
-1.25333
 21
90.0789
  0
LINE
  8
0
 10
-70.2507
 20
98.0158
 11
-70.4974
 21
98.0628
  0
LINE
  8
0
 10
-70.4974
 20
98.0628
 11
-70.7363
 21
98.1404
  0
LINE
  8
0
 10
-70.7363
 20
98.1404
 11
-70.9635
 21
98.2474
  0
LINE
  8
0
 10
-70.9635
 20
98.2474
 11
-71.1756
 21
98.382
  0
LINE
  8
0
 10
-71.1756
 20
98.382
 11
-71.3691
 21
98.5421
  0
LINE
  8
0
 10
-71.3691
 20
98.5421
 11
-71.541
 21
98.7251
  0
LINE
  8
0
 10
-71.541
 20
98.7251
 11
-71.6886
 21
98.9283
  0
LINE
  8
0
 10
-71.6886
 20
98.9283
 11
-71.8096
 21
99.1484
  0
LINE
  8
0
 10
-71.8096
 20
99.1484
 11
-71.9021
 21
99.382
  0
LINE
  8
0
 10
-71.9021
 20
99.382
 11
-71.9646
 21
99.6252
  0
LINE
  8
0
 10
-71.9646
 20
99.6252
 11
-71.996
 21
99.8744
  0
LINE
  8
0
 10
-71.996
 20
99.8744
 11
-71.996
 21
104.542
  0
LINE
  8
0
 10
-71.996
 20
104.542
 11
-72.1433
 21
104.623
  0
LINE
  8
0
 10
-72.1433
 20
104.623
 11
-72.5497
 21
104.918
  0
LINE
  8
0
 10
-72.5497
 20
104.918
 11
-72.9159
 21
105.262
  0
LINE
  8
0
 10
-72.9159
 20
105.262
 11
-73.2361
 21
105.649
  0
LINE
  8
0
 10
-73.2361
 20
105.649
 11
-73.5052
 21
106.073
  0
LINE
  8
0
 10
-73.5052
 20
106.073
 11
-73.7191
 21
106.527
  0
LINE
  8
0
 10
-73.7191
 20
106.527
 11
-73.8743
 21
107.005
  0
LINE
  8
0
 10
-73.8743
 20
107.005
 11
-73.9685
 21
107.499
  0
LINE
  8
0
 10
-73.9685
 20
107.499
 11
-74
 21
108
  0
LINE
  8
0
 10
-74
 20
108
 11
-73.9685
 21
108.501
  0
LINE
  8
0
 10
-73.9685
 20
108.501
 11
-73.8743
 21
108.995
  0
LINE
  8
0
 10
-73.8743
 20
108.995
 11
-73.7191
 21
109.472
  0
LINE
  8
0
 10
-73.7191
 20
109.472
 11
-73.5052
 21
109.927
  0
LINE
  8
0
 10
-73.5052
 20
109.927
 11
-73.2361
 21
110.351
  0
LINE
  8
0
 10
-73.2361
 20
110.351
 11
-72.9159
 21
110.738
  0
LINE
  8
0
 10
-72.9159
 20
110.738
 11
-72.5497
 21
111.082
  0
LINE
  8
0
 10
-72.5497
 20
111.082
 11
-72.1433
 21
111.377
  0
LINE
  8
0
 10
-72.1433
 20
111.377
 11
-71.7031
 21
111.619
  0
LINE
  8
0
 10
-71.7031
 20
111.619
 11
-71.2361
 21
111.804
  0
LINE
  8
0
 10
-71.2361
 20
111.804
 11
-70.7495
 21
111.929
  0
LINE
  8
0
 10
-70.7495
 20
111.929
 11
-70.2512
 21
111.992
  0
LINE
  8
0
 10
-70.2512
 20
111.992
 11
-69.7488
 21
111.992
  0
LINE
  8
0
 10
-69.7488
 20
111.992
 11
-69.2505
 21
111.929
  0
LINE
  8
0
 10
-69.2505
 20
111.929
 11
-68.7639
 21
111.804
  0
LINE
  8
0
 10
-68.7639
 20
111.804
 11
-68.2969
 21
111.619
  0
LINE
  8
0
 10
-68.2969
 20
111.619
 11
-67.8567
 21
111.377
  0
LINE
  8
0
 10
-67.8567
 20
111.377
 11
-67.4503
 21
111.082
  0
LINE
  8
0
 10
-67.4503
 20
111.082
 11
-67.0841
 21
110.738
  0
LINE
  8
0
 10
-67.0841
 20
110.738
 11
-66.7639
 21
110.351
  0
LINE
  8
0
 10
-66.7639
 20
110.351
 11
-66.4948
 21
109.927
  0
LINE
  8
0
 10
-66.4948
 20
109.927
 11
-66.2809
 21
109.472
  0
LINE
  8
0
 10
-66.2809
 20
109.472
 11
-66.1257
 21
108.995
  0
LINE
  8
0
 10
-66.1257
 20
108.995
 11
-66.0315
 21
108.501
  0
LINE
  8
0
 10
-66.0315
 20
108.501
 11
-66
 21
108
  0
LINE
  8
0
 10
-66
 20
108
 11
-66.0315
 21
107.499
  0
LINE
  8
0
 10
-66.0315
 20
107.499
 11
-66.1257
 21
107.005
  0
LINE
  8
0
 10
-66.1257
 20
107.005
 11
-66.2809
 21
106.527
  0
LINE
  8
0
 10
-66.2809
 20
106.527
 11
-66.4948
 21
106.073
  0
LINE
  8
0
 10
-66.4948
 20
106.073
 11
-66.7639
 21
105.649
  0
LINE
  8
0
 10
-66.7639
 20
105.649
 11
-67.0841
 21
105.262
  0
LINE
  8
0
 10
-67.0841
 20
105.262
 11
-67.4503
 21
104.918
  0
LINE
  8
0
 10
-67.4503
 20
104.918
 11
-67.8567
 21
104.623
  0
LINE
  8
0
 10
-67.8567
 20
104.623
 11
-68.0039
 21
104.542
  0
LINE
  8
0
 10
-68.0039
 20
104.542
 11
-68.0039
 21
99.8744
  0
LINE
  8
0
 10
-68.0039
 20
99.8744
 11
-68.0354
 21
99.6252
  0
LINE
  8
0
 10
-68.0354
 20
99.6252
 11
-68.0979
 21
99.382
  0
LINE
  8
0
 10
-68.0979
 20
99.382
 11
-68.1903
 21
99.1484
  0
LINE
  8
0
 10
-68.1903
 20
99.1484
 11
-68.3113
 21
98.9283
  0
LINE
  8
0
 10
-68.3113
 20
98.9283
 11
-68.459
 21
98.7251
  0
LINE
  8
0
 10
-68.459
 20
98.7251
 11
-68.6309
 21
98.5421
  0
LINE
  8
0
 10
-68.6309
 20
98.5421
 11
-68.8244
 21
98.382
  0
LINE
  8
0
 10
-68.8244
 20
98.382
 11
-69.0365
 21
98.2474
  0
LINE
  8
0
 10
-69.0365
 20
98.2474
 11
-69.2637
 21
98.1404
  0
LINE
  8
0
 10
-69.2637
 20
98.1404
 11
-69.5026
 21
98.0628
  0
LINE
  8
0
 10
-69.5026
 20
98.0628
 11
-69.7493
 21
98.0158
  0
LINE
  8
0
 10
-69.7493
 20
98.0158
 11
-70
 21
98
  0
LINE
  8
0
 10
-70
 20
98
 11
-70.2507
 21
98.0158
  0
LINE
  8
0
 10
69.7493
 20
98.0158
 11
69.5026
 21
98.0628
  0
LINE
  8
0
 10
69.5026
 20
98.0628
 11
69.2637
 21
98.1404
  0
LINE
  8
0
 10
69.2637
 20
98.1404
 11
69.0365
 21
98.2474
  0
LINE
  8
0
 10
69.0365
 20
98.2474
 11
68.8244
 21
98.382
  0
LINE
  8
0
 10
68.8244
 20
98.382
 11
68.6309
 21
98.5421
  0
LINE
  8
0
 10
68.6309
 20
98.5421
 11
68.459
 21
98.7251
  0
LINE
  8
0
 10
68.459
 20
98.7251
 11
68.3113
 21
98.9283
  0
LINE
  8
0
 10
68.3113
 20
98.9283
 11
68.1903
 21
99.1484
  0
LINE
  8
0
 10
68.1903
 20
99.1484
 11
68.0979
 21
99.382
  0
LINE
  8
0
 10
68.0979
 20
99.382
 11
68.0354
 21
99.6252
  0
LINE
  8
0
 10
68.0354
 20
99.6252
 11
68.0039
 21
99.8744
  0
LINE
  8
0
 10
68.0039
 20
99.8744
 11
68.0039
 21
104.542
  0
LINE
  8
0
 10
68.0039
 20
104.542
 11
67.8567
 21
104.623
  0
LINE
  8
0
 10
67.8567
 20
104.623
 11
67.4503
 21
104.918
  0
LINE
  8
0
 10
67.4503
 20
104.918
 11
67.0841
 21
105.262
  0
LINE
  8
0
 10
67.0841
 20
105.262
 11
66.7639
 21
105.649
  0
LINE
  8
0
 10
66.7639
 20
105.649
 11
66.4948
 21
106.073
  0
LINE
  8
0
 10
66.4948
 20
106.073
 11
66.2809
 21
106.527
  0
LINE
  8
0
 10
66.2809
 20
106.527
 11
66.1257
 21
107.005
  0
LINE
  8
0
 10
66.1257
 20
107.005
 11
66.0315
 21
107.499
  0
LINE
  8
0
 10
66.0315
 20
107.499
 11
66
 21
108
  0
LINE
  8
0
 10
66
 20
108
 11
66.0315
 21
108.501
  0
LINE
  8
0
 10
66.0315
 20
108.501
 11
66.1257
 21
108.995
  0
LINE
  8
0
 10
66.1257
 20
108.995
 11
66.2809
 21
109.472
  0
LINE
  8
0
 10
66.2809
 20
109.472
 11
66.4948
 21
109.927
  0
LINE
  8
0
 10
66.4948
 20
109.927
 11
66.7639
 21
110.351
  0
LINE
  8
0
 10
66.7639
 20
110.351
 11
67.0841
 21
110.738
  0
LINE
  8
0
 10
67.0841
 20
110.738
 11
67.4503
 21
111.082
  0
LINE
  8
0
 10
67.4503
 20
111.082
 11
67.8567
 21
111.377
  0
LINE
  8
0
 10
67.8567
 20
111.377
 11
68.2969
 21
111.619
  0
LINE
  8
0
 10
68.2969
 20
111.619
 11
68.7639
 21
111.804
  0
LINE
  8
0
 10
68.7639
 20
111.804
 11
69.2505
 21
111.929
  0
LINE
  8
0
 10
69.2505
 20
111.929
 11
69.7488
 21
111.992
  0
LINE
  8
0
 10
69.7488
 20
111.992
 11
70.2512
 21
111.992
  0
LINE
  8
0
 10
70.2512
 20
111.992
 11
70.7495
 21
111.929
  0
LINE
  8
0
 10
70.7495
 20
111.929
 11
71.2361
 21
111.804
  0
LINE
  8
0
 10
71.2361
 20
111.804
 11
71.7031
 21
111.619
  0
LINE
  8
0
 10
71.7031
 20
111.619
 11
72.1433
 21
111.377
  0
LINE
  8
0
 10
72.1433
 20
111.377
 11
72.5497
 21
111.082
  0
LINE
  8
0
 10
72.5497
 20
111.082
 11
72.9159
 21
110.738
  0
LINE
  8
0
 10
72.9159
 20
110.738
 11
73.2361
 21
110.351
  0
LINE
  8
0
 10
73.2361
 20
110.351
 11
73.5052
 21
109.927
  0
LINE
  8
0
 10
73.5052
 20
109.927
 11
73.7191
 21
109.472
  0
LINE
  8
0
 10
73.7191
 20
109.472
 11
73.8743
 21
108.995
  0
LINE
  8
0
 10
73.8743
 20
108.995
 11
73.9685
 21
108.501
  0
LINE
  8
0
 10
73.9685
 20
108.501
 11
74
 21
108
  0
LINE
  8
0
 10
74
 20
108
 11
73.9685
 21
107.499
  0
LINE
  8
0
 10
73.9685
 20
107.499
 11
73.8743
 21
107.005
  0
LINE
  8
0
 10
73.8743
 20
107.005
 11
73.7191
 21
106.527
  0
LINE
  8
0
 10
73.7191
 20
106.527
 11
73.5052
 21
106.073
  0
LINE
  8
0
 10
73.5052
 20
106.073
 11
73.2361
 21
105.649
  0
LINE
  8
0
 10
73.2361
 20
105.649
 11
72.9159
 21
105.262
  0
LINE
  8
0
 10
72.9159
 20
105.262
 11
72.5497
 21
104.918
  0
LINE
  8
0
 10
72.5497
 20
104.918
 11
72.1433
 21
104.623
  0
LINE
  8
0
 10
72.1433
 20
104.623
 11
71.996
 21
104.542
  0
LINE
  8
0
 10
71.996
 20
104.542
 11
71.996
 21
99.8744
  0
LINE
  8
0
 10
71.996
 20
99.8744
 11
71.9646
 21
99.6252
  0
LINE
  8
0
 10
71.9646
 20
99.6252
 11
71.9021
 21
99.382
  0
LINE
  8
0
 10
71.9021
 20
99.382
 11
71.8096
 21
99.1484
  0
LINE
  8
0
 10
71.8096
 20
99.1484
 11
71.6886
 21
98.9283
  0
LINE
  8
0
 10
71.6886
 20
98.9283
 11
71.541
 21
98.7251
  0
LINE
  8
0
 10
71.541
 20
98.7251
 11
71.3691
 21
98.5421
  0
LINE
  8
0
 10
71.3691
 20
98.5421
 11
71.1756
 21
98.382
  0
LINE
  8
0
 10
71.1756
 20
98.382
 11
70.9635
 21
98.2474
  0
LINE
  8
0
 10
70.9635
 20
98.2474
 11
70.7363
 21
98.1404
  0
LINE
  8
0
 10
70.7363
 20
98.1404
 11
70.4974
 21
98.0628
  0
LINE
  8
0
 10
70.4974
 20
98.0628
 11
70.2507
 21
98.0158
  0
LINE
  8
0
 10
70.2507
 20
98.0158
 11
70
 21
98
  0
LINE
  8
0
 10
70
 20
98
 11
69.7493
 21
98.0158
  0
LINE
  8
0
 10
99.8964
 20
98.3533
 11
99.6908
 21
98.3792
  0
LINE
  8
0
 10
99.6908
 20
98.3792
 11
99.4901
 21
98.4308
  0
LINE
  8
0
 10
99.4901
 20
98.4308
 11
99.2975
 21
98.507
  0
LINE
  8
0
 10
99.2975
 20
98.507
 11
99.1159
 21
98.6069
  0
LINE
  8
0
 10
99.1159
 20
98.6069
 11
98.9482
 21
98.7287
  0
LINE
  8
0
 10
98.9482
 20
98.7287
 11
98.7972
 21
98.8705
  0
LINE
  8
0
 10
98.7972
 20
98.8705
 11
98.6651
 21
99.0302
  0
LINE
  8
0
 10
98.6651
 20
99.0302
 11
98.5541
 21
99.2051
  0
LINE
  8
0
 10
98.5541
 20
99.2051
 11
98.4659
 21
99.3926
  0
LINE
  8
0
 10
98.4659
 20
99.3926
 11
98.4018
 21
99.5897
  0
LINE
  8
0
 10
98.4018
 20
99.5897
 11
98.363
 21
99.7932
  0
LINE
  8
0
 10
98.363
 20
99.7932
 11
98.35
 21
100
  0
LINE
  8
0
 10
98.35
 20
100
 11
98.363
 21
100.207
  0
LINE
  8
0
 10
98.363
 20
100.207
 11
98.4018
 21
100.41
  0
LINE
  8
0
 10
98.4018
 20
100.41
 11
98.4659
 21
100.607
  0
LINE
  8
0
 10
98.4659
 20
100.607
 11
98.5541
 21
100.795
  0
LINE
  8
0
 10
98.5541
 20
100.795
 11
98.6651
 21
100.97
  0
LINE
  8
0
 10
98.6651
 20
100.97
 11
98.7972
 21
101.13
  0
LINE
  8
0
 10
98.7972
 20
101.13
 11
98.9482
 21
101.271
  0
LINE
  8
0
 10
98.9482
 20
101.271
 11
99.1159
 21
101.393
  0
LINE
  8
0
 10
99.1159
 20
101.393
 11
99.2975
 21
101.493
  0
LINE
  8
0
 10
99.2975
 20
101.493
 11
99.4901
 21
101.569
  0
LINE
  8
0
 10
99.4901
 20
101.569
 11
99.6908
 21
101.621
  0
LINE
  8
0
 10
99.6908
 20
101.621
 11
99.8964
 21
101.647
  0
LINE
  8
0
 10
99.8964
 20
101.647
 11
100.104
 21
101.647
  0
LINE
  8
0
 10
100.104
 20
101.647
 11
100.309
 21
101.621
  0
LINE
  8
0
 10
100.309
 20
101.621
 11
100.51
 21
101.569
  0
LINE
  8
0
 10
100.51
 20
101.569
 11
100.703
 21
101.493
  0
LINE
  8
0
 10
100.703
 20
101.493
 11
100.884
 21
101.393
  0
LINE
  8
0
 10
100.884
 20
101.393
 11
101.052
 21
101.271
  0
LINE
  8
0
 10
101.052
 20
101.271
 11
101.203
 21
101.13
  0
LINE
  8
0
 10
101.203
 20
101.13
 11
101.335
 21
100.97
  0
LINE
  8
0
 10
101.335
 20
100.97
 11
101.446
 21
100.795
  0
LINE
  8
0
 10
101.446
 20
100.795
 11
101.534
 21
100.607
  0
LINE
  8
0
 10
101.534
 20
100.607
 11
101.598
 21
100.41
  0
LINE
  8
0
 10
101.598
 20
100.41
 11
101.637
 21
100.207
  0
LINE
  8
0
 10
101.637
 20
100.207
 11
101.65
 21
100
  0
LINE
  8
0
 10
101.65
 20
100
 11
101.637
 21
99.7932
  0
LINE
  8
0
 10
101.637
 20
99.7932
 11
101.598
 21
99.5897
  0
LINE
  8
0
 10
101.598
 20
99.5897
 11
101.534
 21
99.3926
  0
LINE
  8
0
 10
101.534
 20
99.3926
 11
101.446
 21
99.2051
  0
LINE
  8
0
 10
101.446
 20
99.2051
 11
101.335
 21
99.0302
  0
LINE
  8
0
 10
101.335
 20
99.0302
 11
101.203
 21
98.8705
  0
LINE
  8
0
 10
101.203
 20
98.8705
 11
101.052
 21
98.7287
  0
LINE
  8
0
 10
101.052
 20
98.7287
 11
100.884
 21
98.6069
  0
LINE
  8
0
 10
100.884
 20
98.6069
 11
100.703
 21
98.507
  0
LINE
  8
0
 10
100.703
 20
98.507
 11
100.51
 21
98.4308
  0
LINE
  8
0
 10
100.51
 20
98.4308
 11
100.309
 21
98.3792
  0
LINE
  8
0
 10
100.309
 20
98.3792
 11
100.104
 21
98.3533
  0
LINE
  8
0
 10
100.104
 20
98.3533
 11
99.8964
 21
98.3533
  0
LINE
  8
0
 10
-100.104
 20
98.3533
 11
-100.309
 21
98.3792
  0
LINE
  8
0
 10
-100.309
 20
98.3792
 11
-100.51
 21
98.4308
  0
LINE
  8
0
 10
-100.51
 20
98.4308
 11
-100.703
 21
98.507
  0
LINE
  8
0
 10
-100.703
 20
98.507
 11
-100.884
 21
98.6069
  0
LINE
  8
0
 10
-100.884
 20
98.6069
 11
-101.052
 21
98.7287
  0
LINE
  8
0
 10
-101.052
 20
98.7287
 11
-101.203
 21
98.8705
  0
LINE
  8
0
 10
-101.203
 20
98.8705
 11
-101.335
 21
99.0302
  0
LINE
  8
0
 10
-101.335
 20
99.0302
 11
-101.446
 21
99.2051
  0
LINE
  8
0
 10
-101.446
 20
99.2051
 11
-101.534
 21
99.3926
  0
LINE
  8
0
 10
-101.534
 20
99.3926
 11
-101.598
 21
99.5897
  0
LINE
  8
0
 10
-101.598
 20
99.5897
 11
-101.637
 21
99.7932
  0
LINE
  8
0
 10
-101.637
 20
99.7932
 11
-101.65
 21
100
  0
LINE
  8
0
 10
-101.65
 20
100
 11
-101.637
 21
100.207
  0
LINE
  8
0
 10
-101.637
 20
100.207
 11
-101.598
 21
100.41
  0
LINE
  8
0
 10
-101.598
 20
100.41
 11
-101.534
 21
100.607
  0
LINE
  8
0
 10
-101.534
 20
100.607
 11
-101.446
 21
100.795
  0
LINE
  8
0
 10
-101.446
 20
100.795
 11
-101.335
 21
100.97
  0
LINE
  8
0
 10
-101.335
 20
100.97
 11
-101.203
 21
101.13
  0
LINE
  8
0
 10
-101.203
 20
101.13
 11
-101.052
 21
101.271
  0
LINE
  8
0
 10
-101.052
 20
101.271
 11
-100.884
 21
101.393
  0
LINE
  8
0
 10
-100.884
 20
101.393
 11
-100.703
 21
101.493
  0
LINE
  8
0
 10
-100.703
 20
101.493
 11
-100.51
 21
101.569
  0
LINE
  8
0
 10
-100.51
 20
101.569
 11
-100.309
 21
101.621
  0
LINE
  8
0
 10
-100.309
 20
101.621
 11
-100.104
 21
101.647
  0
LINE
  8
0
 10
-100.104
 20
101.647
 11
-99.8964
 21
101.647
  0
LINE
  8
0
 10
-99.8964
 20
101.647
 11
-99.6908
 21
101.621
  0
LINE
  8
0
 10
-99.6908
 20
101.621
 11
-99.4901
 21
101.569
  0
LINE
  8
0
 10
-99.4901
 20
101.569
 11
-99.2975
 21
101.493
  0
LINE
  8
0
 10
-99.2975
 20
101.493
 11
-99.1159
 21
101.393
  0
LINE
  8
0
 10
-99.1159
 20
101.393
 11
-98.9482
 21
101.271
  0
LINE
  8
0
 10
-98.9482
 20
101.271
 11
-98.7972
 21
101.13
  0
LINE
  8
0
 10
-98.7972
 20
101.13
 11
-98.6651
 21
100.97
  0
LINE
  8
0
 10
-98.6651
 20
100.97
 11
-98.5541
 21
100.795
  0
LINE
  8
0
 10
-98.5541
 20
100.795
 11
-98.4659
 21
100.607
  0
LINE
  8
0
 10
-98.4659
 20
100.607
 11
-98.4018
 21
100.41
  0
LINE
  8
0
 10
-98.4018
 20
100.41
 11
-98.363
 21
100.207
  0
LINE
  8
0
 10
-98.363
 20
100.207
 11
-98.35
 21
100
  0
LINE
  8
0
 10
-98.35
 20
100
 11
-98.363
 21
99.7932
  0
LINE
  8
0
 10
-98.363
 20
99.7932
 11
-98.4018
 21
99.5897
  0
LINE
  8
0
 10
-98.4018
 20
99.5897
 11
-98.4659
 21
99.3926
  0
LINE
  8
0
 10
-98.4659
 20
99.3926
 11
-98.5541
 21
99.2051
  0
LINE
  8
0
 10
-98.5541
 20
99.2051
 11
-98.6651
 21
99.0302
  0
LINE
  8
0
 10
-98.6651
 20
99.0302
 11
-98.7972
 21
98.8705
  0
LINE
  8
0
 10
-98.7972
 20
98.8705
 11
-98.9482
 21
98.7287
  0
LINE
  8
0
 10
-98.9482
 20
98.7287
 11
-99.1159
 21
98.6069
  0
LINE
  8
0
 10
-99.1159
 20
98.6069
 11
-99.2975
 21
98.507
  0
LINE
  8
0
 10
-99.2975
 20
98.507
 11
-99.4901
 21
98.4308
  0
LINE
  8
0
 10
-99.4901
 20
98.4308
 11
-99.6908
 21
98.3792
  0
LINE
  8
0
 10
-99.6908
 20
98.3792
 11
-99.8964
 21
98.3533
  0
LINE
  8
0
 10
-99.8964
 20
98.3533
 11
-100.104
 21
98.3533
  0
LINE
  8
0
 10
-101.253
 20
-9.92114
 11
-102.487
 21
-9.68582
  0
LINE
  8
0
 10
-102.487
 20
-9.68582
 11
-103.681
 21
-9.29776
  0
LINE
  8
0
 10
-103.681
 20
-9.29776
 11
-104.818
 21
-8.76306
  0
LINE
  8
0
 10
-104.818
 20
-8.76306
 11
-105.878
 21
-8.09016
  0
LINE
  8
0
 10
-105.878
 20
-8.09016
 11
-106.845
 21
-7.28967
  0
LINE
  8
0
 10
-106.845
 20
-7.28967
 11
-107.705
 21
-6.37424
  0
LINE
  8
0
 10
-107.705
 20
-6.37424
 11
-108.443
 21
-5.35826
  0
LINE
  8
0
 10
-108.443
 20
-5.35826
 11
-109.048
 21
-4.25778
  0
LINE
  8
0
 10
-109.048
 20
-4.25778
 11
-109.511
 21
-3.09016
  0
LINE
  8
0
 10
-109.511
 20
-3.09016
 11
-109.823
 21
-1.87381
  0
LINE
  8
0
 10
-109.823
 20
-1.87381
 11
-109.98
 21
-0.627899
  0
LINE
  8
0
 10
-109.98
 20
-0.627899
 11
-109.98
 21
17.4926
  0
LINE
  8
0
 10
-109.98
 20
17.4926
 11
-110.113
 21
17.6527
  0
LINE
  8
0
 10
-110.113
 20
17.6527
 11
-110.954
 21
18.9781
  0
LINE
  8
0
 10
-110.954
 20
18.9781
 11
-111.622
 21
20.3984
  0
LINE
  8
0
 10
-111.622
 20
20.3984
 11
-112.107
 21
21.8914
  0
LINE
  8
0
 10
-112.107
 20
21.8914
 11
-112.401
 21
23.4333
  0
LINE
  8
0
 10
-112.401
 20
23.4333
 11
-112.5
 21
25
  0
LINE
  8
0
 10
-112.5
 20
25
 11
-112.401
 21
26.5667
  0
LINE
  8
0
 10
-112.401
 20
26.5667
 11
-112.107
 21
28.1086
  0
LINE
  8
0
 10
-112.107
 20
28.1086
 11
-111.622
 21
29.6015
  0
LINE
  8
0
 10
-111.622
 20
29.6015
 11
-110.954
 21
31.0219
  0
LINE
  8
0
 10
-110.954
 20
31.0219
 11
-110.113
 21
32.3473
  0
LINE
  8
0
 10
-110.113
 20
32.3473
 11
-109.112
 21
33.5568
  0
LINE
  8
0
 10
-109.112
 20
33.5568
 11
-107.968
 21
34.6314
  0
LINE
  8
0
 10
-107.968
 20
34.6314
 11
-106.698
 21
35.5541
  0
LINE
  8
0
 10
-106.698
 20
35.5541
 11
-105.322
 21
36.3103
  0
LINE
  8
0
 10
-105.322
 20
36.3103
 11
-103.863
 21
36.8882
  0
LINE
  8
0
 10
-103.863
 20
36.8882
 11
-102.342
 21
37.2786
  0
LINE
  8
0
 10
-102.342
 20
37.2786
 11
-100.785
 21
37.4753
  0
LINE
  8
0
 10
-100.785
 20
37.4753
 11
-99.2151
 21
37.4753
  0
LINE
  8
0
 10
-99.2151
 20
37.4753
 11
-97.6577
 21
37.2786
  0
LINE
  8
0
 10
-97.6577
 20
37.2786
 11
-96.1373
 21
36.8882
  0
LINE
  8
0
 10
-96.1373
 20
36.8882
 11
-94.6777
 21
36.3103
  0
LINE
  8
0
 10
-94.6777
 20
36.3103
 11
-93.3022
 21
35.5541
  0
LINE
  8
0
 10
-93.3022
 20
35.5541
 11
-92.0322
 21
34.6314
  0
LINE
  8
0
 10
-92.0322
 20
34.6314
 11
-90.8879
 21
33.5568
  0
LINE
  8
0
 10
-90.8879
 20
33.5568
 11
-89.8873
 21
32.3473
  0
LINE
  8
0
 10
-89.8873
 20
32.3473
 11
-89.0462
 21
31.0219
  0
LINE
  8
0
 10
-89.0462
 20
31.0219
 11
-88.3778
 21
29.6015
  0
LINE
  8
0
 10
-88.3778
 20
29.6015
 11
-87.8927
 21
28.1086
  0
LINE
  8
0
 10
-87.8927
 20
28.1086
 11
-87.5986
 21
26.5667
  0
LINE
  8
0
 10
-87.5986
 20
26.5667
 11
-87.5
 21
25
  0
LINE
  8
0
 10
-87.5
 20
25
 11
-87.5986
 21
23.4333
  0
LINE
  8
0
 10
-87.5986
 20
23.4333
 11
-87.8927
 21
21.8914
  0
LINE
  8
0
 10
-87.8927
 20
21.8914
 11
-88.3778
 21
20.3984
  0
LINE
  8
0
 10
-88.3778
 20
20.3984
 11
-89.0462
 21
18.9781
  0
LINE
  8
0
 10
-89.0462
 20
18.9781
 11
-89.8873
 21
17.6527
  0
LINE
  8
0
 10
-89.8873
 20
17.6527
 11
-90.0197
 21
17.4926
  0
LINE
  8
0
 10
-90.0197
 20
17.4926
 11
-90.0197
 21
-0.627899
  0
LINE
  8
0
 10
-90.0197
 20
-0.627899
 11
-90.1771
 21
-1.87381
  0
LINE
  8
0
 10
-90.1771
 20
-1.87381
 11
-90.4894
 21
-3.09016
  0
LINE
  8
0
 10
-90.4894
 20
-3.09016
 11
-90.9517
 21
-4.25778
  0
LINE
  8
0
 10
-90.9517
 20
-4.25778
 11
-91.5567
 21
-5.35826
  0
LINE
  8
0
 10
-91.5567
 20
-5.35826
 11
-92.2949
 21
-6.37424
  0
LINE
  8
0
 10
-92.2949
 20
-6.37424
 11
-93.1545
 21
-7.28967
  0
LINE
  8
0
 10
-93.1545
 20
-7.28967
 11
-94.1221
 21
-8.09016
  0
LINE
  8
0
 10
-94.1221
 20
-8.09016
 11
-95.1825
 21
-8.76306
  0
LINE
  8
0
 10
-95.1825
 20
-8.76306
 11
-96.3188
 21
-9.29776
  0
LINE
  8
0
 10
-96.3188
 20
-9.29776
 11
-97.5131
 21
-9.68582
  0
LINE
  8
0
 10
-97.5131
 20
-9.68582
 11
-98.7467
 21
-9.92114
  0
LINE
  8
0
 10
-98.7467
 20
-9.92114
 11
-100
 21
-10
  0
LINE
  8
0
 10
-100
 20
-10
 11
-101.253
 21
-9.92114
  0
LINE
  8
0
 10
98.7467
 20
-9.92114
 11
97.5131
 21
-9.68582
  0
LINE
  8
0
 10
97.5131
 20
-9.68582
 11
96.3188
 21
-9.29776
  0
LINE
  8
0
 10
96.3188
 20
-9.29776
 11
95.1825
 21
-8.76306
  0
LINE
  8
0
 10
95.1825
 20
-8.76306
 11
94.1221
 21
-8.09016
  0
LINE
  8
0
 10
94.1221
 20
-8.09016
 11
93.1545
 21
-7.28967
  0
LINE
  8
0
 10
93.1545
 20
-7.28967
 11
92.2949
 21
-6.37424
  0
LINE
  8
0
 10
92.2949
 20
-6.37424
 11
91.5567
 21
-5.35826
  0
LINE
  8
0
 10
91.5567
 20
-5.35826
 11
90.9517
 21
-4.25778
  0
LINE
  8
0
 10
90.9517
 20
-4.25778
 11
90.4894
 21
-3.09016
  0
LINE
  8
0
 10
90.4894
 20
-3.09016
 11
90.1771
 21
-1.87381
  0
LINE
  8
0
 10
90.1771
 20
-1.87381
 11
90.0197
 21
-0.627899
  0
LINE
  8
0
 10
90.0197
 20
-0.627899
 11
90.0197
 21
17.4926
  0
LINE
  8
0
 10
90.0197
 20
17.4926
 11
89.8873
 21
17.6527
  0
LINE
  8
0
 10
89.8873
 20
17.6527
 11
89.0462
 21
18.9781
  0
LINE
  8
0
 10
89.0462
 20
18.9781
 11
88.3778
 21
20.3984
  0
LINE
  8
0
 10
88.3778
 20
20.3984
 11
87.8927
 21
21.8914
  0
LINE
  8
0
 10
87.8927
 20
21.8914
 11
87.5986
 21
23.4333
  0
LINE
  8
0
 10
87.5986
 20
23.4333
 11
87.5
 21
25
  0
LINE
  8
0
 10
87.5
 20
25
 11
87.5986
 21
26.5667
  0
LINE
  8
0
 10
87.5986
 20
26.5667
 11
87.8927
 21
28.1086
  0
LINE
  8
0
 10
87.8927
 20
28.1086
 11
88.3778
 21
29.6015
  0
LINE
  8
0
 10
88.3778
 20
29.6015
 11
89.0462
 21
31.0219
  0
LINE
  8
0
 10
89.0462
 20
31.0219
 11
89.8873
 21
32.3473
  0
LINE
  8
0
 10
89.8873
 20
32.3473
 11
90.8879
 21
33.5568
  0
LINE
  8
0
 10
90.8879
 20
33.5568
 11
92.0322
 21
34.6314
  0
LINE
  8
0
 10
92.0322
 20
34.6314
 11
93.3022
 21
35.5541
  0
LINE
  8
0
 10
93.3022
 20
35.5541
 11
94.6777
 21
36.3103
  0
LINE
  8
0
 10
94.6777
 20
36.3103
 11
96.1373
 21
36.8882
  0
LINE
  8
0
 10
96.1373
 20
36.8882
 11
97.6577
 21
37.2786
  0
LINE
  8
0
 10
97.6577
 20
37.2786
 11
99.2151
 21
37.4753
  0
LINE
  8
0
 10
99.2151
 20
37.4753
 11
100.785
 21
37.4753
  0
LINE
  8
0
 10
100.785
 20
37.4753
 11
102.342
 21
37.2786
  0
LINE
  8
0
 10
102.342
 20
37.2786
 11
103.863
 21
36.8882
  0
LINE
  8
0
 10
103.863
 20
36.8882
 11
105.322
 21
36.3103
  0
LINE
  8
0
 10
105.322
 20
36.3103
 11
106.698
 21
35.5541
  0
LINE
  8
0
 10
106.698
 20
35.5541
 11
107.968
 21
34.6314
  0
LINE
  8
0
 10
107.968
 20
34.6314
 11
109.112
 21
33.5568
  0
LINE
  8
0
 10
109.112
 20
33.5568
 11
110.113
 21
32.3473
  0
LINE
  8
0
 10
110.113
 20
32.3473
 11
110.954
 21
31.0219
  0
LINE
  8
0
 10
110.954
 20
31.0219
 11
111.622
 21
29.6015
  0
LINE
  8
0
 10
111.622
 20
29.6015
 11
112.107
 21
28.1086
  0
LINE
  8
0
 10
112.107
 20
28.1086
 11
112.401
 21
26.5667
  0
LINE
  8
0
 10
112.401
 20
26.5667
 11
112.5
 21
25
  0
LINE
  8
0
 10
112.5
 20
25
 11
112.401
 21
23.4333
  0
LINE
  8
0
 10
112.401
 20
23.4333
 11
112.107
 21
21.8914
  0
LINE
  8
0
 10
112.107
 20
21.8914
 11
111.622
 21
20.3984
  0
LINE
  8
0
 10
111.622
 20
20.3984
 11
110.954
 21
18.9781
  0
LINE
  8
0
 10
110.954
 20
18.9781
 11
110.113
 21
17.6527
  0
LINE
  8
0
 10
110.113
 20
17.6527
 11
109.98
 21
17.4926
  0
LINE
  8
0
 10
109.98
 20
17.4926
 11
109.98
 21
-0.627899
  0
LINE
  8
0
 10
109.98
 20
-0.627899
 11
109.823
 21
-1.87381
  0
LINE
  8
0
 10
109.823
 20
-1.87381
 11
109.511
 21
-3.09016
  0
LINE
  8
0
 10
109.511
 20
-3.09016
 11
109.048
 21
-4.25778
  0
LINE
  8
0
 10
109.048
 20
-4.25778
 11
108.443
 21
-5.35826
  0
LINE
  8
0
 10
108.443
 20
-5.35826
 11
107.705
 21
-6.37424
  0
LINE
  8
0
 10
107.705
 20
-6.37424
 11
106.845
 21
-7.28967
  0
LINE
  8
0
 10
106.845
 20
-7.28967
 11
105.878
 21
-8.09016
  0
LINE
  8
0
 10
105.878
 20
-8.09016
 11
104.818
 21
-8.76306
  0
LINE
  8
0
 10
104.818
 20
-8.76306
 11
103.681
 21
-9.29776
  0
LINE
  8
0
 10
103.681
 20
-9.29776
 11
102.487
 21
-9.68582
  0
LINE
  8
0
 10
102.487
 20
-9.68582
 11
101.253
 21
-9.92114
  0
LINE
  8
0
 10
101.253
 20
-9.92114
 11
100
 21
-10
  0
LINE
  8
0
 10
100
 20
-10
 11
98.7467
 21
-9.92114
  0
LINE
  8
0
 10
-0.204056
 20
-3.24358
 11
-0.608978
 21
-3.19243
  0
LINE
  8
0
 10
-0.608978
 20
-3.19243
 11
-1.0043
 21
-3.09093
  0
LINE
  8
0
 10
-1.0043
 20
-3.09093
 11
-1.38377
 21
-2.94067
  0
LINE
  8
0
 10
-1.38377
 20
-2.94067
 11
-1.74142
 21
-2.74406
  0
LINE
  8
0
 10
-1.74142
 20
-2.74406
 11
-2.07162
 21
-2.50417
  0
LINE
  8
0
 10
-2.07162
 20
-2.50417
 11
-2.36914
 21
-2.22478
  0
LINE
  8
0
 10
-2.36914
 20
-2.22478
 11
-2.6293
 21
-1.91029
  0
LINE
  8
0
 10
-2.6293
 20
-1.91029
 11
-2.84799
 21
-1.56569
  0
LINE
  8
0
 10
-2.84799
 20
-1.56569
 11
-3.02176
 21
-1.1964
  0
LINE
  8
0
 10
-3.02176
 20
-1.1964
 11
-3.14789
 21
-0.808228
  0
LINE
  8
0
 10
-3.14789
 20
-0.808228
 11
-3.22437
 21
-0.407318
  0
LINE
  8
0
 10
-3.22437
 20
-0.407318
 11
-3.25
 21
0
  0
LINE
  8
0
 10
-3.25
 20
0
 11
-3.22437
 21
0.407318
  0
LINE
  8
0
 10
-3.22437
 20
0.407318
 11
-3.14789
 21
0.808228
  0
LINE
  8
0
 10
-3.14789
 20
0.808228
 11
-3.02176
 21
1.1964
  0
LINE
  8
0
 10
-3.02176
 20
1.1964
 11
-2.84799
 21
1.56569
  0
LINE
  8
0
 10
-2.84799
 20
1.56569
 11
-2.6293
 21
1.91029
  0
LINE
  8
0
 10
-2.6293
 20
1.91029
 11
-2.36914
 21
2.22478
  0
LINE
  8
0
 10
-2.36914
 20
2.22478
 11
-2.07162
 21
2.50417
  0
LINE
  8
0
 10
-2.07162
 20
2.50417
 11
-1.74142
 21
2.74406
  0
LINE
  8
0
 10
-1.74142
 20
2.74406
 11
-1.38377
 21
2.94067
  0
LINE
  8
0
 10
-1.38377
 20
2.94067
 11
-1.0043
 21
3.09093
  0
LINE
  8
0
 10
-1.0043
 20
3.09093
 11
-0.608978
 21
3.19243
  0
LINE
  8
0
 10
-0.608978
 20
3.19243
 11
-0.204056
 21
3.24358
  0
LINE
  8
0
 10
-0.204056
 20
3.24358
 11
0.204056
 21
3.24358
  0
LINE
  8
0
 10
0.204056
 20
3.24358
 11
0.608978
 21
3.19243
  0
LINE
  8
0
 10
0.608978
 20
3.19243
 11
1.0043
 21
3.09093
  0
LINE
  8
0
 10
1.0043
 20
3.09093
 11
1.38377
 21
2.94067
  0
LINE
  8
0
 10
1.38377
 20
2.94067
 11
1.74142
 21
2.74406
  0
LINE
  8
0
 10
1.74142
 20
2.74406
 11
2.07162
 21
2.50417
  0
LINE
  8
0
 10
2.07162
 20
2.50417
 11
2.36914
 21
2.22478
  0
LINE
  8
0
 10
2.36914
 20
2.22478
 11
2.6293
 21
1.91029
  0
LINE
  8
0
 10
2.6293
 20
1.91029
 11
2.84799
 21
1.56569
  0
LINE
  8
0
 10
2.84799
 20
1.56569
 11
3.02176
 21
1.1964
  0
LINE
  8
0
 10
3.02176
 20
1.1964
 11
3.14789
 21
0.808228
  0
LINE
  8
0
 10
3.14789
 20
0.808228
 11
3.22437
 21
0.407318
  0
LINE
  8
0
 10
3.22437
 20
0.407318
 11
3.25
 21
0
  0
LINE
  8
0
 10
3.25
 20
0
 11
3.22437
 21
-0.407318
  0
LINE
  8
0
 10
3.22437
 20
-0.407318
 11
3.14789
 21
-0.808228
  0
LINE
  8
0
 10
3.14789
 20
-0.808228
 11
3.02176
 21
-1.1964
  0
LINE
  8
0
 10
3.02176
 20
-1.1964
 11
2.84799
 21
-1.56569
  0
LINE
  8
0
 10
2.84799
 20
-1.56569
 11
2.6293
 21
-1.91029
  0
LINE
  8
0
 10
2.6293
 20
-1.91029
 11
2.36914
 21
-2.22478
  0
LINE
  8
0
 10
2.36914
 20
-2.22478
 11
2.07162
 21
-2.50417
  0
LINE
  8
0
 10
2.07162
 20
-2.50417
 11
1.74142
 21
-2.74406
  0
LINE
  8
0
 10
1.74142
 20
-2.74406
 11
1.38377
 21
-2.94067
  0
LINE
  8
0
 10
1.38377
 20
-2.94067
 11
1.0043
 21
-3.09093
  0
LINE
  8
0
 10
1.0043
 20
-3.09093
 11
0.608978
 21
-3.19243
  0
LINE
  8
0
 10
0.608978
 20
-3.19243
 11
0.204056
 21
-3.24358
  0
LINE
  8
0
 10
0.204056
 20
-3.24358
 11
-0.204056
 21
-3.24358
  0
LINE
  8
0
 10
-1.25333
 20
-109.921
 11
-2.48689
 21
-109.686
  0
LINE
  8
0
 10
-2.48689
 20
-109.686
 11
-3.68124
 21
-109.298
  0
LINE
  8
0
 10
-3.68124
 20
-109.298
 11
-4.81754
 21
-108.763
  0
LINE
  8
0
 10
-4.81754
 20
-108.763
 11
-5.87784
 21
-108.09
  0
LINE
  8
0
 10
-5.87784
 20
-108.09
 11
-6.84546
 21
-107.29
  0
LINE
  8
0
 10
-6.84546
 20
-107.29
 11
-7.70512
 21
-106.374
  0
LINE
  8
0
 10
-7.70512
 20
-106.374
 11
-8.44327
 21
-105.358
  0
LINE
  8
0
 10
-8.44327
 20
-105.358
 11
-9.04826
 21
-104.258
  0
LINE
  8
0
 10
-9.04826
 20
-104.258
 11
-9.51056
 21
-103.09
  0
LINE
  8
0
 10
-9.51056
 20
-103.09
 11
-9.82286
 21
-101.874
  0
LINE
  8
0
 10
-9.82286
 20
-101.874
 11
-9.98026
 21
-100.628
  0
LINE
  8
0
 10
-9.98026
 20
-100.628
 11
-9.98026
 21
-82.5074
  0
LINE
  8
0
 10
-9.98026
 20
-82.5074
 11
-10.1127
 21
-82.3473
  0
LINE
  8
0
 10
-10.1127
 20
-82.3473
 11
-10.9538
 21
-81.0219
  0
LINE
  8
0
 10
-10.9538
 20
-81.0219
 11
-11.6222
 21
-79.6015
  0
LINE
  8
0
 10
-11.6222
 20
-79.6015
 11
-12.1073
 21
-78.1086
  0
LINE
  8
0
 10
-12.1073
 20
-78.1086
 11
-12.4014
 21
-76.5667
  0
LINE
  8
0
 10
-12.4014
 20
-76.5667
 11
-12.5
 21
-75
  0
LINE
  8
0
 10
-12.5
 20
-75
 11
-12.4014
 21
-73.4333
  0
LINE
  8
0
 10
-12.4014
 20
-73.4333
 11
-12.1073
 21
-71.8914
  0
LINE
  8
0
 10
-12.1073
 20
-71.8914
 11
-11.6222
 21
-70.3984
  0
LINE
  8
0
 10
-11.6222
 20
-70.3984
 11
-10.9538
 21
-68.9781
  0
LINE
  8
0
 10
-10.9538
 20
-68.9781
 11
-10.1127
 21
-67.6527
  0
LINE
  8
0
 10
-10.1127
 20
-67.6527
 11
-9.11211
 21
-66.4432
  0
LINE
  8
0
 10
-9.11211
 20
-66.4432
 11
-7.96779
 21
-65.3686
  0
LINE
  8
0
 10
-7.96779
 20
-65.3686
 11
-6.69783
 21
-64.4459
  0
LINE
  8
0
 10
-6.69783
 20
-64.4459
 11
-5.32224
 21
-63.6897
  0
LINE
  8
0
 10
-5.32224
 20
-63.6897
 11
-3.8627
 21
-63.1118
  0
LINE
  8
0
 10
-3.8627
 20
-63.1118
 11
-2.34225
 21
-62.7214
  0
LINE
  8
0
 10
-2.34225
 20
-62.7214
 11
-0.784866
 21
-62.5247
  0
LINE
  8
0
 10
-0.784866
 20
-62.5247
 11
0.784866
 21
-62.5247
  0
LINE
  8
0
 10
0.784866
 20
-62.5247
 11
2.34225
 21
-62.7214
  0
LINE
  8
0
 10
2.34225
 20
-62.7214
 11
3.8627
 21
-63.1118
  0
LINE
  8
0
 10
3.8627
 20
-63.1118
 11
5.32224
 21
-63.6897
  0
LINE
  8
0
 10
5.32224
 20
-63.6897
 11
6.69783
 21
-64.4459
  0
LINE
  8
0
 10
6.69783
 20
-64.4459
 11
7.96779
 21
-65.3686
  0
LINE
  8
0
 10
7.96779
 20
-65.3686
 11
9.11211
 21
-66.4432
  0
LINE
  8
0
 10
9.11211
 20
-66.4432
 11
10.1127
 21
-67.6527
  0
LINE
  8
0
 10
10.1127
 20
-67.6527
 11
10.9538
 21
-68.9781
  0
LINE
  8
0
 10
10.9538
 20
-68.9781
 11
11.6222
 21
-70.3984
  0
LINE
  8
0
 10
11.6222
 20
-70.3984
 11
12.1073
 21
-71.8914
  0
LINE
  8
0
 10
12.1073
 20
-71.8914
 11
12.4014
 21
-73.4333
  0
LINE
  8
0
 10
12.4014
 20
-73.4333
 11
12.5
 21
-75
  0
LINE
  8
0
 10
12.5
 20
-75
 11
12.4014
 21
-76.5667
  0
LINE
  8
0
 10
12.4014
 20
-76.5667
 11
12.1073
 21
-78.1086
  0
LINE
  8
0
 10
12.1073
 20
-78.1086
 11
11.6222
 21
-79.6015
  0
LINE
  8
0
 10
11.6222
 20
-79.6015
 11
10.9538
 21
-81.0219
  0
LINE
  8
0
 10
10.9538
 20
-81.0219
 11
10.1127
 21
-82.3473
  0
LINE
  8
0
 10
10.1127
 20
-82.3473
 11
9.98026
 21
-82.5074
  0
LINE
  8
0
 10
9.98026
 20
-82.5074
 11
9.98026
 21
-100.628
  0
LINE
  8
0
 10
9.98026
 20
-100.628
 11
9.82286
 21
-101.874
  0
LINE
  8
0
 10
9.82286
 20
-101.874
 11
9.51056
 21
-103.09
  0
LINE
  8
0
 10
9.51056
 20
-103.09
 11
9.04826
 21
-104.258
  0
LINE
  8
0
 10
9.04826
 20
-104.258
 11
8.44327
 21
-105.358
  0
LINE
  8
0
 10
8.44327
 20
-105.358
 11
7.70512
 21
-106.374
  0
LINE
  8
0
 10
7.70512
 20
-106.374
 11
6.84546
 21
-107.29
  0
LINE
  8
0
 10
6.84546
 20
-107.29
 11
5.87784
 21
-108.09
  0
LINE
  8
0
 10
5.87784
 20
-108.09
 11
4.81754
 21
-108.763
  0
LINE
  8
0
 10
4.81754
 20
-108.763
 11
3.68124
 21
-109.298
  0
LINE
  8
0
 10
3.68124
 20
-109.298
 11
2.48689
 21
-109.686
  0
LINE
  8
0
 10
2.48689
 20
-109.686
 11
1.25333
 21
-109.921
  0
LINE
  8
0
 10
1.25333
 20
-109.921
 11
0
 21
-110
  0
LINE
  8
0
 10
0
 20
-110
 11
-1.25333
 21
-109.921
  0
LINE
  8
0
 10
99.8964
 20
-101.647
 11
99.6908
 21
-101.621
  0
LINE
  8
0
 10
99.6908
 20
-101.621
 11
99.4901
 21
-101.569
  0
LINE
  8
0
 10
99.4901
 20
-101.569
 11
99.2975
 21
-101.493
  0
LINE
  8
0
 10
99.2975
 20
-101.493
 11
99.1159
 21
-101.393
  0
LINE
  8
0
 10
99.1159
 20
-101.393
 11
98.9482
 21
-101.271
  0
LINE
  8
0
 10
98.9482
 20
-101.271
 11
98.7972
 21
-101.13
  0
LINE
  8
0
 10
98.7972
 20
-101.13
 11
98.6651
 21
-100.97
  0
LINE
  8
0
 10
98.6651
 20
-100.97
 11
98.5541
 21
-100.795
  0
LINE
  8
0
 10
98.5541
 20
-100.795
 11
98.4659
 21
-100.607
  0
LINE
  8
0
 10
98.4659
 20
-100.607
 11
98.4018
 21
-100.41
  0
LINE
  8
0
 10
98.4018
 20
-100.41
 11
98.363
 21
-100.207
  0
LINE
  8
0
 10
98.363
 20
-100.207
 11
98.35
 21
-100
  0
LINE
  8
0
 10
98.35
 20
-100
 11
98.363
 21
-99.7932
  0
LINE
  8
0
 10
98.363
 20
-99.7932
 11
98.4018
 21
-99.5897
  0
LINE
  8
0
 10
98.4018
 20
-99.5897
 11
98.4659
 21
-99.3926
  0
LINE
  8
0
 10
98.4659
 20
-99.3926
 11
98.5541
 21
-99.2051
  0
LINE
  8
0
 10
98.5541
 20
-99.2051
 11
98.6651
 21
-99.0302
  0
LINE
  8
0
 10
98.6651
 20
-99.0302
 11
98.7972
 21
-98.8705
  0
LINE
  8
0
 10
98.7972
 20
-98.8705
 11
98.9482
 21
-98.7287
  0
LINE
  8
0
 10
98.9482
 20
-98.7287
 11
99.1159
 21
-98.6069
  0
LINE
  8
0
 10
99.1159
 20
-98.6069
 11
99.2975
 21
-98.507
  0
LINE
  8
0
 10
99.2975
 20
-98.507
 11
99.4901
 21
-98.4308
  0
LINE
  8
0
 10
99.4901
 20
-98.4308
 11
99.6908
 21
-98.3792
  0
LINE
  8
0
 10
99.6908
 20
-98.3792
 11
99.8964
 21
-98.3533
  0
LINE
  8
0
 10
99.8964
 20
-98.3533
 11
100.104
 21
-98.3533
  0
LINE
  8
0
 10
100.104
 20
-98.3533
 11
100.309
 21
-98.3792
  0
LINE
  8
0
 10
100.309
 20
-98.3792
 11
100.51
 21
-98.4308
  0
LINE
  8
0
 10
100.51
 20
-98.4308
 11
100.703
 21
-98.507
  0
LINE
  8
0
 10
100.703
 20
-98.507
 11
100.884
 21
-98.6069
  0
LINE
  8
0
 10
100.884
 20
-98.6069
 11
101.052
 21
-98.7287
  0
LINE
  8
0
 10
101.052
 20
-98.7287
 11
101.203
 21
-98.8705
  0
LINE
  8
0
 10
101.203
 20
-98.8705
 11
101.335
 21
-99.0302
  0
LINE
  8
0
 10
101.335
 20
-99.0302
 11
101.446
 21
-99.2051
  0
LINE
  8
0
 10
101.446
 20
-99.2051
 11
101.534
 21
-99.3926
  0
LINE
  8
0
 10
101.534
 20
-99.3926
 11
101.598
 21
-99.5897
  0
LINE
  8
0
 10
101.598
 20
-99.5897
 11
101.637
 21
-99.7932
  0
LINE
  8
0
 10
101.637
 20
-99.7932
 11
101.65
 21
-100
  0
LINE
  8
0
 10
101.65
 20
-100
 11
101.637
 21
-100.207
  0
LINE
  8
0
 10
101.637
 20
-100.207
 11
101.598
 21
-100.41
  0
LINE
  8
0
 10
101.598
 20
-100.41
 11
101.534
 21
-100.607
  0
LINE
  8
0
 10
101.534
 20
-100.607
 11
101.446
 21
-100.795
  0
LINE
  8
0
 10
101.446
 20
-100.795
 11
101.335
 21
-100.97
  0
LINE
  8
0
 10
101.335
 20
-100.97
 11
101.203
 21
-101.13
  0
LINE
  8
0
 10
101.203
 20
-101.13
 11
101.052
 21
-101.271
  0
LINE
  8
0
 10
101.052
 20
-101.271
 11
100.884
 21
-101.393
  0
LINE
  8
0
 10
100.884
 20
-101.393
 11
100.703
 21
-101.493
  0
LINE
  8
0
 10
100.703
 20
-101.493
 11
100.51
 21
-101.569
  0
LINE
  8
0
 10
100.51
 20
-101.569
 11
100.309
 21
-101.621
  0
LINE
  8
0
 10
100.309
 20
-101.621
 11
100.104
 21
-101.647
  0
LINE
  8
0
 10
100.104
 20
-101.647
 11
99.8964
 21
-101.647
  0
LINE
  8
0
 10
-100.104
 20
-101.647
 11
-100.309
 21
-101.621
  0
LINE
  8
0
 10
-100.309
 20
-101.621
 11
-100.51
 21
-101.569
  0
LINE
  8
0
 10
-100.51
 20
-101.569
 11
-100.703
 21
-101.493
  0
LINE
  8
0
 10
-100.703
 20
-101.493
 11
-100.884
 21
-101.393
  0
LINE
  8
0
 10
-100.884
 20
-101.393
 11
-101.052
 21
-101.271
  0
LINE
  8
0
 10
-101.052
 20
-101.271
 11
-101.203
 21
-101.13
  0
LINE
  8
0
 10
-101.203
 20
-101.13
 11
-101.335
 21
-100.97
  0
LINE
  8
0
 10
-101.335
 20
-100.97
 11
-101.446
 21
-100.795
  0
LINE
  8
0
 10
-101.446
 20
-100.795
 11
-101.534
 21
-100.607
  0
LINE
  8
0
 10
-101.534
 20
-100.607
 11
-101.598
 21
-100.41
  0
LINE
  8
0
 10
-101.598
 20
-100.41
 11
-101.637
 21
-100.207
  0
LINE
  8
0
 10
-101.637
 20
-100.207
 11
-101.65
 21
-100
  0
LINE
  8
0
 10
-101.65
 20
-100
 11
-101.637
 21
-99.7932
  0
LINE
  8
0
 10
-101.637
 20
-99.7932
 11
-101.598
 21
-99.5897
  0
LINE
  8
0
 10
-101.598
 20
-99.5897
 11
-101.534
 21
-99.3926
  0
LINE
  8
0
 10
-101.534
 20
-99.3926
 11
-101.446
 21
-99.2051
  0
LINE
  8
0
 10
-101.446
 20
-99.2051
 11
-101.335
 21
-99.0302
  0
LINE
  8
0
 10
-101.335
 20
-99.0302
 11
-101.203
 21
-98.8705
  0
LINE
  8
0
 10
-101.203
 20
-98.8705
 11
-101.052
 21
-98.7287
  0
LINE
  8
0
 10
-101.052
 20
-98.7287
 11
-100.884
 21
-98.6069
  0
LINE
  8
0
 10
-100.884
 20
-98.6069
 11
-100.703
 21
-98.507
  0
LINE
  8
0
 10
-100.703
 20
-98.507
 11
-100.51
 21
-98.4308
  0
LINE
  8
0
 10
-100.51
 20
-98.4308
 11
-100.309
 21
-98.3792
  0
LINE
  8
0
 10
-100.309
 20
-98.3792
 11
-100.104
 21
-98.3533
  0
LINE
  8
0
 10
-100.104
 20
-98.3533
 11
-99.8964
 21
-98.3533
  0
LINE
  8
0
 10
-99.8964
 20
-98.3533
 11
-99.6908
 21
-98.3792
  0
LINE
  8
0
 10
-99.6908
 20
-98.3792
 11
-99.4901
 21
-98.4308
  0
LINE
  8
0
 10
-99.4901
 20
-98.4308
 11
-99.2975
 21
-98.507
  0
LINE
  8
0
 10
-99.2975
 20
-98.507
 11
-99.1159
 21
-98.6069
  0
LINE
  8
0
 10
-99.1159
 20
-98.6069
 11
-98.9482
 21
-98.7287
  0
LINE
  8
0
 10
-98.9482
 20
-98.7287
 11
-98.7972
 21
-98.8705
  0
LINE
  8
0
 10
-98.7972
 20
-98.8705
 11
-98.6651
 21
-99.0302
  0
LINE
  8
0
 10
-98.6651
 20
-99.0302
 11
-98.5541
 21
-99.2051
  0
LINE
  8
0
 10
-98.5541
 20
-99.2051
 11
-98.4659
 21
-99.3926
  0
LINE
  8
0
 10
-98.4659
 20
-99.3926
 11
-98.4018
 21
-99.5897
  0
LINE
  8
0
 10
-98.4018
 20
-99.5897
 11
-98.363
 21
-99.7932
  0
LINE
  8
0
 10
-98.363
 20
-99.7932
 11
-98.35
 21
-100
  0
LINE
  8
0
 10
-98.35
 20
-100
 11
-98.363
 21
-100.207
  0
LINE
  8
0
 10
-98.363
 20
-100.207
 11
-98.4018
 21
-100.41
  0
LINE
  8
0
 10
-98.4018
 20
-100.41
 11
-98.4659
 21
-100.607
  0
LINE
  8
0
 10
-98.4659
 20
-100.607
 11
-98.5541
 21
-100.795
  0
LINE
  8
0
 10
-98.5541
 20
-100.795
 11
-98.6651
 21
-100.97
  0
LINE
  8
0
 10
-98.6651
 20
-100.97
 11
-98.7972
 21
-101.13
  0
LINE
  8
0
 10
-98.7972
 20
-101.13
 11
-98.9482
 21
-101.271
  0
LINE
  8
0
 10
-98.9482
 20
-101.271
 11
-99.1159
 21
-101.393
  0
LINE
  8
0
 10
-99.1159
 20
-101.393
 11
-99.2975
 21
-101.493
  0
LINE
  8
0
 10
-99.2975
 20
-101.493
 11
-99.4901
 21
-101.569
  0
LINE
  8
0
 10
-99.4901
 20
-101.569
 11
-99.6908
 21
-101.621
  0
LINE
  8
0
 10
-99.6908
 20
-101.621
 11
-99.8964
 21
-101.647
  0
LINE
  8
0
 10
-99.8964
 20
-101.647
 11
-100.104
 21
-101.647
  0
ENDSEC
  0
SECTION
  2
OBJECTS
  0
DICTIONARY
  0
ENDSEC
  0
EOF
