<?xml version="1.0" standalone="no"?>
<!DOCTYPE svg PUBLIC "-//W3C//DTD SVG 1.1//EN" "http://www.w3.org/Graphics/SVG/1.1/DTD/svg11.dtd">
<svg width="100mm" height="275mm" viewBox="-50 -225 100 275" xmlns="http://www.w3.org/2000/svg" version="1.1">
<title>OpenSCAD Model</title>
<path d="
M 2.81071,-195.266 L 4.63525,-195.734 L 6.38669,-196.428 L 8.0374,-197.335 L 9.56136,-198.442 L 10.9345,-199.732
 L 12.1353,-201.183 L 13.1446,-202.774 L 13.9466,-204.478 L 14.5287,-206.27 L 14.8817,-208.12 L 15,-210
 L 14.8817,-211.88 L 14.5287,-213.73 L 13.9466,-215.522 L 13.1446,-217.226 L 12.1353,-218.817 L 10.9345,-220.268
 L 9.56136,-221.558 L 8.0374,-222.665 L 6.38669,-223.572 L 4.63525,-224.266 L 2.81071,-224.734 L 0.941849,-224.97
 L -0.941849,-224.97 L -2.81071,-224.734 L -4.63525,-224.266 L -6.38669,-223.572 L -8.0374,-222.665 L -9.56136,-221.558
 L -10.9345,-220.268 L -12.1353,-218.817 L -13.1446,-217.226 L -13.9466,-215.522 L -14.5287,-213.73 L -14.8817,-211.88
 L -15,-210 L -14.8817,-208.12 L -14.5287,-206.27 L -13.9466,-204.478 L -13.1446,-202.774 L -12.1353,-201.183
 L -10.9345,-199.732 L -9.56136,-198.442 L -8.0374,-197.335 L -6.38669,-196.428 L -4.63525,-195.734 L -2.81071,-195.266
 L -0.941849,-195.03 L 0.941849,-195.03 z
M -0.111176,-208.233 L -0.331772,-208.261 L -0.547134,-208.316 L -0.753876,-208.398 L -0.948715,-208.505 L -1.1286,-208.636
 L -1.2907,-208.788 L -1.43243,-208.959 L -1.55157,-209.147 L -1.64624,-209.348 L -1.71495,-209.56 L -1.75662,-209.778
 L -1.77058,-210 L -1.75662,-210.222 L -1.71495,-210.44 L -1.64624,-210.652 L -1.55157,-210.853 L -1.43243,-211.041
 L -1.2907,-211.212 L -1.1286,-211.364 L -0.948715,-211.495 L -0.753876,-211.602 L -0.547134,-211.684 L -0.331772,-211.739
 L -0.111176,-211.767 L 0.111176,-211.767 L 0.331772,-211.739 L 0.547134,-211.684 L 0.753876,-211.602 L 0.948715,-211.495
 L 1.1286,-211.364 L 1.2907,-211.212 L 1.43243,-211.041 L 1.55157,-210.853 L 1.64624,-210.652 L 1.71495,-210.44
 L 1.75662,-210.222 L 1.77058,-210 L 1.75662,-209.778 L 1.71495,-209.56 L 1.64624,-209.348 L 1.55157,-209.147
 L 1.43243,-208.959 L 1.2907,-208.788 L 1.1286,-208.636 L 0.948715,-208.505 L 0.753876,-208.398 L 0.547134,-208.316
 L 0.331772,-208.261 L 0.111176,-208.233 z
M 1.87381,-95.1771 L 3.09016,-95.4894 L 4.25778,-95.9517 L 5.35826,-96.5567 L 6.37424,-97.2949 L 7.28967,-98.1545
 L 8.09016,-99.1222 L 8.76306,-100.182 L 9.29776,-101.319 L 9.68582,-102.513 L 9.92114,-103.747 L 10,-105
 L 9.92114,-106.253 L 9.68582,-107.487 L 9.29776,-108.681 L 8.76306,-109.818 L 8.09016,-110.878 L 7.28967,-111.845
 L 6.37424,-112.705 L 5.35826,-113.443 L 4.25778,-114.048 L 3.09016,-114.511 L 1.87381,-114.823 L 0.627899,-114.98
 L -0.627899,-114.98 L -1.87381,-114.823 L -3.09016,-114.511 L -4.25778,-114.048 L -5.35826,-113.443 L -6.37424,-112.705
 L -7.28967,-111.845 L -8.09016,-110.878 L -8.76306,-109.818 L -9.29776,-108.681 L -9.68582,-107.487 L -9.92114,-106.253
 L -10,-105 L -9.92114,-103.747 L -9.68582,-102.513 L -9.29776,-101.319 L -8.76306,-100.182 L -8.09016,-99.1222
 L -7.28967,-98.1545 L -6.37424,-97.2949 L -5.35826,-96.5567 L -4.25778,-95.9517 L -3.09016,-95.4894 L -1.87381,-95.1771
 L -0.627899,-95.0197 L 0.627899,-95.0197 z
M -0.103592,-103.353 L -0.309174,-103.379 L -0.509872,-103.431 L -0.70253,-103.507 L -0.884109,-103.607 L -1.05174,-103.729
 L -1.20279,-103.87 L -1.33487,-104.03 L -1.44589,-104.205 L -1.53412,-104.393 L -1.59816,-104.59 L -1.63698,-104.793
 L -1.64999,-105 L -1.63698,-105.207 L -1.59816,-105.41 L -1.53412,-105.607 L -1.44589,-105.795 L -1.33487,-105.97
 L -1.20279,-106.13 L -1.05174,-106.271 L -0.884109,-106.393 L -0.70253,-106.493 L -0.509872,-106.569 L -0.309174,-106.621
 L -0.103592,-106.647 L 0.103592,-106.647 L 0.309174,-106.621 L 0.509872,-106.569 L 0.70253,-106.493 L 0.884109,-106.393
 L 1.05174,-106.271 L 1.20279,-106.13 L 1.33487,-105.97 L 1.44589,-105.795 L 1.53412,-105.607 L 1.59816,-105.41
 L 1.63698,-105.207 L 1.64999,-105 L 1.63698,-104.793 L 1.59816,-104.59 L 1.53412,-104.393 L 1.44589,-104.205
 L 1.33487,-104.03 L 1.20279,-103.87 L 1.05174,-103.729 L 0.884109,-103.607 L 0.70253,-103.507 L 0.509872,-103.431
 L 0.309174,-103.379 L 0.103592,-103.353 z
M 9.36906,49.1143 L 15.4508,47.5528 L 21.289,45.2413 L 26.7913,42.2164 L 31.8712,38.5257 L 36.4484,34.2274
 L 40.4509,29.3893 L 43.8153,24.0877 L 46.4888,18.4062 L 48.4292,12.4345 L 49.6057,6.26665 L 50,-0
 L 49.6057,-6.26665 L 48.4292,-12.4345 L 46.4888,-18.4062 L 43.8153,-24.0877 L 40.4509,-29.3893 L 36.4484,-34.2274
 L 31.8712,-38.5257 L 26.7913,-42.2164 L 21.289,-45.2413 L 15.4508,-47.5528 L 9.36906,-49.1143 L 3.13951,-49.9013
 L -3.13951,-49.9013 L -9.36906,-49.1143 L -15.4508,-47.5528 L -21.289,-45.2413 L -26.7913,-42.2164 L -31.8712,-38.5257
 L -36.4484,-34.2274 L -40.4509,-29.3893 L -43.8153,-24.0877 L -46.4888,-18.4062 L -48.4292,-12.4345 L -49.6057,-6.26665
 L -50,-0 L -49.6057,6.26665 L -48.4292,12.4345 L -46.4888,18.4062 L -43.8153,24.0877 L -40.4509,29.3893
 L -36.4484,34.2274 L -31.8712,38.5257 L -26.7913,42.2164 L -21.289,45.2413 L -15.4508,47.5528 L -9.36906,49.1143
 L -3.13951,49.9013 L 3.13951,49.9013 z
M -0.103592,1.64674 L -0.309174,1.62077 L -0.509872,1.56923 L -0.70253,1.49295 L -0.884109,1.39313 L -1.05174,1.27133
 L -1.20279,1.1295 L -1.33487,0.969833 L -1.44589,0.794891 L -1.53412,0.607391 L -1.59816,0.410324 L -1.63698,0.206787
 L -1.64999,-0 L -1.63698,-0.206787 L -1.59816,-0.410324 L -1.53412,-0.607391 L -1.44589,-0.794891 L -1.33487,-0.969833
 L -1.20279,-1.1295 L -1.05174,-1.27133 L -0.884109,-1.39313 L -0.70253,-1.49295 L -0.509872,-1.56923 L -0.309174,-1.62077
 L -0.103592,-1.64674 L 0.103592,-1.64674 L 0.309174,-1.62077 L 0.509872,-1.56923 L 0.70253,-1.49295 L 0.884109,-1.39313
 L 1.05174,-1.27133 L 1.20279,-1.1295 L 1.33487,-0.969833 L 1.44589,-0.794891 L 1.53412,-0.607391 L 1.59816,-0.410324
 L 1.63698,-0.206787 L 1.64999,-0 L 1.63698,0.206787 L 1.59816,0.410324 L 1.53412,0.607391 L 1.44589,0.794891
 L 1.33487,0.969833 L 1.20279,1.1295 L 1.05174,1.27133 L 0.884109,1.39313 L 0.70253,1.49295 L 0.509872,1.56923
 L 0.309174,1.62077 L 0.103592,1.64674 z
" stroke="black" fill="lightgray" stroke-width="0.5"/>
</svg>
