  0
SECTION
  2
BLOCKS
  0
ENDSEC
  0
SECTION
  2
ENTITIES
  0
LINE
  8
0
 10
2.34225
 20
197.721
 11
3.8627
 21
198.112
  0
LINE
  8
0
 10
3.8627
 20
198.112
 11
5.32224
 21
198.69
  0
LINE
  8
0
 10
5.32224
 20
198.69
 11
6.69783
 21
199.446
  0
LINE
  8
0
 10
6.69783
 20
199.446
 11
7.96779
 21
200.369
  0
LINE
  8
0
 10
7.96779
 20
200.369
 11
9.11211
 21
201.443
  0
LINE
  8
0
 10
9.11211
 20
201.443
 11
10.1127
 21
202.653
  0
LINE
  8
0
 10
10.1127
 20
202.653
 11
10.9538
 21
203.978
  0
LINE
  8
0
 10
10.9538
 20
203.978
 11
11.6222
 21
205.398
  0
LINE
  8
0
 10
11.6222
 20
205.398
 11
12.1073
 21
206.891
  0
LINE
  8
0
 10
12.1073
 20
206.891
 11
12.4014
 21
208.433
  0
LINE
  8
0
 10
12.4014
 20
208.433
 11
12.5
 21
210
  0
LINE
  8
0
 10
12.5
 20
210
 11
12.4014
 21
211.567
  0
LINE
  8
0
 10
12.4014
 20
211.567
 11
12.1073
 21
213.109
  0
LINE
  8
0
 10
12.1073
 20
213.109
 11
11.6222
 21
214.602
  0
LINE
  8
0
 10
11.6222
 20
214.602
 11
10.9538
 21
216.022
  0
LINE
  8
0
 10
10.9538
 20
216.022
 11
10.1127
 21
217.347
  0
LINE
  8
0
 10
10.1127
 20
217.347
 11
9.11211
 21
218.557
  0
LINE
  8
0
 10
9.11211
 20
218.557
 11
7.96779
 21
219.631
  0
LINE
  8
0
 10
7.96779
 20
219.631
 11
6.69783
 21
220.554
  0
LINE
  8
0
 10
6.69783
 20
220.554
 11
5.32224
 21
221.31
  0
LINE
  8
0
 10
5.32224
 20
221.31
 11
3.8627
 21
221.888
  0
LINE
  8
0
 10
3.8627
 20
221.888
 11
2.34225
 21
222.279
  0
LINE
  8
0
 10
2.34225
 20
222.279
 11
0.784866
 21
222.475
  0
LINE
  8
0
 10
0.784866
 20
222.475
 11
-0.784866
 21
222.475
  0
LINE
  8
0
 10
-0.784866
 20
222.475
 11
-2.34225
 21
222.279
  0
LINE
  8
0
 10
-2.34225
 20
222.279
 11
-3.8627
 21
221.888
  0
LINE
  8
0
 10
-3.8627
 20
221.888
 11
-5.32224
 21
221.31
  0
LINE
  8
0
 10
-5.32224
 20
221.31
 11
-6.69783
 21
220.554
  0
LINE
  8
0
 10
-6.69783
 20
220.554
 11
-7.96779
 21
219.631
  0
LINE
  8
0
 10
-7.96779
 20
219.631
 11
-9.11211
 21
218.557
  0
LINE
  8
0
 10
-9.11211
 20
218.557
 11
-10.1127
 21
217.347
  0
LINE
  8
0
 10
-10.1127
 20
217.347
 11
-10.9538
 21
216.022
  0
LINE
  8
0
 10
-10.9538
 20
216.022
 11
-11.6222
 21
214.602
  0
LINE
  8
0
 10
-11.6222
 20
214.602
 11
-12.1073
 21
213.109
  0
LINE
  8
0
 10
-12.1073
 20
213.109
 11
-12.4014
 21
211.567
  0
LINE
  8
0
 10
-12.4014
 20
211.567
 11
-12.5
 21
210
  0
LINE
  8
0
 10
-12.5
 20
210
 11
-12.4014
 21
208.433
  0
LINE
  8
0
 10
-12.4014
 20
208.433
 11
-12.1073
 21
206.891
  0
LINE
  8
0
 10
-12.1073
 20
206.891
 11
-11.6222
 21
205.398
  0
LINE
  8
0
 10
-11.6222
 20
205.398
 11
-10.9538
 21
203.978
  0
LINE
  8
0
 10
-10.9538
 20
203.978
 11
-10.1127
 21
202.653
  0
LINE
  8
0
 10
-10.1127
 20
202.653
 11
-9.11211
 21
201.443
  0
LINE
  8
0
 10
-9.11211
 20
201.443
 11
-7.96779
 21
200.369
  0
LINE
  8
0
 10
-7.96779
 20
200.369
 11
-6.69783
 21
199.446
  0
LINE
  8
0
 10
-6.69783
 20
199.446
 11
-5.32224
 21
198.69
  0
LINE
  8
0
 10
-5.32224
 20
198.69
 11
-3.8627
 21
198.112
  0
LINE
  8
0
 10
-3.8627
 20
198.112
 11
-2.34225
 21
197.721
  0
LINE
  8
0
 10
-2.34225
 20
197.721
 11
-0.784866
 21
197.525
  0
LINE
  8
0
 10
-0.784866
 20
197.525
 11
0.784866
 21
197.525
  0
LINE
  8
0
 10
0.784866
 20
197.525
 11
2.34225
 21
197.721
  0
LINE
  8
0
 10
-0.186325
 20
207.038
 11
-0.556076
 21
207.085
  0
LINE
  8
0
 10
-0.556076
 20
207.085
 11
-0.917038
 21
207.178
  0
LINE
  8
0
 10
-0.917038
 20
207.178
 11
-1.26355
 21
207.315
  0
LINE
  8
0
 10
-1.26355
 20
207.315
 11
-1.59013
 21
207.494
  0
LINE
  8
0
 10
-1.59013
 20
207.494
 11
-1.89165
 21
207.713
  0
LINE
  8
0
 10
-1.89165
 20
207.713
 11
-2.16331
 21
207.969
  0
LINE
  8
0
 10
-2.16331
 20
207.969
 11
-2.40086
 21
208.256
  0
LINE
  8
0
 10
-2.40086
 20
208.256
 11
-2.60056
 21
208.57
  0
LINE
  8
0
 10
-2.60056
 20
208.57
 11
-2.75925
 21
208.908
  0
LINE
  8
0
 10
-2.75925
 20
208.908
 11
-2.8744
 21
209.262
  0
LINE
  8
0
 10
-2.8744
 20
209.262
 11
-2.94424
 21
209.628
  0
LINE
  8
0
 10
-2.94424
 20
209.628
 11
-2.96764
 21
210
  0
LINE
  8
0
 10
-2.96764
 20
210
 11
-2.94424
 21
210.372
  0
LINE
  8
0
 10
-2.94424
 20
210.372
 11
-2.8744
 21
210.738
  0
LINE
  8
0
 10
-2.8744
 20
210.738
 11
-2.75925
 21
211.092
  0
LINE
  8
0
 10
-2.75925
 20
211.092
 11
-2.60056
 21
211.43
  0
LINE
  8
0
 10
-2.60056
 20
211.43
 11
-2.40086
 21
211.744
  0
LINE
  8
0
 10
-2.40086
 20
211.744
 11
-2.16331
 21
212.031
  0
LINE
  8
0
 10
-2.16331
 20
212.031
 11
-1.89165
 21
212.287
  0
LINE
  8
0
 10
-1.89165
 20
212.287
 11
-1.59013
 21
212.506
  0
LINE
  8
0
 10
-1.59013
 20
212.506
 11
-1.26355
 21
212.685
  0
LINE
  8
0
 10
-1.26355
 20
212.685
 11
-0.917038
 21
212.822
  0
LINE
  8
0
 10
-0.917038
 20
212.822
 11
-0.556076
 21
212.915
  0
LINE
  8
0
 10
-0.556076
 20
212.915
 11
-0.186325
 21
212.962
  0
LINE
  8
0
 10
-0.186325
 20
212.962
 11
0.186325
 21
212.962
  0
LINE
  8
0
 10
0.186325
 20
212.962
 11
0.556076
 21
212.915
  0
LINE
  8
0
 10
0.556076
 20
212.915
 11
0.917038
 21
212.822
  0
LINE
  8
0
 10
0.917038
 20
212.822
 11
1.26355
 21
212.685
  0
LINE
  8
0
 10
1.26355
 20
212.685
 11
1.59013
 21
212.506
  0
LINE
  8
0
 10
1.59013
 20
212.506
 11
1.89165
 21
212.287
  0
LINE
  8
0
 10
1.89165
 20
212.287
 11
2.16331
 21
212.031
  0
LINE
  8
0
 10
2.16331
 20
212.031
 11
2.40086
 21
211.744
  0
LINE
  8
0
 10
2.40086
 20
211.744
 11
2.60056
 21
211.43
  0
LINE
  8
0
 10
2.60056
 20
211.43
 11
2.75925
 21
211.092
  0
LINE
  8
0
 10
2.75925
 20
211.092
 11
2.8744
 21
210.738
  0
LINE
  8
0
 10
2.8744
 20
210.738
 11
2.94424
 21
210.372
  0
LINE
  8
0
 10
2.94424
 20
210.372
 11
2.96764
 21
210
  0
LINE
  8
0
 10
2.96764
 20
210
 11
2.94424
 21
209.628
  0
LINE
  8
0
 10
2.94424
 20
209.628
 11
2.8744
 21
209.262
  0
LINE
  8
0
 10
2.8744
 20
209.262
 11
2.75925
 21
208.908
  0
LINE
  8
0
 10
2.75925
 20
208.908
 11
2.60056
 21
208.57
  0
LINE
  8
0
 10
2.60056
 20
208.57
 11
2.40086
 21
208.256
  0
LINE
  8
0
 10
2.40086
 20
208.256
 11
2.16331
 21
207.969
  0
LINE
  8
0
 10
2.16331
 20
207.969
 11
1.89165
 21
207.713
  0
LINE
  8
0
 10
1.89165
 20
207.713
 11
1.59013
 21
207.494
  0
LINE
  8
0
 10
1.59013
 20
207.494
 11
1.26355
 21
207.315
  0
LINE
  8
0
 10
1.26355
 20
207.315
 11
0.917038
 21
207.178
  0
LINE
  8
0
 10
0.917038
 20
207.178
 11
0.556076
 21
207.085
  0
LINE
  8
0
 10
0.556076
 20
207.085
 11
0.186325
 21
207.038
  0
LINE
  8
0
 10
0.186325
 20
207.038
 11
-0.186325
 21
207.038
  0
LINE
  8
0
 10
2.34225
 20
92.7214
 11
3.8627
 21
93.1118
  0
LINE
  8
0
 10
3.8627
 20
93.1118
 11
5.32224
 21
93.6897
  0
LINE
  8
0
 10
5.32224
 20
93.6897
 11
6.69783
 21
94.4459
  0
LINE
  8
0
 10
6.69783
 20
94.4459
 11
7.96779
 21
95.3686
  0
LINE
  8
0
 10
7.96779
 20
95.3686
 11
9.11211
 21
96.4432
  0
LINE
  8
0
 10
9.11211
 20
96.4432
 11
10.1127
 21
97.6527
  0
LINE
  8
0
 10
10.1127
 20
97.6527
 11
10.9538
 21
98.9781
  0
LINE
  8
0
 10
10.9538
 20
98.9781
 11
11.6222
 21
100.398
  0
LINE
  8
0
 10
11.6222
 20
100.398
 11
12.1073
 21
101.891
  0
LINE
  8
0
 10
12.1073
 20
101.891
 11
12.4014
 21
103.433
  0
LINE
  8
0
 10
12.4014
 20
103.433
 11
12.5
 21
105
  0
LINE
  8
0
 10
12.5
 20
105
 11
12.4014
 21
106.567
  0
LINE
  8
0
 10
12.4014
 20
106.567
 11
12.1073
 21
108.109
  0
LINE
  8
0
 10
12.1073
 20
108.109
 11
11.6222
 21
109.602
  0
LINE
  8
0
 10
11.6222
 20
109.602
 11
10.9538
 21
111.022
  0
LINE
  8
0
 10
10.9538
 20
111.022
 11
10.1127
 21
112.347
  0
LINE
  8
0
 10
10.1127
 20
112.347
 11
9.11211
 21
113.557
  0
LINE
  8
0
 10
9.11211
 20
113.557
 11
7.96779
 21
114.631
  0
LINE
  8
0
 10
7.96779
 20
114.631
 11
6.69783
 21
115.554
  0
LINE
  8
0
 10
6.69783
 20
115.554
 11
5.32224
 21
116.31
  0
LINE
  8
0
 10
5.32224
 20
116.31
 11
3.8627
 21
116.888
  0
LINE
  8
0
 10
3.8627
 20
116.888
 11
2.34225
 21
117.279
  0
LINE
  8
0
 10
2.34225
 20
117.279
 11
0.784866
 21
117.475
  0
LINE
  8
0
 10
0.784866
 20
117.475
 11
-0.784866
 21
117.475
  0
LINE
  8
0
 10
-0.784866
 20
117.475
 11
-2.34225
 21
117.279
  0
LINE
  8
0
 10
-2.34225
 20
117.279
 11
-3.8627
 21
116.888
  0
LINE
  8
0
 10
-3.8627
 20
116.888
 11
-5.32224
 21
116.31
  0
LINE
  8
0
 10
-5.32224
 20
116.31
 11
-6.69783
 21
115.554
  0
LINE
  8
0
 10
-6.69783
 20
115.554
 11
-7.96779
 21
114.631
  0
LINE
  8
0
 10
-7.96779
 20
114.631
 11
-9.11211
 21
113.557
  0
LINE
  8
0
 10
-9.11211
 20
113.557
 11
-10.1127
 21
112.347
  0
LINE
  8
0
 10
-10.1127
 20
112.347
 11
-10.9538
 21
111.022
  0
LINE
  8
0
 10
-10.9538
 20
111.022
 11
-11.6222
 21
109.602
  0
LINE
  8
0
 10
-11.6222
 20
109.602
 11
-12.1073
 21
108.109
  0
LINE
  8
0
 10
-12.1073
 20
108.109
 11
-12.4014
 21
106.567
  0
LINE
  8
0
 10
-12.4014
 20
106.567
 11
-12.5
 21
105
  0
LINE
  8
0
 10
-12.5
 20
105
 11
-12.4014
 21
103.433
  0
LINE
  8
0
 10
-12.4014
 20
103.433
 11
-12.1073
 21
101.891
  0
LINE
  8
0
 10
-12.1073
 20
101.891
 11
-11.6222
 21
100.398
  0
LINE
  8
0
 10
-11.6222
 20
100.398
 11
-10.9538
 21
98.9781
  0
LINE
  8
0
 10
-10.9538
 20
98.9781
 11
-10.1127
 21
97.6527
  0
LINE
  8
0
 10
-10.1127
 20
97.6527
 11
-9.11211
 21
96.4432
  0
LINE
  8
0
 10
-9.11211
 20
96.4432
 11
-7.96779
 21
95.3686
  0
LINE
  8
0
 10
-7.96779
 20
95.3686
 11
-6.69783
 21
94.4459
  0
LINE
  8
0
 10
-6.69783
 20
94.4459
 11
-5.32224
 21
93.6897
  0
LINE
  8
0
 10
-5.32224
 20
93.6897
 11
-3.8627
 21
93.1118
  0
LINE
  8
0
 10
-3.8627
 20
93.1118
 11
-2.34225
 21
92.7214
  0
LINE
  8
0
 10
-2.34225
 20
92.7214
 11
-0.784866
 21
92.5247
  0
LINE
  8
0
 10
-0.784866
 20
92.5247
 11
0.784866
 21
92.5247
  0
LINE
  8
0
 10
0.784866
 20
92.5247
 11
2.34225
 21
92.7214
  0
LINE
  8
0
 10
-0.103592
 20
103.353
 11
-0.309174
 21
103.379
  0
LINE
  8
0
 10
-0.309174
 20
103.379
 11
-0.509872
 21
103.431
  0
LINE
  8
0
 10
-0.509872
 20
103.431
 11
-0.70253
 21
103.507
  0
LINE
  8
0
 10
-0.70253
 20
103.507
 11
-0.884109
 21
103.607
  0
LINE
  8
0
 10
-0.884109
 20
103.607
 11
-1.05174
 21
103.729
  0
LINE
  8
0
 10
-1.05174
 20
103.729
 11
-1.20279
 21
103.87
  0
LINE
  8
0
 10
-1.20279
 20
103.87
 11
-1.33487
 21
104.03
  0
LINE
  8
0
 10
-1.33487
 20
104.03
 11
-1.44589
 21
104.205
  0
LINE
  8
0
 10
-1.44589
 20
104.205
 11
-1.53412
 21
104.393
  0
LINE
  8
0
 10
-1.53412
 20
104.393
 11
-1.59816
 21
104.59
  0
LINE
  8
0
 10
-1.59816
 20
104.59
 11
-1.63698
 21
104.793
  0
LINE
  8
0
 10
-1.63698
 20
104.793
 11
-1.64999
 21
105
  0
LINE
  8
0
 10
-1.64999
 20
105
 11
-1.63698
 21
105.207
  0
LINE
  8
0
 10
-1.63698
 20
105.207
 11
-1.59816
 21
105.41
  0
LINE
  8
0
 10
-1.59816
 20
105.41
 11
-1.53412
 21
105.607
  0
LINE
  8
0
 10
-1.53412
 20
105.607
 11
-1.44589
 21
105.795
  0
LINE
  8
0
 10
-1.44589
 20
105.795
 11
-1.33487
 21
105.97
  0
LINE
  8
0
 10
-1.33487
 20
105.97
 11
-1.20279
 21
106.13
  0
LINE
  8
0
 10
-1.20279
 20
106.13
 11
-1.05174
 21
106.271
  0
LINE
  8
0
 10
-1.05174
 20
106.271
 11
-0.884109
 21
106.393
  0
LINE
  8
0
 10
-0.884109
 20
106.393
 11
-0.70253
 21
106.493
  0
LINE
  8
0
 10
-0.70253
 20
106.493
 11
-0.509872
 21
106.569
  0
LINE
  8
0
 10
-0.509872
 20
106.569
 11
-0.309174
 21
106.621
  0
LINE
  8
0
 10
-0.309174
 20
106.621
 11
-0.103592
 21
106.647
  0
LINE
  8
0
 10
-0.103592
 20
106.647
 11
0.103592
 21
106.647
  0
LINE
  8
0
 10
0.103592
 20
106.647
 11
0.309174
 21
106.621
  0
LINE
  8
0
 10
0.309174
 20
106.621
 11
0.509872
 21
106.569
  0
LINE
  8
0
 10
0.509872
 20
106.569
 11
0.70253
 21
106.493
  0
LINE
  8
0
 10
0.70253
 20
106.493
 11
0.884109
 21
106.393
  0
LINE
  8
0
 10
0.884109
 20
106.393
 11
1.05174
 21
106.271
  0
LINE
  8
0
 10
1.05174
 20
106.271
 11
1.20279
 21
106.13
  0
LINE
  8
0
 10
1.20279
 20
106.13
 11
1.33487
 21
105.97
  0
LINE
  8
0
 10
1.33487
 20
105.97
 11
1.44589
 21
105.795
  0
LINE
  8
0
 10
1.44589
 20
105.795
 11
1.53412
 21
105.607
  0
LINE
  8
0
 10
1.53412
 20
105.607
 11
1.59816
 21
105.41
  0
LINE
  8
0
 10
1.59816
 20
105.41
 11
1.63698
 21
105.207
  0
LINE
  8
0
 10
1.63698
 20
105.207
 11
1.64999
 21
105
  0
LINE
  8
0
 10
1.64999
 20
105
 11
1.63698
 21
104.793
  0
LINE
  8
0
 10
1.63698
 20
104.793
 11
1.59816
 21
104.59
  0
LINE
  8
0
 10
1.59816
 20
104.59
 11
1.53412
 21
104.393
  0
LINE
  8
0
 10
1.53412
 20
104.393
 11
1.44589
 21
104.205
  0
LINE
  8
0
 10
1.44589
 20
104.205
 11
1.33487
 21
104.03
  0
LINE
  8
0
 10
1.33487
 20
104.03
 11
1.20279
 21
103.87
  0
LINE
  8
0
 10
1.20279
 20
103.87
 11
1.05174
 21
103.729
  0
LINE
  8
0
 10
1.05174
 20
103.729
 11
0.884109
 21
103.607
  0
LINE
  8
0
 10
0.884109
 20
103.607
 11
0.70253
 21
103.507
  0
LINE
  8
0
 10
0.70253
 20
103.507
 11
0.509872
 21
103.431
  0
LINE
  8
0
 10
0.509872
 20
103.431
 11
0.309174
 21
103.379
  0
LINE
  8
0
 10
0.309174
 20
103.379
 11
0.103592
 21
103.353
  0
LINE
  8
0
 10
0.103592
 20
103.353
 11
-0.103592
 21
103.353
  0
LINE
  8
0
 10
9.36906
 20
-49.1143
 11
15.4508
 21
-47.5528
  0
LINE
  8
0
 10
15.4508
 20
-47.5528
 11
21.289
 21
-45.2413
  0
LINE
  8
0
 10
21.289
 20
-45.2413
 11
26.7913
 21
-42.2164
  0
LINE
  8
0
 10
26.7913
 20
-42.2164
 11
31.8712
 21
-38.5257
  0
LINE
  8
0
 10
31.8712
 20
-38.5257
 11
36.4484
 21
-34.2274
  0
LINE
  8
0
 10
36.4484
 20
-34.2274
 11
40.4509
 21
-29.3893
  0
LINE
  8
0
 10
40.4509
 20
-29.3893
 11
43.8153
 21
-24.0877
  0
LINE
  8
0
 10
43.8153
 20
-24.0877
 11
46.4888
 21
-18.4062
  0
LINE
  8
0
 10
46.4888
 20
-18.4062
 11
48.4292
 21
-12.4345
  0
LINE
  8
0
 10
48.4292
 20
-12.4345
 11
49.6057
 21
-6.26665
  0
LINE
  8
0
 10
49.6057
 20
-6.26665
 11
50
 21
0
  0
LINE
  8
0
 10
50
 20
0
 11
49.6057
 21
6.26665
  0
LINE
  8
0
 10
49.6057
 20
6.26665
 11
48.4292
 21
12.4345
  0
LINE
  8
0
 10
48.4292
 20
12.4345
 11
46.4888
 21
18.4062
  0
LINE
  8
0
 10
46.4888
 20
18.4062
 11
43.8153
 21
24.0877
  0
LINE
  8
0
 10
43.8153
 20
24.0877
 11
40.4509
 21
29.3893
  0
LINE
  8
0
 10
40.4509
 20
29.3893
 11
36.4484
 21
34.2274
  0
LINE
  8
0
 10
36.4484
 20
34.2274
 11
31.8712
 21
38.5257
  0
LINE
  8
0
 10
31.8712
 20
38.5257
 11
26.7913
 21
42.2164
  0
LINE
  8
0
 10
26.7913
 20
42.2164
 11
21.289
 21
45.2413
  0
LINE
  8
0
 10
21.289
 20
45.2413
 11
15.4508
 21
47.5528
  0
LINE
  8
0
 10
15.4508
 20
47.5528
 11
9.36906
 21
49.1143
  0
LINE
  8
0
 10
9.36906
 20
49.1143
 11
3.13951
 21
49.9013
  0
LINE
  8
0
 10
3.13951
 20
49.9013
 11
-3.13951
 21
49.9013
  0
LINE
  8
0
 10
-3.13951
 20
49.9013
 11
-9.36906
 21
49.1143
  0
LINE
  8
0
 10
-9.36906
 20
49.1143
 11
-15.4508
 21
47.5528
  0
LINE
  8
0
 10
-15.4508
 20
47.5528
 11
-21.289
 21
45.2413
  0
LINE
  8
0
 10
-21.289
 20
45.2413
 11
-26.7913
 21
42.2164
  0
LINE
  8
0
 10
-26.7913
 20
42.2164
 11
-31.8712
 21
38.5257
  0
LINE
  8
0
 10
-31.8712
 20
38.5257
 11
-36.4484
 21
34.2274
  0
LINE
  8
0
 10
-36.4484
 20
34.2274
 11
-40.4509
 21
29.3893
  0
LINE
  8
0
 10
-40.4509
 20
29.3893
 11
-43.8153
 21
24.0877
  0
LINE
  8
0
 10
-43.8153
 20
24.0877
 11
-46.4888
 21
18.4062
  0
LINE
  8
0
 10
-46.4888
 20
18.4062
 11
-48.4292
 21
12.4345
  0
LINE
  8
0
 10
-48.4292
 20
12.4345
 11
-49.6057
 21
6.26665
  0
LINE
  8
0
 10
-49.6057
 20
6.26665
 11
-50
 21
0
  0
LINE
  8
0
 10
-50
 20
0
 11
-49.6057
 21
-6.26665
  0
LINE
  8
0
 10
-49.6057
 20
-6.26665
 11
-48.4292
 21
-12.4345
  0
LINE
  8
0
 10
-48.4292
 20
-12.4345
 11
-46.4888
 21
-18.4062
  0
LINE
  8
0
 10
-46.4888
 20
-18.4062
 11
-43.8153
 21
-24.0877
  0
LINE
  8
0
 10
-43.8153
 20
-24.0877
 11
-40.4509
 21
-29.3893
  0
LINE
  8
0
 10
-40.4509
 20
-29.3893
 11
-36.4484
 21
-34.2274
  0
LINE
  8
0
 10
-36.4484
 20
-34.2274
 11
-31.8712
 21
-38.5257
  0
LINE
  8
0
 10
-31.8712
 20
-38.5257
 11
-26.7913
 21
-42.2164
  0
LINE
  8
0
 10
-26.7913
 20
-42.2164
 11
-21.289
 21
-45.2413
  0
LINE
  8
0
 10
-21.289
 20
-45.2413
 11
-15.4508
 21
-47.5528
  0
LINE
  8
0
 10
-15.4508
 20
-47.5528
 11
-9.36906
 21
-49.1143
  0
LINE
  8
0
 10
-9.36906
 20
-49.1143
 11
-3.13951
 21
-49.9013
  0
LINE
  8
0
 10
-3.13951
 20
-49.9013
 11
3.13951
 21
-49.9013
  0
LINE
  8
0
 10
3.13951
 20
-49.9013
 11
9.36906
 21
-49.1143
  0
LINE
  8
0
 10
-0.103592
 20
-1.64674
 11
-0.309174
 21
-1.62077
  0
LINE
  8
0
 10
-0.309174
 20
-1.62077
 11
-0.509872
 21
-1.56923
  0
LINE
  8
0
 10
-0.509872
 20
-1.56923
 11
-0.70253
 21
-1.49295
  0
LINE
  8
0
 10
-0.70253
 20
-1.49295
 11
-0.884109
 21
-1.39313
  0
LINE
  8
0
 10
-0.884109
 20
-1.39313
 11
-1.05174
 21
-1.27133
  0
LINE
  8
0
 10
-1.05174
 20
-1.27133
 11
-1.20279
 21
-1.1295
  0
LINE
  8
0
 10
-1.20279
 20
-1.1295
 11
-1.33487
 21
-0.969833
  0
LINE
  8
0
 10
-1.33487
 20
-0.969833
 11
-1.44589
 21
-0.794891
  0
LINE
  8
0
 10
-1.44589
 20
-0.794891
 11
-1.53412
 21
-0.607391
  0
LINE
  8
0
 10
-1.53412
 20
-0.607391
 11
-1.59816
 21
-0.410324
  0
LINE
  8
0
 10
-1.59816
 20
-0.410324
 11
-1.63698
 21
-0.206787
  0
LINE
  8
0
 10
-1.63698
 20
-0.206787
 11
-1.64999
 21
0
  0
LINE
  8
0
 10
-1.64999
 20
0
 11
-1.63698
 21
0.206787
  0
LINE
  8
0
 10
-1.63698
 20
0.206787
 11
-1.59816
 21
0.410324
  0
LINE
  8
0
 10
-1.59816
 20
0.410324
 11
-1.53412
 21
0.607391
  0
LINE
  8
0
 10
-1.53412
 20
0.607391
 11
-1.44589
 21
0.794891
  0
LINE
  8
0
 10
-1.44589
 20
0.794891
 11
-1.33487
 21
0.969833
  0
LINE
  8
0
 10
-1.33487
 20
0.969833
 11
-1.20279
 21
1.1295
  0
LINE
  8
0
 10
-1.20279
 20
1.1295
 11
-1.05174
 21
1.27133
  0
LINE
  8
0
 10
-1.05174
 20
1.27133
 11
-0.884109
 21
1.39313
  0
LINE
  8
0
 10
-0.884109
 20
1.39313
 11
-0.70253
 21
1.49295
  0
LINE
  8
0
 10
-0.70253
 20
1.49295
 11
-0.509872
 21
1.56923
  0
LINE
  8
0
 10
-0.509872
 20
1.56923
 11
-0.309174
 21
1.62077
  0
LINE
  8
0
 10
-0.309174
 20
1.62077
 11
-0.103592
 21
1.64674
  0
LINE
  8
0
 10
-0.103592
 20
1.64674
 11
0.103592
 21
1.64674
  0
LINE
  8
0
 10
0.103592
 20
1.64674
 11
0.309174
 21
1.62077
  0
LINE
  8
0
 10
0.309174
 20
1.62077
 11
0.509872
 21
1.56923
  0
LINE
  8
0
 10
0.509872
 20
1.56923
 11
0.70253
 21
1.49295
  0
LINE
  8
0
 10
0.70253
 20
1.49295
 11
0.884109
 21
1.39313
  0
LINE
  8
0
 10
0.884109
 20
1.39313
 11
1.05174
 21
1.27133
  0
LINE
  8
0
 10
1.05174
 20
1.27133
 11
1.20279
 21
1.1295
  0
LINE
  8
0
 10
1.20279
 20
1.1295
 11
1.33487
 21
0.969833
  0
LINE
  8
0
 10
1.33487
 20
0.969833
 11
1.44589
 21
0.794891
  0
LINE
  8
0
 10
1.44589
 20
0.794891
 11
1.53412
 21
0.607391
  0
LINE
  8
0
 10
1.53412
 20
0.607391
 11
1.59816
 21
0.410324
  0
LINE
  8
0
 10
1.59816
 20
0.410324
 11
1.63698
 21
0.206787
  0
LINE
  8
0
 10
1.63698
 20
0.206787
 11
1.64999
 21
0
  0
LINE
  8
0
 10
1.64999
 20
0
 11
1.63698
 21
-0.206787
  0
LINE
  8
0
 10
1.63698
 20
-0.206787
 11
1.59816
 21
-0.410324
  0
LINE
  8
0
 10
1.59816
 20
-0.410324
 11
1.53412
 21
-0.607391
  0
LINE
  8
0
 10
1.53412
 20
-0.607391
 11
1.44589
 21
-0.794891
  0
LINE
  8
0
 10
1.44589
 20
-0.794891
 11
1.33487
 21
-0.969833
  0
LINE
  8
0
 10
1.33487
 20
-0.969833
 11
1.20279
 21
-1.1295
  0
LINE
  8
0
 10
1.20279
 20
-1.1295
 11
1.05174
 21
-1.27133
  0
LINE
  8
0
 10
1.05174
 20
-1.27133
 11
0.884109
 21
-1.39313
  0
LINE
  8
0
 10
0.884109
 20
-1.39313
 11
0.70253
 21
-1.49295
  0
LINE
  8
0
 10
0.70253
 20
-1.49295
 11
0.509872
 21
-1.56923
  0
LINE
  8
0
 10
0.509872
 20
-1.56923
 11
0.309174
 21
-1.62077
  0
LINE
  8
0
 10
0.309174
 20
-1.62077
 11
0.103592
 21
-1.64674
  0
LINE
  8
0
 10
0.103592
 20
-1.64674
 11
-0.103592
 21
-1.64674
  0
ENDSEC
  0
SECTION
  2
OBJECTS
  0
DICTIONARY
  0
ENDSEC
  0
EOF
